<?xml version="1.0" encoding="UTF-8"?>
<!--Generator: Apple Native CoreSVG 149-->
<!DOCTYPE svg
PUBLIC "-//W3C//DTD SVG 1.1//EN"
       "http://www.w3.org/Graphics/SVG/1.1/DTD/svg11.dtd">
<svg version="1.1" xmlns="http://www.w3.org/2000/svg" xmlns:xlink="http://www.w3.org/1999/xlink" width="3300" height="2200">
 <!--glyph: "uni1002DA.medium", point size: 100.0, font version: "17.0d9e1", template writer version: "59"-->
 <g id="Notes">
  <rect height="2200" id="artboard" style="fill:white;opacity:1" width="3300" x="0" y="0"/>
  <line style="fill:none;stroke:black;opacity:1;stroke-width:0.5;" x1="263" x2="3036" y1="292" y2="292"/>
  <text style="stroke:none;fill:black;font-family:sans-serif;font-size:13;font-weight:bold;" transform="matrix(1 0 0 1 263 322)">Weight/Scale Variations</text>
  <text style="stroke:none;fill:black;font-family:sans-serif;font-size:13;text-anchor:middle;" transform="matrix(1 0 0 1 559.711 322)">Ultralight</text>
  <text style="stroke:none;fill:black;font-family:sans-serif;font-size:13;text-anchor:middle;" transform="matrix(1 0 0 1 856.422 322)">Thin</text>
  <text style="stroke:none;fill:black;font-family:sans-serif;font-size:13;text-anchor:middle;" transform="matrix(1 0 0 1 1153.13 322)">Light</text>
  <text style="stroke:none;fill:black;font-family:sans-serif;font-size:13;text-anchor:middle;" transform="matrix(1 0 0 1 1449.84 322)">Regular</text>
  <text style="stroke:none;fill:black;font-family:sans-serif;font-size:13;text-anchor:middle;" transform="matrix(1 0 0 1 1746.56 322)">Medium</text>
  <text style="stroke:none;fill:black;font-family:sans-serif;font-size:13;text-anchor:middle;" transform="matrix(1 0 0 1 2043.27 322)">Semibold</text>
  <text style="stroke:none;fill:black;font-family:sans-serif;font-size:13;text-anchor:middle;" transform="matrix(1 0 0 1 2339.98 322)">Bold</text>
  <text style="stroke:none;fill:black;font-family:sans-serif;font-size:13;text-anchor:middle;" transform="matrix(1 0 0 1 2636.69 322)">Heavy</text>
  <text style="stroke:none;fill:black;font-family:sans-serif;font-size:13;text-anchor:middle;" transform="matrix(1 0 0 1 2933.4 322)">Black</text>
  <line style="fill:none;stroke:black;opacity:1;stroke-width:0.5;" x1="263" x2="3036" y1="1903" y2="1903"/>
  <g transform="matrix(1 0 0 1 263 1933)">
   <path d="M9.24805 0.830078Q10.8691 0.830078 12.2949 0.214844Q13.7207-0.400391 14.8096-1.49414Q15.8984-2.58789 16.5186-4.01367Q17.1387-5.43945 17.1387-7.05078Q17.1387-8.66211 16.5186-10.0879Q15.8984-11.5137 14.8047-12.6074Q13.7109-13.7012 12.2852-14.3164Q10.8594-14.9316 9.23828-14.9316Q7.62695-14.9316 6.20117-14.3164Q4.77539-13.7012 3.69141-12.6074Q2.60742-11.5137 1.9873-10.0879Q1.36719-8.66211 1.36719-7.05078Q1.36719-5.43945 1.9873-4.01367Q2.60742-2.58789 3.69629-1.49414Q4.78516-0.400391 6.21094 0.214844Q7.63672 0.830078 9.24805 0.830078ZM9.24805-0.654297Q7.91992-0.654297 6.7627-1.14746Q5.60547-1.64062 4.73145-2.51953Q3.85742-3.39844 3.36426-4.56055Q2.87109-5.72266 2.87109-7.05078Q2.87109-8.37891 3.35938-9.54102Q3.84766-10.7031 4.72168-11.582Q5.5957-12.4609 6.75293-12.9541Q7.91016-13.4473 9.23828-13.4473Q10.5762-13.4473 11.7334-12.9541Q12.8906-12.4609 13.7695-11.582Q14.6484-10.7031 15.1465-9.54102Q15.6445-8.37891 15.6445-7.05078Q15.6445-5.72266 15.1514-4.56055Q14.6582-3.39844 13.7842-2.51953Q12.9102-1.64062 11.748-1.14746Q10.5859-0.654297 9.24805-0.654297ZM5.83984-7.04102Q5.83984-6.71875 6.04492-6.51855Q6.25-6.31836 6.5918-6.31836L8.50586-6.31836L8.50586-4.39453Q8.50586-4.0625 8.70605-3.85742Q8.90625-3.65234 9.22852-3.65234Q9.56055-3.65234 9.76562-3.85742Q9.9707-4.0625 9.9707-4.39453L9.9707-6.31836L11.8945-6.31836Q12.2266-6.31836 12.4316-6.51855Q12.6367-6.71875 12.6367-7.04102Q12.6367-7.37305 12.4316-7.57812Q12.2266-7.7832 11.8945-7.7832L9.9707-7.7832L9.9707-9.69727Q9.9707-10.0391 9.76562-10.2441Q9.56055-10.4492 9.22852-10.4492Q8.90625-10.4492 8.70605-10.2441Q8.50586-10.0391 8.50586-9.69727L8.50586-7.7832L6.5918-7.7832Q6.25-7.7832 6.04492-7.57812Q5.83984-7.37305 5.83984-7.04102Z"/>
  </g>
  <g transform="matrix(1 0 0 1 281.867 1933)">
   <path d="M11.709 2.91016Q13.75 2.91016 15.5518 2.12891Q17.3535 1.34766 18.7305-0.0292969Q20.1074-1.40625 20.8887-3.20801Q21.6699-5.00977 21.6699-7.05078Q21.6699-9.0918 20.8887-10.8936Q20.1074-12.6953 18.7305-14.0723Q17.3535-15.4492 15.5469-16.2305Q13.7402-17.0117 11.6992-17.0117Q9.6582-17.0117 7.85645-16.2305Q6.05469-15.4492 4.68262-14.0723Q3.31055-12.6953 2.5293-10.8936Q1.74805-9.0918 1.74805-7.05078Q1.74805-5.00977 2.5293-3.20801Q3.31055-1.40625 4.6875-0.0292969Q6.06445 1.34766 7.86621 2.12891Q9.66797 2.91016 11.709 2.91016ZM11.709 1.25Q9.98047 1.25 8.47656 0.605469Q6.97266-0.0390625 5.83496-1.17676Q4.69727-2.31445 4.05762-3.81836Q3.41797-5.32227 3.41797-7.05078Q3.41797-8.7793 4.05762-10.2832Q4.69727-11.7871 5.83008-12.9297Q6.96289-14.0723 8.4668-14.7119Q9.9707-15.3516 11.6992-15.3516Q13.4277-15.3516 14.9316-14.7119Q16.4355-14.0723 17.5781-12.9297Q18.7207-11.7871 19.3652-10.2832Q20.0098-8.7793 20.0098-7.05078Q20.0098-5.32227 19.3701-3.81836Q18.7305-2.31445 17.5928-1.17676Q16.4551-0.0390625 14.9463 0.605469Q13.4375 1.25 11.709 1.25ZM7.39258-7.04102Q7.39258-6.68945 7.62695-6.46484Q7.86133-6.24023 8.23242-6.24023L10.8789-6.24023L10.8789-3.57422Q10.8789-3.21289 11.1035-2.9834Q11.3281-2.75391 11.6797-2.75391Q12.0508-2.75391 12.2852-2.9834Q12.5195-3.21289 12.5195-3.57422L12.5195-6.24023L15.1758-6.24023Q15.5371-6.24023 15.7715-6.46484Q16.0059-6.68945 16.0059-7.04102Q16.0059-7.41211 15.7715-7.6416Q15.5371-7.87109 15.1758-7.87109L12.5195-7.87109L12.5195-10.5176Q12.5195-10.8984 12.2852-11.1279Q12.0508-11.3574 11.6797-11.3574Q11.3281-11.3574 11.1035-11.1279Q10.8789-10.8984 10.8789-10.5176L10.8789-7.87109L8.23242-7.87109Q7.85156-7.87109 7.62207-7.6416Q7.39258-7.41211 7.39258-7.04102Z"/>
  </g>
  <g transform="matrix(1 0 0 1 305.646 1933)">
   <path d="M14.9707 5.66406Q17.0605 5.66406 18.96 5.01465Q20.8594 4.36523 22.4512 3.19336Q24.043 2.02148 25.2197 0.429688Q26.3965-1.16211 27.0459-3.06641Q27.6953-4.9707 27.6953-7.05078Q27.6953-9.14062 27.0459-11.04Q26.3965-12.9395 25.2197-14.5312Q24.043-16.123 22.4512-17.2998Q20.8594-18.4766 18.9551-19.126Q17.0508-19.7754 14.9609-19.7754Q12.8711-19.7754 10.9717-19.126Q9.07227-18.4766 7.48535-17.2998Q5.89844-16.123 4.72168-14.5312Q3.54492-12.9395 2.90039-11.04Q2.25586-9.14062 2.25586-7.05078Q2.25586-4.9707 2.90527-3.06641Q3.55469-1.16211 4.72656 0.429688Q5.89844 2.02148 7.49023 3.19336Q9.08203 4.36523 10.9814 5.01465Q12.8809 5.66406 14.9707 5.66406ZM14.9707 3.84766Q13.1641 3.84766 11.5283 3.2959Q9.89258 2.74414 8.53516 1.74805Q7.17773 0.751953 6.17676-0.610352Q5.17578-1.97266 4.62891-3.6084Q4.08203-5.24414 4.08203-7.05078Q4.08203-8.86719 4.62891-10.5029Q5.17578-12.1387 6.17188-13.501Q7.16797-14.8633 8.52539-15.8594Q9.88281-16.8555 11.5186-17.4023Q13.1543-17.9492 14.9609-17.9492Q16.7773-17.9492 18.4131-17.4023Q20.0488-16.8555 21.4111-15.8594Q22.7734-14.8633 23.7695-13.501Q24.7656-12.1387 25.3174-10.5029Q25.8691-8.86719 25.8691-7.05078Q25.8789-5.24414 25.332-3.6084Q24.7852-1.97266 23.7842-0.610352Q22.7832 0.751953 21.4209 1.74805Q20.0586 2.74414 18.4229 3.2959Q16.7871 3.84766 14.9707 3.84766ZM9.45312-7.04102Q9.45312-6.66016 9.71191-6.41113Q9.9707-6.16211 10.3711-6.16211L14.0625-6.16211L14.0625-2.46094Q14.0625-2.06055 14.3115-1.80664Q14.5605-1.55273 14.9414-1.55273Q15.3516-1.55273 15.6055-1.80664Q15.8594-2.06055 15.8594-2.46094L15.8594-6.16211L19.5605-6.16211Q19.9609-6.16211 20.2148-6.41113Q20.4688-6.66016 20.4688-7.04102Q20.4688-7.45117 20.2148-7.70508Q19.9609-7.95898 19.5605-7.95898L15.8594-7.95898L15.8594-11.6504Q15.8594-12.0605 15.6055-12.3145Q15.3516-12.5684 14.9414-12.5684Q14.5605-12.5684 14.3115-12.3096Q14.0625-12.0508 14.0625-11.6504L14.0625-7.95898L10.3711-7.95898Q9.96094-7.95898 9.70703-7.70508Q9.45312-7.45117 9.45312-7.04102Z"/>
  </g>
  <text style="stroke:none;fill:black;font-family:sans-serif;font-size:13;font-weight:bold;" transform="matrix(1 0 0 1 263 1953)">Design Variations</text>
  <text style="stroke:none;fill:black;font-family:sans-serif;font-size:13;" transform="matrix(1 0 0 1 263 1971)">Symbols are supported in up to nine weights and three scales.</text>
  <text style="stroke:none;fill:black;font-family:sans-serif;font-size:13;" transform="matrix(1 0 0 1 263 1989)">For optimal layout with text and other symbols, vertically align</text>
  <text style="stroke:none;fill:black;font-family:sans-serif;font-size:13;" transform="matrix(1 0 0 1 263 2007)">symbols with the adjacent text.</text>
  <line style="fill:none;stroke:#00AEEF;stroke-width:0.5;opacity:1.0;" x1="776" x2="776" y1="1919" y2="1933"/>
  <g transform="matrix(1 0 0 1 776 1933)">
   <path d="M3.31055 0.15625Q3.70117 0.15625 3.91602-0.00976562Q4.13086-0.175781 4.26758-0.585938L5.52734-4.0332L11.2891-4.0332L12.5488-0.585938Q12.6855-0.175781 12.9004-0.00976562Q13.1152 0.15625 13.4961 0.15625Q13.8867 0.15625 14.1162-0.0585938Q14.3457-0.273438 14.3457-0.644531Q14.3457-0.869141 14.2383-1.17188L9.6582-13.3691Q9.48242-13.8184 9.17969-14.043Q8.87695-14.2676 8.4082-14.2676Q7.5-14.2676 7.17773-13.3789L2.59766-1.16211Q2.49023-0.859375 2.49023-0.634766Q2.49023-0.263672 2.70996-0.0537109Q2.92969 0.15625 3.31055 0.15625ZM6.00586-5.51758L8.37891-12.0898L8.42773-12.0898L10.8008-5.51758Z"/>
  </g>
  <line style="fill:none;stroke:#00AEEF;stroke-width:0.5;opacity:1.0;" x1="793.197" x2="793.197" y1="1919" y2="1933"/>
  <text style="stroke:none;fill:black;font-family:sans-serif;font-size:13;font-weight:bold;" transform="matrix(1 0 0 1 776 1953)">Margins</text>
  <text style="stroke:none;fill:black;font-family:sans-serif;font-size:13;" transform="matrix(1 0 0 1 776 1971)">Leading and trailing margins on the left and right side of each symbol</text>
  <text style="stroke:none;fill:black;font-family:sans-serif;font-size:13;" transform="matrix(1 0 0 1 776 1989)">can be adjusted by modifying the x-location of the margin guidelines.</text>
  <text style="stroke:none;fill:black;font-family:sans-serif;font-size:13;" transform="matrix(1 0 0 1 776 2007)">Modifications are automatically applied proportionally to all</text>
  <text style="stroke:none;fill:black;font-family:sans-serif;font-size:13;" transform="matrix(1 0 0 1 776 2025)">scales and weights.</text>
  <g transform="matrix(1 0 0 1 1289 1933)">
   <path d="M2.8418 1.86523L4.54102 3.57422Q5.18555 4.22852 5.90332 4.17969Q6.62109 4.13086 7.31445 3.35938L18.0078-8.42773L17.041-9.4043L6.42578 2.27539Q6.16211 2.57812 5.89355 2.61719Q5.625 2.65625 5.27344 2.30469L4.10156 1.14258Q3.75 0.791016 3.79395 0.522461Q3.83789 0.253906 4.14062-0.0195312L15.6152-10.8203L14.6387-11.7871L3.04688-0.898438Q2.30469-0.214844 2.25098 0.498047Q2.19727 1.21094 2.8418 1.86523ZM9.25781-16.3281Q8.94531-16.0254 8.90625-15.6348Q8.86719-15.2441 9.04297-14.9512Q9.21875-14.6777 9.55566-14.541Q9.89258-14.4043 10.3809-14.5215Q11.4746-14.7754 12.5977-14.7314Q13.7207-14.6875 14.7949-13.9844L14.209-12.5293Q13.9551-11.9043 14.0674-11.4404Q14.1797-10.9766 14.5801-10.5664L16.875-8.25195Q17.2363-7.88086 17.5781-7.82227Q17.9199-7.76367 18.3398-7.8418L19.4043-8.03711L20.0684-7.36328L20.0293-6.80664Q20-6.43555 20.1221-6.12305Q20.2441-5.81055 20.6055-5.44922L21.3672-4.70703Q21.7285-4.3457 22.1533-4.33105Q22.5781-4.31641 22.9297-4.66797L25.8398-7.58789Q26.1914-7.93945 26.1816-8.35449Q26.1719-8.76953 25.8105-9.13086L25.0391-9.89258Q24.6875-10.2539 24.3799-10.3857Q24.0723-10.5176 23.7109-10.4883L23.1348-10.4395L22.4902-11.0742L22.7344-12.1973Q22.832-12.6172 22.6953-12.9834Q22.5586-13.3496 22.1191-13.7891L19.9219-15.9766Q18.6719-17.2168 17.2607-17.8369Q15.8496-18.457 14.4189-18.4814Q12.9883-18.5059 11.665-17.959Q10.3418-17.4121 9.25781-16.3281ZM10.752-15.957Q11.6602-16.6211 12.7002-16.9043Q13.7402-17.1875 14.8047-17.085Q15.8691-16.9824 16.8701-16.5137Q17.8711-16.0449 18.7012-15.2051L21.1328-12.793Q21.3086-12.6172 21.3525-12.4512Q21.3965-12.2852 21.3379-12.0312L21.0156-10.5469L22.5195-9.0625L23.5059-9.12109Q23.6914-9.13086 23.7891-9.09668Q23.8867-9.0625 24.0332-8.91602L24.6094-8.33984L22.168-5.89844L21.5918-6.47461Q21.4453-6.62109 21.4062-6.71875Q21.3672-6.81641 21.377-7.01172L21.4453-7.98828L19.9512-9.47266L18.4277-9.21875Q18.1836-9.16992 18.042-9.2041Q17.9004-9.23828 17.7148-9.41406L15.7129-11.416Q15.5176-11.5918 15.4932-11.7529Q15.4688-11.9141 15.5859-12.1875L16.4648-14.2773Q15.293-15.3711 13.8281-15.791Q12.3633-16.2109 10.8398-15.7617Q10.7227-15.7324 10.6885-15.8057Q10.6543-15.8789 10.752-15.957Z"/>
  </g>
  <text style="stroke:none;fill:black;font-family:sans-serif;font-size:13;font-weight:bold;" transform="matrix(1 0 0 1 1289 1953)">Exporting</text>
  <text style="stroke:none;fill:black;font-family:sans-serif;font-size:13;" transform="matrix(1 0 0 1 1289 1971)">Symbols should be outlined when exporting to ensure the</text>
  <text style="stroke:none;fill:black;font-family:sans-serif;font-size:13;" transform="matrix(1 0 0 1 1289 1989)">design is preserved when submitting to Xcode.</text>
  <text id="template-version" style="stroke:none;fill:black;font-family:sans-serif;font-size:13;text-anchor:end;" transform="matrix(1 0 0 1 3036 1933)">Template v.2.0</text>
  <text style="stroke:none;fill:black;font-family:sans-serif;font-size:13;text-anchor:end;" transform="matrix(1 0 0 1 3036 1951)">Requires Xcode 13 or greater</text>
  <text id="descriptive-name" style="stroke:none;fill:black;font-family:sans-serif;font-size:13;text-anchor:end;" transform="matrix(1 0 0 1 3036 1969)">Generated from bell.fill</text>
  <text style="stroke:none;fill:black;font-family:sans-serif;font-size:13;text-anchor:end;" transform="matrix(1 0 0 1 3036 1987)">Typeset at 100 points</text>
  <text style="stroke:none;fill:black;font-family:sans-serif;font-size:13;" transform="matrix(1 0 0 1 263 726)">Small</text>
  <text style="stroke:none;fill:black;font-family:sans-serif;font-size:13;" transform="matrix(1 0 0 1 263 1156)">Medium</text>
  <text style="stroke:none;fill:black;font-family:sans-serif;font-size:13;" transform="matrix(1 0 0 1 263 1586)">Large</text>
 </g>
 <g id="Guides">
  <g id="H-reference" style="fill:#27AAE1;stroke:none;" transform="matrix(1 0 0 1 339 696)">
   <path d="M0.976562 0L3.66211 0L29.3457-67.1387L30.0293-67.1387L30.0293-70.459L28.125-70.459ZM11.6699-24.4629L46.9727-24.4629L46.2402-26.709L12.4512-26.709ZM55.127 0L57.7637 0L30.6152-70.459L29.4434-70.459L29.4434-67.1387Z"/>
  </g>
  <line id="Baseline-S" style="fill:none;stroke:#27AAE1;opacity:1;stroke-width:0.5;" x1="263" x2="3036" y1="696" y2="696"/>
  <line id="Capline-S" style="fill:none;stroke:#27AAE1;opacity:1;stroke-width:0.5;" x1="263" x2="3036" y1="625.541" y2="625.541"/>
  <g id="H-reference" style="fill:#27AAE1;stroke:none;" transform="matrix(1 0 0 1 339 1126)">
   <path d="M0.976562 0L3.66211 0L29.3457-67.1387L30.0293-67.1387L30.0293-70.459L28.125-70.459ZM11.6699-24.4629L46.9727-24.4629L46.2402-26.709L12.4512-26.709ZM55.127 0L57.7637 0L30.6152-70.459L29.4434-70.459L29.4434-67.1387Z"/>
  </g>
  <line id="Baseline-M" style="fill:none;stroke:#27AAE1;opacity:1;stroke-width:0.5;" x1="263" x2="3036" y1="1126" y2="1126"/>
  <line id="Capline-M" style="fill:none;stroke:#27AAE1;opacity:1;stroke-width:0.5;" x1="263" x2="3036" y1="1055.54" y2="1055.54"/>
  <g id="H-reference" style="fill:#27AAE1;stroke:none;" transform="matrix(1 0 0 1 339 1556)">
   <path d="M0.976562 0L3.66211 0L29.3457-67.1387L30.0293-67.1387L30.0293-70.459L28.125-70.459ZM11.6699-24.4629L46.9727-24.4629L46.2402-26.709L12.4512-26.709ZM55.127 0L57.7637 0L30.6152-70.459L29.4434-70.459L29.4434-67.1387Z"/>
  </g>
  <line id="Baseline-L" style="fill:none;stroke:#27AAE1;opacity:1;stroke-width:0.5;" x1="263" x2="3036" y1="1556" y2="1556"/>
  <line id="Capline-L" style="fill:none;stroke:#27AAE1;opacity:1;stroke-width:0.5;" x1="263" x2="3036" y1="1485.54" y2="1485.54"/>
  <line id="left-margin" style="fill:none;stroke:#00AEEF;stroke-width:0.5;opacity:1.0;" x1="1393.42" x2="1393.42" y1="1030.79" y2="1150.12"/>
  <line id="right-margin" style="fill:none;stroke:#00AEEF;stroke-width:0.5;opacity:1.0;" x1="1506.27" x2="1506.27" y1="1030.79" y2="1150.12"/>
 </g>
 <g id="Symbols">
  <g id="Black-L" transform="matrix(1 0 0 1 2855.96 1556)">
   <path d="M26.0742 6.10352L128.76 6.10352Q135.059 6.10352 138.843 2.56348Q142.627-0.976562 142.627-6.73828Q142.627-10.5957 141.064-13.8916Q139.502-17.1875 136.89-19.9951Q134.277-22.8027 131.152-25.293Q129.248-26.7578 128.027-29.1016Q126.807-31.4453 126.025-34.5459Q125.244-37.6465 124.683-41.333Q124.121-45.0195 123.486-49.1699Q122.314-59.375 119.238-67.7246Q116.162-76.0742 110.938-81.9824Q105.713-87.8906 98.1445-90.625Q95.6543-97.0215 90.0879-101.074Q84.5215-105.127 77.4414-105.127Q70.3613-105.127 64.7949-101.074Q59.2285-97.0215 56.7383-90.625Q49.1699-87.8906 43.9453-81.9824Q38.7207-76.0742 35.6201-67.7246Q32.5195-59.375 31.3965-49.1699Q30.7617-45.0195 30.1758-41.333Q29.5898-37.6465 28.8086-34.5459Q28.0273-31.4453 26.8311-29.1016Q25.6348-26.7578 23.7305-25.293Q20.6055-22.8027 17.9932-19.9951Q15.3809-17.1875 13.8184-13.8916Q12.2559-10.5957 12.2559-6.73828Q12.2559-0.976562 16.04 2.56348Q19.8242 6.10352 26.0742 6.10352ZM77.4414 34.7168Q83.7891 34.7168 88.7695 32.1533Q93.75 29.5898 96.7529 25.2686Q99.7559 20.9473 100.146 15.7715L54.7363 15.7715Q55.0781 20.9473 58.0811 25.2686Q61.084 29.5898 66.0889 32.1533Q71.0938 34.7168 77.4414 34.7168Z"/>
  </g>
  <g id="Heavy-L" transform="matrix(1 0 0 1 2560.32 1556)">
   <path d="M25.1465 6.15234L127.539 6.15234Q133.252 6.15234 136.646 3.00293Q140.039-0.146484 140.039-5.27344Q140.039-8.93555 138.428-12.1582Q136.816-15.3809 134.204-18.1885Q131.592-20.9961 128.564-23.5352Q126.66-25.1465 125.488-27.5879Q124.316-30.0293 123.56-33.1787Q122.803-36.3281 122.29-39.9658Q121.777-43.6035 121.191-47.5586Q120.215-58.0078 117.285-66.4551Q114.355-74.9023 109.18-80.835Q104.004-86.7676 96.2891-89.502Q93.9941-95.8984 88.6719-99.9756Q83.3496-104.053 76.3672-104.053Q69.3359-104.053 64.0137-99.9756Q58.6914-95.8984 56.3965-89.502Q48.7305-86.7676 43.5547-80.835Q38.3789-74.9023 35.4248-66.4551Q32.4707-58.0078 31.4941-47.5586Q30.957-43.6035 30.4199-39.9658Q29.8828-36.3281 29.126-33.1787Q28.3691-30.0293 27.1973-27.5879Q26.0254-25.1465 24.1699-23.5352Q21.1426-20.9961 18.5059-18.1885Q15.8691-15.3809 14.2578-12.1582Q12.6465-8.93555 12.6465-5.27344Q12.6465-0.146484 16.0645 3.00293Q19.4824 6.15234 25.1465 6.15234ZM76.3672 33.6426Q82.4219 33.6426 87.1826 31.1523Q91.9434 28.6621 94.8486 24.4873Q97.7539 20.3125 98.1445 15.3809L54.541 15.3809Q54.9316 20.3125 57.8125 24.4873Q60.6934 28.6621 65.4785 31.1523Q70.2637 33.6426 76.3672 33.6426Z"/>
  </g>
  <g id="Bold-L" transform="matrix(1 0 0 1 2264.83 1556)">
   <path d="M24.0723 6.20117L126.172 6.20117Q131.25 6.20117 134.229 3.51562Q137.207 0.830078 137.207-3.61328Q137.207-7.12891 135.522-10.2295Q133.838-13.3301 131.201-16.1621Q128.564-18.9941 125.684-21.6309Q123.828-23.3398 122.656-25.9033Q121.484-28.4668 120.776-31.665Q120.068-34.8633 119.604-38.4521Q119.141-42.041 118.652-45.8008Q117.871-56.4941 115.112-65.0635Q112.354-73.6328 107.227-79.5898Q102.1-85.5469 94.2383-88.2812Q92.1875-94.6289 87.1094-98.7549Q82.0312-102.881 75.1465-102.881Q68.2617-102.881 63.1836-98.7549Q58.1055-94.6289 56.0547-88.2812Q48.1934-85.5469 43.0908-79.5898Q37.9883-73.6328 35.2051-65.0635Q32.4219-56.4941 31.6406-45.8008Q31.2012-42.041 30.7129-38.4521Q30.2246-34.8633 29.5166-31.665Q28.8086-28.4668 27.6611-25.9033Q26.5137-23.3398 24.6582-21.6309Q21.7285-18.9941 19.0918-16.1621Q16.4551-13.3301 14.7949-10.2295Q13.1348-7.12891 13.1348-3.61328Q13.1348 0.830078 16.1133 3.51562Q19.0918 6.20117 24.0723 6.20117ZM75.1465 32.4219Q80.9082 32.4219 85.4492 30.0293Q89.9902 27.6367 92.749 23.6328Q95.5078 19.6289 95.9473 14.8926L54.3945 14.8926Q54.7852 19.6289 57.5439 23.6328Q60.3027 27.6367 64.8438 30.0293Q69.3848 32.4219 75.1465 32.4219Z"/>
  </g>
  <g id="Semibold-L" transform="matrix(1 0 0 1 1968.95 1556)">
   <path d="M23.3398 6.20117L125.244 6.20117Q129.834 6.20117 132.52 3.83301Q135.205 1.46484 135.205-2.44141Q135.205-5.81055 133.496-8.8623Q131.787-11.9141 129.126-14.7461Q126.465-17.5781 123.682-20.2637Q121.826-22.0703 120.679-24.707Q119.531-27.3438 118.848-30.5908Q118.164-33.8379 117.725-37.4023Q117.285-40.9668 116.895-44.5801Q116.211-55.4199 113.574-64.0625Q110.938-72.7051 105.835-78.6865Q100.732-84.668 92.8223-87.4512Q90.918-93.7012 86.0107-97.876Q81.1035-102.051 74.3164-102.051Q67.4805-102.051 62.5977-97.876Q57.7148-93.7012 55.8105-87.4512Q47.8516-84.668 42.7734-78.6865Q37.6953-72.7051 35.0342-64.0625Q32.373-55.4199 31.7383-44.5801Q31.3477-40.9668 30.8838-37.4023Q30.4199-33.8379 29.7363-30.5908Q29.0527-27.3438 27.9297-24.707Q26.8066-22.0703 24.9512-20.2637Q22.1191-17.5781 19.4824-14.7461Q16.8457-11.9141 15.1367-8.8623Q13.4277-5.81055 13.4277-2.44141Q13.4277 1.46484 16.1133 3.83301Q18.7988 6.20117 23.3398 6.20117ZM74.3164 31.5918Q79.8828 31.5918 84.2285 29.248Q88.5742 26.9043 91.2598 23.0225Q93.9453 19.1406 94.3848 14.5508L54.248 14.5508Q54.6875 19.1406 57.3486 23.0225Q60.0098 26.9043 64.3799 29.248Q68.75 31.5918 74.3164 31.5918Z"/>
  </g>
  <g id="Medium-L" transform="matrix(1 0 0 1 1672.87 1556)">
   <path d="M22.8027 6.20117L124.512 6.20117Q128.76 6.20117 131.226 4.07715Q133.691 1.95312 133.691-1.5625Q133.691-4.88281 131.958-7.86133Q130.225-10.8398 127.563-13.6719Q124.902-16.5039 122.119-19.2383Q120.312-21.0938 119.189-23.8037Q118.066-26.5137 117.383-29.8096Q116.699-33.1055 116.309-36.6211Q115.918-40.1367 115.576-43.6523Q114.99-54.5898 112.427-63.3057Q109.863-72.0215 104.81-78.0029Q99.7559-83.9844 91.748-86.7676Q89.9902-93.0664 85.2051-97.2412Q80.4199-101.416 73.6816-101.416Q66.8945-101.416 62.1338-97.2412Q57.373-93.0664 55.6152-86.7676Q47.5586-83.9844 42.5293-78.0029Q37.5-72.0215 34.9365-63.3057Q32.373-54.5898 31.7871-43.6523Q31.4453-40.1367 31.0303-36.6211Q30.6152-33.1055 29.9316-29.8096Q29.248-26.5137 28.1494-23.8037Q27.0508-21.0938 25.1953-19.2383Q22.4609-16.5039 19.7998-13.6719Q17.1387-10.8398 15.4053-7.86133Q13.6719-4.88281 13.6719-1.5625Q13.6719 1.95312 16.1377 4.07715Q18.6035 6.20117 22.8027 6.20117ZM73.6816 30.957Q79.0527 30.957 83.3008 28.6621Q87.5488 26.3672 90.1367 22.583Q92.7246 18.7988 93.2129 14.3066L54.1504 14.3066Q54.5898 18.7988 57.2021 22.583Q59.8145 26.3672 64.0625 28.6621Q68.3105 30.957 73.6816 30.957Z"/>
  </g>
  <g id="Regular-L" transform="matrix(1 0 0 1 1376.99 1556)">
   <path d="M22.0703 6.25L123.584 6.25Q127.393 6.25 129.565 4.41895Q131.738 2.58789 131.738-0.439453Q131.738-3.61328 129.956-6.54297Q128.174-9.47266 125.513-12.3047Q122.852-15.1367 120.166-17.9199Q118.359-19.873 117.261-22.6562Q116.162-25.4395 115.503-28.7598Q114.844-32.0801 114.478-35.5713Q114.111-39.0625 113.818-42.4316Q113.379-53.5645 110.938-62.3535Q108.496-71.1426 103.467-77.1484Q98.4375-83.1543 90.332-85.9375Q88.7207-92.1875 84.1309-96.3867Q79.541-100.586 72.8516-100.586Q66.1133-100.586 61.5479-96.3867Q56.9824-92.1875 55.3711-85.9375Q47.2168-83.1543 42.2119-77.1484Q37.207-71.1426 34.7656-62.3535Q32.3242-53.5645 31.8848-42.4316Q31.5918-39.0625 31.2012-35.5713Q30.8105-32.0801 30.1758-28.7598Q29.541-25.4395 28.4424-22.6562Q27.3438-19.873 25.5371-17.9199Q22.8516-15.1367 20.1904-12.3047Q17.5293-9.47266 15.7471-6.54297Q13.9648-3.61328 13.9648-0.439453Q13.9648 2.58789 16.1377 4.41895Q18.3105 6.25 22.0703 6.25ZM72.8516 30.127Q78.0273 30.127 82.1045 27.8809Q86.1816 25.6348 88.6963 21.9727Q91.2109 18.3105 91.6992 14.0137L54.0039 14.0137Q54.4922 18.3105 57.0068 21.9727Q59.5215 25.6348 63.5986 27.8809Q67.6758 30.127 72.8516 30.127Z"/>
  </g>
  <g id="Light-L" transform="matrix(1 0 0 1 1080.26 1556)">
   <path d="M20.9961 6.78711L124.756 6.78711Q127.637 6.78711 129.321 5.29785Q131.006 3.80859 131.006 1.41602Q131.006-1.80664 129.297-4.71191Q127.588-7.61719 125-10.4004Q122.412-13.1836 119.824-15.9668Q117.725-18.3105 116.504-21.6553Q115.283-25 114.624-29.0283Q113.965-33.0566 113.55-37.3535Q113.135-41.6504 112.646-45.8984Q111.963-55.7129 109.448-63.5986Q106.934-71.4844 102.051-76.9043Q97.168-82.3242 89.3555-84.7168Q88.0371-91.1133 83.6426-95.2148Q79.248-99.3164 72.9004-99.3164Q66.5039-99.3164 62.1094-95.2148Q57.7148-91.1133 56.3965-84.7168Q48.584-82.3242 43.7012-76.9043Q38.8184-71.4844 36.3037-63.5986Q33.7891-55.7129 33.1055-45.8984Q32.6172-41.6504 32.2021-37.3535Q31.7871-33.0566 31.1279-29.0283Q30.4688-25 29.2725-21.6553Q28.0762-18.3105 25.9277-15.9668Q23.3398-13.1836 20.7764-10.4004Q18.2129-7.61719 16.4795-4.71191Q14.7461-1.80664 14.7461 1.41602Q14.7461 3.80859 16.4307 5.29785Q18.1152 6.78711 20.9961 6.78711ZM72.9004 28.8086Q77.832 28.8086 81.7383 26.709Q85.6445 24.6094 88.0615 21.0938Q90.4785 17.5781 91.0645 13.4766L54.6875 13.4766Q55.2734 17.5781 57.7148 21.0938Q60.1562 24.6094 64.0381 26.709Q67.9199 28.8086 72.9004 28.8086Z"/>
  </g>
  <g id="Thin-L" transform="matrix(1 0 0 1 783.497 1556)">
   <path d="M19.5801 7.4707L126.27 7.4707Q127.979 7.4707 129.004 6.46973Q130.029 5.46875 130.029 3.80859Q130.029 0.585938 128.394-2.27051Q126.758-5.12695 124.316-7.88574Q121.875-10.6445 119.336-13.4277Q116.846-16.2598 115.503-20.3613Q114.16-24.4629 113.477-29.4189Q112.793-34.375 112.329-39.7461Q111.865-45.1172 111.133-50.4395Q110.107-58.5449 107.52-65.2344Q104.932-71.9238 100.195-76.5625Q95.459-81.2012 88.0859-83.1055Q87.1094-89.7461 82.9834-93.7012Q78.8574-97.6562 72.9004-97.6562Q66.9922-97.6562 62.8418-93.7012Q58.6914-89.7461 57.7637-83.1055Q50.3906-81.2012 45.6543-76.5625Q40.918-71.9238 38.3057-65.2344Q35.6934-58.5449 34.7168-50.4395Q33.9355-45.1172 33.4717-39.7461Q33.0078-34.375 32.3486-29.4189Q31.6895-24.4629 30.3467-20.3613Q29.0039-16.2598 26.4648-13.4277Q23.9746-10.6445 21.5332-7.88574Q19.0918-5.12695 17.4316-2.27051Q15.7715 0.585938 15.7715 3.80859Q15.7715 5.46875 16.8213 6.46973Q17.8711 7.4707 19.5801 7.4707ZM72.9004 27.0996Q77.5879 27.0996 81.2256 25.1465Q84.8633 23.1934 87.1826 19.9219Q89.502 16.6504 90.2344 12.6953L55.5664 12.6953Q56.2988 16.6504 58.6426 19.9219Q60.9863 23.1934 64.624 25.1465Q68.2617 27.0996 72.9004 27.0996Z"/>
  </g>
  <g id="Ultralight-L" transform="matrix(1 0 0 1 486.762 1556)">
   <path d="M18.8477 7.86133L127.051 7.86133Q128.125 7.86133 128.833 7.08008Q129.541 6.29883 129.541 5.07812Q129.541 1.85547 127.954-1.02539Q126.367-3.90625 123.975-6.61621Q121.582-9.32617 119.141-12.1094Q116.406-15.1855 114.99-19.6777Q113.574-24.1699 112.891-29.5898Q112.207-35.0098 111.694-40.9424Q111.182-46.875 110.352-52.7832Q109.18-59.9609 106.519-66.04Q103.857-72.1191 99.2188-76.3916Q94.5801-80.6641 87.4023-82.3242Q86.6211-89.0137 82.6172-92.8955Q78.6133-96.7773 72.9492-96.7773Q67.2363-96.7773 63.2324-92.8955Q59.2285-89.0137 58.4473-82.3242Q51.3184-80.6641 46.6553-76.3916Q41.9922-72.1191 39.3311-66.04Q36.6699-59.9609 35.498-52.7832Q34.6191-46.875 34.1553-40.9424Q33.6914-35.0098 33.0078-29.5898Q32.3242-24.1699 30.9082-19.6777Q29.4922-15.1855 26.709-12.1094Q24.3164-9.32617 21.9238-6.61621Q19.5312-3.90625 17.9199-1.02539Q16.3086 1.85547 16.3086 5.07812Q16.3086 6.29883 17.041 7.08008Q17.7734 7.86133 18.8477 7.86133ZM72.9492 26.2207Q77.4902 26.2207 81.0059 24.3652Q84.5215 22.5098 86.7676 19.3359Q89.0137 16.1621 89.8438 12.3535L56.0059 12.3535Q56.8359 16.1621 59.1064 19.3359Q61.377 22.5098 64.8926 24.3652Q68.4082 26.2207 72.9492 26.2207Z"/>
  </g>
  <g id="Black-M" transform="matrix(1 0 0 1 2872.44 1126)">
   <path d="M20.6543-3.02734L101.221-3.02734Q106.299-3.02734 109.399-6.00586Q112.5-8.98438 112.5-13.7695Q112.5-16.9434 111.353-19.5557Q110.205-22.168 108.228-24.3408Q106.25-26.5137 103.76-28.3691Q101.611-29.9316 100.513-32.8125Q99.4141-35.6934 98.7549-39.6973Q98.0957-43.7012 97.2656-48.584Q96.1426-55.8105 93.6035-61.9141Q91.0645-68.0176 87.0117-72.3633Q82.959-76.709 77.3438-78.7109Q75.293-83.7402 70.8496-86.8164Q66.4062-89.8926 60.9375-89.8926Q55.5176-89.8926 51.0498-86.8164Q46.582-83.7402 44.5801-78.7109Q38.9648-76.709 34.9121-72.3633Q30.8594-68.0176 28.3203-61.9141Q25.7812-55.8105 24.6582-48.584Q23.8281-43.7012 23.1689-39.6973Q22.5098-35.6934 21.4111-32.8125Q20.3125-29.9316 18.1641-28.3691Q15.6738-26.5137 13.6963-24.3408Q11.7188-22.168 10.5713-19.5557Q9.42383-16.9434 9.42383-13.7695Q9.42383-8.98438 12.5244-6.00586Q15.625-3.02734 20.6543-3.02734ZM60.9375 19.4824Q66.0156 19.4824 70.0195 17.4561Q74.0234 15.4297 76.416 12.0117Q78.8086 8.59375 79.1016 4.44336L42.8223 4.44336Q43.0664 8.59375 45.4834 12.0117Q47.9004 15.4297 51.8799 17.4561Q55.8594 19.4824 60.9375 19.4824Z"/>
  </g>
  <g id="Heavy-M" transform="matrix(1 0 0 1 2576.8 1126)">
   <path d="M19.9707-3.125L99.7559-3.125Q104.492-3.125 107.324-5.78613Q110.156-8.44727 110.156-12.7441Q110.156-15.7227 108.936-18.2617Q107.715-20.8008 105.713-22.9736Q103.711-25.1465 101.27-27.0996Q99.2676-28.6621 98.2178-31.4941Q97.168-34.3262 96.5576-38.1104Q95.9473-41.8945 95.2637-46.2891Q94.3848-54.0039 91.9922-60.4004Q89.5996-66.7969 85.5713-71.2891Q81.543-75.7812 75.7324-77.8809Q73.8281-82.8613 69.5801-85.9863Q65.332-89.1113 59.8633-89.1113Q54.4434-89.1113 50.1709-85.9863Q45.8984-82.8613 44.043-77.8809Q38.2324-75.7812 34.2041-71.2891Q30.1758-66.7969 27.7832-60.4004Q25.3906-54.0039 24.5117-46.2891Q23.8281-41.8945 23.2178-38.1104Q22.6074-34.3262 21.5576-31.4941Q20.5078-28.6621 18.5059-27.0996Q16.0645-25.1465 14.0625-22.9736Q12.0605-20.8008 10.8398-18.2617Q9.61914-15.7227 9.61914-12.7441Q9.61914-8.44727 12.4512-5.78613Q15.2832-3.125 19.9707-3.125ZM59.8633 18.7012Q64.7461 18.7012 68.5547 16.7236Q72.3633 14.7461 74.6582 11.4502Q76.9531 8.1543 77.2949 4.15039L42.4805 4.15039Q42.7734 8.1543 45.0928 11.4502Q47.4121 14.7461 51.2207 16.7236Q55.0293 18.7012 59.8633 18.7012Z"/>
  </g>
  <g id="Bold-M" transform="matrix(1 0 0 1 2281.29 1126)">
   <path d="M19.1895-3.22266L98.1934-3.22266Q102.441-3.22266 104.98-5.51758Q107.52-7.8125 107.52-11.5723Q107.52-14.3555 106.226-16.8213Q104.932-19.2871 102.881-21.46Q100.83-23.6328 98.5352-25.6836Q96.6797-27.2949 95.6787-30.0781Q94.6777-32.8613 94.1162-36.377Q93.5547-39.8926 93.0664-43.75Q92.4316-52.0508 90.21-58.7646Q87.9883-65.4785 83.9844-70.1416Q79.9805-74.8047 73.9258-76.9531Q72.2168-81.8848 68.1641-85.083Q64.1113-88.2812 58.6914-88.2812Q53.2715-88.2812 49.2188-85.083Q45.166-81.8848 43.457-76.9531Q37.4023-74.8047 33.3984-70.1416Q29.3945-65.4785 27.1973-58.7646Q25-52.0508 24.3652-43.75Q23.8281-39.8926 23.291-36.377Q22.7539-32.8613 21.7529-30.0781Q20.752-27.2949 18.8477-25.6836Q16.5527-23.6328 14.502-21.46Q12.4512-19.2871 11.1816-16.8213Q9.91211-14.3555 9.91211-11.5723Q9.91211-7.8125 12.4268-5.51758Q14.9414-3.22266 19.1895-3.22266ZM58.6914 17.8223Q63.2812 17.8223 66.9189 15.918Q70.5566 14.0137 72.7539 10.8398Q74.9512 7.66602 75.2441 3.85742L42.1387 3.85742Q42.4316 7.66602 44.6289 10.8398Q46.8262 14.0137 50.4639 15.918Q54.1016 17.8223 58.6914 17.8223Z"/>
  </g>
  <g id="Semibold-M" transform="matrix(1 0 0 1 1985.41 1126)">
   <path d="M18.6523-3.27148L97.0703-3.27148Q101.025-3.27148 103.345-5.32227Q105.664-7.37305 105.664-10.7422Q105.664-13.4277 104.346-15.8203Q103.027-18.2129 100.952-20.4102Q98.877-22.6074 96.6309-24.6582Q94.873-26.3184 93.8965-29.0527Q92.9199-31.7871 92.4072-35.1318Q91.8945-38.4766 91.5039-41.9434Q91.0645-50.6348 88.9648-57.5684Q86.8652-64.502 82.8857-69.2871Q78.9062-74.0723 72.7051-76.3184Q71.0938-81.1523 67.1875-84.3994Q63.2812-87.6465 57.8613-87.6465Q52.4414-87.6465 48.5352-84.3994Q44.6289-81.1523 43.0664-76.3184Q36.8164-74.0723 32.8125-69.2871Q28.8086-64.502 26.7334-57.5684Q24.6582-50.6348 24.2188-41.9434Q23.8281-38.4766 23.3154-35.1318Q22.8027-31.7871 21.8506-29.0527Q20.8984-26.3184 19.0918-24.6582Q16.8945-22.6074 14.7949-20.4102Q12.6953-18.2129 11.377-15.8203Q10.0586-13.4277 10.0586-10.7422Q10.0586-7.37305 12.3779-5.32227Q14.6973-3.27148 18.6523-3.27148ZM57.8613 17.2363Q62.3047 17.2363 65.7959 15.3564Q69.2871 13.4766 71.4111 10.376Q73.5352 7.27539 73.8281 3.66211L41.8945 3.66211Q42.1875 7.27539 44.3115 10.376Q46.4355 13.4766 49.9268 15.3564Q53.418 17.2363 57.8613 17.2363Z"/>
  </g>
  <g id="Medium-M" transform="matrix(1 0 0 1 1689.33 1126)">
   <path d="M18.2617-3.36914L96.1914-3.36914Q99.9512-3.36914 102.124-5.22461Q104.297-7.08008 104.297-10.1074Q104.297-12.6953 102.93-15.0391Q101.562-17.3828 99.4629-19.5801Q97.3633-21.7773 95.2148-23.9258Q93.5059-25.5859 92.5537-28.2959Q91.6016-31.0059 91.1133-34.2041Q90.625-37.4023 90.332-40.625Q90.0391-49.6094 88.0371-56.7139Q86.0352-63.8184 82.0557-68.6768Q78.0762-73.5352 71.7285-75.8301Q70.2637-80.6641 66.4551-83.9355Q62.6465-87.207 57.2266-87.207Q51.8555-87.207 48.0469-83.9355Q44.2383-80.6641 42.7246-75.8301Q36.4258-73.5352 32.4219-68.6768Q28.418-63.8184 26.4404-56.7139Q24.4629-49.6094 24.1211-40.625Q23.8281-37.4023 23.3398-34.2041Q22.8516-31.0059 21.9238-28.2959Q20.9961-25.5859 19.2871-23.9258Q17.1387-21.7773 15.0391-19.5801Q12.9395-17.3828 11.5723-15.0391Q10.2051-12.6953 10.2051-10.1074Q10.2051-7.08008 12.3535-5.22461Q14.502-3.36914 18.2617-3.36914ZM57.2266 16.748Q61.5234 16.748 64.9414 14.917Q68.3594 13.0859 70.4102 10.0586Q72.4609 7.03125 72.7539 3.4668L41.6992 3.4668Q41.9922 7.03125 44.0674 10.0586Q46.1426 13.0859 49.5361 14.917Q52.9297 16.748 57.2266 16.748Z"/>
  </g>
  <g id="Regular-M" transform="matrix(1 0 0 1 1393.42 1126)">
   <path d="M17.7246-3.41797L95.1172-3.41797Q98.584-3.41797 100.537-5.0293Q102.49-6.64062 102.49-9.32617Q102.49-11.7676 101.074-14.0625Q99.6582-16.3574 97.5342-18.5547Q95.4102-20.752 93.3105-22.9492Q91.6992-24.6094 90.7959-27.2949Q89.8926-29.9805 89.4531-33.0078Q89.0137-36.0352 88.8184-38.8672Q88.6719-48.2422 86.792-55.5664Q84.9121-62.8906 80.957-67.8711Q77.002-72.8516 70.5078-75.1953Q69.1406-79.9805 65.4785-83.3008Q61.8164-86.6211 56.3965-86.6211Q51.0254-86.6211 47.3633-83.3008Q43.7012-79.9805 42.334-75.1953Q35.8398-72.8516 31.8604-67.8711Q27.8809-62.8906 26.0254-55.5664Q24.1699-48.2422 24.0234-38.8672Q23.8281-36.0352 23.3887-33.0078Q22.9492-29.9805 22.0459-27.2949Q21.1426-24.6094 19.5312-22.9492Q17.4316-20.752 15.3076-18.5547Q13.1836-16.3574 11.7676-14.0625Q10.3516-11.7676 10.3516-9.32617Q10.3516-6.64062 12.3047-5.0293Q14.2578-3.41797 17.7246-3.41797ZM56.3965 16.1621Q60.5469 16.1621 63.8184 14.3555Q67.0898 12.5488 69.0674 9.61914Q71.0449 6.68945 71.3867 3.27148L41.4551 3.27148Q41.748 6.68945 43.75 9.61914Q45.752 12.5488 49.0234 14.3555Q52.2949 16.1621 56.3965 16.1621Z"/>
  </g>
  <g id="Light-M" transform="matrix(1 0 0 1 1096.69 1126)">
   <path d="M16.748-2.92969L96.1426-2.92969Q98.7793-2.92969 100.317-4.22363Q101.855-5.51758 101.855-7.66602Q101.855-10.1562 100.488-12.4268Q99.1211-14.6973 97.0703-16.8701Q95.0195-19.043 93.0176-21.1914Q91.0156-23.3398 90.0635-26.7578Q89.1113-30.1758 88.6719-34.1309Q88.2324-38.0859 87.793-41.9434Q87.4023-50.1465 85.4736-56.665Q83.5449-63.1836 79.6875-67.6514Q75.8301-72.1191 69.6289-74.1211Q68.5059-79.0039 65.0146-82.2266Q61.5234-85.4492 56.4453-85.4492Q51.3672-85.4492 47.876-82.2266Q44.3848-79.0039 43.2617-74.1211Q37.0605-72.1191 33.1787-67.6514Q29.2969-63.1836 27.3926-56.665Q25.4883-50.1465 25.0977-41.9434Q24.707-38.0859 24.2676-34.1309Q23.8281-30.1758 22.8516-26.7578Q21.875-23.3398 19.873-21.1914Q17.8711-19.043 15.8203-16.8701Q13.7695-14.6973 12.4268-12.4268Q11.084-10.1562 11.084-7.66602Q11.084-5.51758 12.5977-4.22363Q14.1113-2.92969 16.748-2.92969ZM56.4453 14.9902Q60.4004 14.9902 63.501 13.3057Q66.6016 11.6211 68.5059 8.83789Q70.4102 6.05469 70.8496 2.73438L42.041 2.73438Q42.4805 6.05469 44.3848 8.83789Q46.2891 11.6211 49.3896 13.3057Q52.4902 14.9902 56.4453 14.9902Z"/>
  </g>
  <g id="Thin-M" transform="matrix(1 0 0 1 799.928 1126)">
   <path d="M15.4785-2.29492L97.5098-2.29492Q99.0723-2.29492 100.024-3.17383Q100.977-4.05273 100.977-5.51758Q100.977-7.95898 99.6826-10.2051Q98.3887-12.4512 96.46-14.5996Q94.5312-16.748 92.627-18.8965Q90.1367-21.6797 89.0869-26.0498Q88.0371-30.4199 87.5977-35.6201Q87.1582-40.8203 86.4258-46.0449Q85.7422-52.6855 83.7402-58.1299Q81.7383-63.5742 78.0273-67.3584Q74.3164-71.1426 68.5059-72.7051Q67.6758-77.7832 64.4287-80.8594Q61.1816-83.9355 56.4941-83.9355Q51.8066-83.9355 48.5352-80.8594Q45.2637-77.7832 44.4824-72.7051Q38.6719-71.1426 34.9365-67.3584Q31.2012-63.5742 29.2236-58.1299Q27.2461-52.6855 26.5625-46.0449Q25.8301-40.8203 25.3906-35.6201Q24.9512-30.4199 23.9014-26.0498Q22.8516-21.6797 20.3613-18.8965Q18.457-16.748 16.5283-14.5996Q14.5996-12.4512 13.3057-10.2051Q12.0117-7.95898 12.0117-5.51758Q12.0117-4.05273 12.9639-3.17383Q13.916-2.29492 15.4785-2.29492ZM56.4941 13.4766Q60.2051 13.4766 63.0615 11.9141Q65.918 10.3516 67.749 7.76367Q69.5801 5.17578 70.1172 2.09961L42.8711 2.09961Q43.4082 5.17578 45.2393 7.76367Q47.0703 10.3516 49.9268 11.9141Q52.7832 13.4766 56.4941 13.4766Z"/>
  </g>
  <g id="Ultralight-M" transform="matrix(1 0 0 1 503.193 1126)">
   <path d="M14.7949-1.95312L98.1934-1.95312Q99.2188-1.95312 99.8779-2.6123Q100.537-3.27148 100.537-4.39453Q100.537-6.88477 99.292-9.10645Q98.0469-11.3281 96.167-13.4521Q94.2871-15.5762 92.3828-17.7246Q89.6484-20.8008 88.5742-25.6836Q87.5-30.5664 87.0605-36.377Q86.6211-42.1875 85.7422-48.1445Q84.9121-53.9551 82.8613-58.8867Q80.8105-63.8184 77.1729-67.2119Q73.5352-70.6055 67.9199-71.9727Q67.2852-77.0996 64.1357-80.127Q60.9863-83.1543 56.543-83.1543Q52.002-83.1543 48.877-80.127Q45.752-77.0996 45.1172-71.9727Q39.4531-70.6055 35.8154-67.2119Q32.1777-63.8184 30.1514-58.8867Q28.125-53.9551 27.2949-48.1445Q26.416-42.1875 25.9766-36.377Q25.5371-30.5664 24.4629-25.6836Q23.3887-20.8008 20.6055-17.7246Q18.75-15.5762 16.8701-13.4521Q14.9902-11.3281 13.7451-9.10645Q12.5-6.88477 12.5-4.39453Q12.5-3.27148 13.1592-2.6123Q13.8184-1.95312 14.7949-1.95312ZM56.543 12.6465Q60.1074 12.6465 62.8418 11.1816Q65.5762 9.7168 67.3584 7.22656Q69.1406 4.73633 69.7754 1.70898L43.2617 1.70898Q43.8965 4.73633 45.6543 7.22656Q47.4121 9.7168 50.1709 11.1816Q52.9297 12.6465 56.543 12.6465Z"/>
  </g>
  <g id="Black-S" transform="matrix(1 0 0 1 2885.3 696)">
   <path d="M16.3574-9.96094L79.834-9.96094Q83.8867-9.96094 86.3525-12.3779Q88.8184-14.7949 88.8184-18.6523Q88.8184-22.4121 86.9141-25.2197Q85.0098-28.0273 82.0312-30.127Q80.3223-31.3965 79.4434-33.7158Q78.5645-36.0352 78.0273-39.2822Q77.4902-42.5293 76.7578-46.582Q75.3418-54.7363 71.4355-60.9619Q67.5293-67.1875 61.0352-69.4824Q59.4238-73.4375 55.8838-75.8301Q52.3438-78.2227 48.0957-78.2227Q43.8477-78.2227 40.3076-75.8301Q36.7676-73.4375 35.1562-69.4824Q28.6621-67.1875 24.7559-60.9619Q20.8496-54.7363 19.4336-46.582Q18.75-42.5293 18.2129-39.2822Q17.6758-36.0352 16.7969-33.7158Q15.918-31.3965 14.1602-30.127Q11.1816-28.0273 9.27734-25.2197Q7.37305-22.4121 7.37305-18.6523Q7.37305-14.7949 9.86328-12.3779Q12.3535-9.96094 16.3574-9.96094ZM48.0957 7.8125Q54.1504 7.8125 58.1543 4.32129Q62.1582 0.830078 62.5-4.10156L33.6914-4.10156Q34.0332 0.830078 38.0371 4.32129Q42.041 7.8125 48.0957 7.8125Z"/>
  </g>
  <g id="Heavy-S" transform="matrix(1 0 0 1 2589.52 696)">
   <path d="M15.8691-10.1074L78.4668-10.1074Q82.2754-10.1074 84.5703-12.2803Q86.8652-14.4531 86.8652-17.9688Q86.8652-21.4844 84.8389-24.2676Q82.8125-27.0508 79.9805-29.248Q78.418-30.4688 77.5635-32.666Q76.709-34.8633 76.2207-37.793Q75.7324-40.7227 75.1953-44.2383Q74.0723-53.2715 70.3369-59.8633Q66.6016-66.4551 59.7656-68.8965Q58.252-72.8027 54.8584-75.2441Q51.4648-77.6855 47.168-77.6855Q42.8711-77.6855 39.4775-75.2441Q36.084-72.8027 34.5703-68.8965Q27.7832-66.4551 24.0234-59.8633Q20.2637-53.2715 19.1406-44.2383Q18.6523-40.7227 18.1641-37.793Q17.6758-34.8633 16.8213-32.666Q15.9668-30.4688 14.4043-29.248Q11.5234-27.0508 9.49707-24.2676Q7.4707-21.4844 7.4707-17.9688Q7.4707-14.4531 9.79004-12.2803Q12.1094-10.1074 15.8691-10.1074ZM47.168 7.27539Q52.9785 7.27539 56.8359 3.85742Q60.6934 0.439453 61.0352-4.29688L33.3496-4.29688Q33.6426 0.439453 37.5 3.85742Q41.3574 7.27539 47.168 7.27539Z"/>
  </g>
  <g id="Bold-S" transform="matrix(1 0 0 1 2293.84 696)">
   <path d="M15.3809-10.2539L76.9531-10.2539Q80.5176-10.2539 82.6172-12.1826Q84.7168-14.1113 84.7168-17.1875Q84.7168-20.5078 82.5684-23.2422Q80.4199-25.9766 77.6367-28.2715Q76.2695-29.4922 75.4883-31.5186Q74.707-33.5449 74.2676-36.1328Q73.8281-38.7207 73.4375-41.6016Q72.7051-51.6113 69.1162-58.6182Q65.5273-65.625 58.3496-68.3105Q56.9336-72.1191 53.7109-74.6338Q50.4883-77.1484 46.1426-77.1484Q41.8457-77.1484 38.5986-74.6338Q35.3516-72.1191 33.9355-68.3105Q26.7578-65.625 23.1689-58.6182Q19.5801-51.6113 18.8477-41.6016Q18.5059-38.7207 18.0664-36.1328Q17.627-33.5449 16.8457-31.5186Q16.0645-29.4922 14.6484-28.2715Q11.9141-25.9766 9.74121-23.2422Q7.56836-20.5078 7.56836-17.1875Q7.56836-14.1113 9.69238-12.1826Q11.8164-10.2539 15.3809-10.2539ZM46.1426 6.68945Q51.6602 6.68945 55.3467 3.36914Q59.0332 0.0488281 59.375-4.49219L32.959-4.49219Q33.252 0.0488281 36.9385 3.36914Q40.625 6.68945 46.1426 6.68945Z"/>
  </g>
  <g id="Semibold-S" transform="matrix(1 0 0 1 1997.83 696)">
   <path d="M14.9902-10.3516L75.8789-10.3516Q79.248-10.3516 81.2256-12.085Q83.2031-13.8184 83.2031-16.6504Q83.2031-19.7754 80.957-22.4854Q78.7109-25.1953 76.0254-27.5879Q74.7559-28.7598 74.0234-30.6885Q73.291-32.6172 72.876-34.9609Q72.4609-37.3047 72.2168-39.7461Q71.7285-50.4395 68.2617-57.7393Q64.7949-65.0391 57.373-67.8711Q56.0059-71.582 52.8809-74.1455Q49.7559-76.709 45.4102-76.709Q41.0645-76.709 37.9395-74.1455Q34.8145-71.582 33.4961-67.8711Q26.0742-65.0391 22.6074-57.7393Q19.1406-50.4395 18.6523-39.7461Q18.4082-37.3047 18.0176-34.9609Q17.627-32.6172 16.8701-30.6885Q16.1133-28.7598 14.8438-27.5879Q12.1582-25.1953 9.8877-22.4854Q7.61719-19.7754 7.61719-16.6504Q7.61719-13.8184 9.59473-12.085Q11.5723-10.3516 14.9902-10.3516ZM45.4102 6.29883Q50.7324 6.29883 54.3213 3.02734Q57.9102-0.244141 58.2031-4.58984L32.666-4.58984Q32.959-0.244141 36.5234 3.02734Q40.0879 6.29883 45.4102 6.29883Z"/>
  </g>
  <g id="Medium-S" transform="matrix(1 0 0 1 1701.66 696)">
   <path d="M14.6973-10.4004L75.0488-10.4004Q78.3203-10.4004 80.2002-12.0117Q82.0801-13.623 82.0801-16.2598Q82.0801-19.2383 79.7607-21.9238Q77.4414-24.6094 74.8047-27.0996Q73.6328-28.2227 72.9248-30.0781Q72.2168-31.9336 71.8262-34.082Q71.4355-36.2305 71.2891-38.3789Q70.9961-49.5605 67.627-57.1045Q64.2578-64.6484 56.6406-67.5293Q55.3223-71.2402 52.2949-73.8281Q49.2676-76.416 44.873-76.416Q40.5273-76.416 37.4756-73.8281Q34.4238-71.2402 33.1543-67.5293Q25.5371-64.6484 22.1436-57.1045Q18.75-49.5605 18.457-38.3789Q18.3594-36.2305 17.9688-34.082Q17.5781-31.9336 16.8701-30.0781Q16.1621-28.2227 14.9414-27.0996Q12.3535-24.6094 10.0342-21.9238Q7.71484-19.2383 7.71484-16.2598Q7.71484-13.623 9.57031-12.0117Q11.4258-10.4004 14.6973-10.4004ZM44.873 5.95703Q50.0488 5.95703 53.54 2.75879Q57.0312-0.439453 57.3242-4.6875L32.4707-4.6875Q32.7637-0.439453 36.2305 2.75879Q39.6973 5.95703 44.873 5.95703Z"/>
  </g>
  <g id="Regular-S" transform="matrix(1 0 0 1 1405.65 696)">
   <path d="M14.3555-10.498L74.0234-10.498Q77.0996-10.498 78.8574-11.9385Q80.6152-13.3789 80.6152-15.7227Q80.6152-18.5547 78.1982-21.2158Q75.7812-23.877 73.2422-26.416Q72.168-27.5391 71.4844-29.2725Q70.8008-31.0059 70.459-32.9346Q70.1172-34.8633 70.0684-36.5723Q70.0195-48.4375 66.7725-56.25Q63.5254-64.0625 55.6641-67.0898Q54.4434-70.752 51.5137-73.3887Q48.584-76.0254 44.1895-76.0254Q39.7949-76.0254 36.8408-73.3887Q33.8867-70.752 32.7148-67.0898Q24.8535-64.0625 21.582-56.25Q18.3105-48.4375 18.2617-36.5723Q18.2617-34.8633 17.9199-32.9346Q17.5781-31.0059 16.8945-29.2725Q16.2109-27.5391 15.1367-26.416Q12.5977-23.877 10.1807-21.2158Q7.76367-18.5547 7.76367-15.7227Q7.76367-13.3789 9.49707-11.9385Q11.2305-10.498 14.3555-10.498ZM44.1895 5.56641Q49.1699 5.56641 52.5391 2.41699Q55.9082-0.732422 56.2012-4.83398L32.1777-4.83398Q32.4707-0.732422 35.8154 2.41699Q39.1602 5.56641 44.1895 5.56641Z"/>
  </g>
  <g id="Light-S" transform="matrix(1 0 0 1 1108.92 696)">
   <path d="M13.5254-10.0586L74.9512-10.0586Q77.2949-10.0586 78.6621-11.2305Q80.0293-12.4023 80.0293-14.2578Q80.0293-17.1387 77.7344-19.751Q75.4395-22.3633 72.998-24.9023Q71.582-26.416 70.8496-28.8086Q70.1172-31.2012 69.7754-33.96Q69.4336-36.7188 69.1895-39.3066Q68.8477-49.6094 65.6006-56.5674Q62.3535-63.5254 54.9316-66.1133Q53.9062-69.9219 51.123-72.4854Q48.3398-75.0488 44.2383-75.0488Q40.1367-75.0488 37.3047-72.4854Q34.4727-69.9219 33.5449-66.1133Q26.0742-63.5254 22.8271-56.5674Q19.5801-49.6094 19.2383-39.3066Q19.043-36.7188 18.6768-33.96Q18.3105-31.2012 17.6025-28.8086Q16.8945-26.416 15.4785-24.9023Q13.0371-22.3633 10.7178-19.751Q8.39844-17.1387 8.39844-14.2578Q8.39844-12.4023 9.76562-11.2305Q11.1328-10.0586 13.5254-10.0586ZM44.2383 4.54102Q48.9746 4.54102 52.124 1.58691Q55.2734-1.36719 55.7129-5.27344L32.7148-5.27344Q33.1543-1.36719 36.3037 1.58691Q39.4531 4.54102 44.2383 4.54102Z"/>
  </g>
  <g id="Thin-S" transform="matrix(1 0 0 1 812.16 696)">
   <path d="M12.4023-9.52148L76.123-9.52148Q77.5879-9.52148 78.4424-10.3027Q79.2969-11.084 79.2969-12.3535Q79.2969-15.2344 77.124-17.7734Q74.9512-20.3125 72.6562-22.8516Q70.8008-24.9023 69.9951-28.1738Q69.1895-31.4453 68.8477-35.2783Q68.5059-39.1113 68.0176-42.9199Q67.2363-51.123 64.0381-57.0068Q60.8398-62.8906 53.9062-64.8926Q53.2227-68.7988 50.6104-71.2402Q47.998-73.6816 44.2383-73.6816Q40.5273-73.6816 37.915-71.2402Q35.3027-68.7988 34.6191-64.8926Q27.6855-62.8906 24.4629-57.0068Q21.2402-51.123 20.5078-42.9199Q20.0684-39.1113 19.7021-35.2783Q19.3359-31.4453 18.5547-28.1738Q17.7734-24.9023 15.918-22.8516Q13.5742-20.3125 11.4014-17.7734Q9.22852-15.2344 9.22852-12.3535Q9.22852-11.084 10.083-10.3027Q10.9375-9.52148 12.4023-9.52148ZM44.2383 3.22266Q48.6816 3.22266 51.5625 0.512695Q54.4434-2.19727 55.0781-5.9082L33.4473-5.9082Q34.0332-2.19727 36.9385 0.512695Q39.8438 3.22266 44.2383 3.22266Z"/>
  </g>
  <g id="Ultralight-S" transform="matrix(1 0 0 1 515.424 696)">
   <path d="M11.8164-9.22852L76.7578-9.22852Q77.7344-9.22852 78.3203-9.83887Q78.9062-10.4492 78.9062-11.377Q78.9062-14.3066 76.8066-16.7969Q74.707-19.2871 72.4609-21.8262Q70.4102-24.1211 69.5557-27.832Q68.7012-31.543 68.3594-35.9619Q68.0176-40.3809 67.3828-44.7754Q66.4551-51.9531 63.2568-57.2266Q60.0586-62.5 53.418-64.209Q52.832-68.2129 50.3418-70.6299Q47.8516-73.0469 44.2871-73.0469Q40.7715-73.0469 38.2324-70.6299Q35.6934-68.2129 35.1562-64.209Q28.4668-62.5 25.293-57.2266Q22.1191-51.9531 21.1914-44.7754Q20.5566-40.3809 20.1904-35.9619Q19.8242-31.543 19.0186-27.832Q18.2129-24.1211 16.1133-21.8262Q13.8672-19.2871 11.7676-16.7969Q9.66797-14.3066 9.66797-11.377Q9.66797-10.4492 10.2783-9.83887Q10.8887-9.22852 11.8164-9.22852ZM44.2871 2.53906Q48.5352 2.53906 51.2939-0.0244141Q54.0527-2.58789 54.7363-6.20117L33.7891-6.20117Q34.5215-2.58789 37.2803-0.0244141Q40.0391 2.53906 44.2871 2.53906Z"/>
  </g>
 </g>
</svg>
