<?xml version="1.0" encoding="UTF-8"?>
<svg width="16px" height="17px" viewBox="0 0 16 17" version="1.1" xmlns="http://www.w3.org/2000/svg" xmlns:xlink="http://www.w3.org/1999/xlink">
    <title>backward</title>
    <g id="backward" stroke="none" stroke-width="1" fill="none" fill-rule="evenodd">
        <path d="M8.09086032,16.8 C9.11769173,16.8 10.0831637,16.6046516 10.9872762,16.2139548 C11.8913888,15.8232579 12.6878092,15.2835453 13.3765376,14.5948169 C14.065266,13.9060886 14.6049786,13.1096681 14.9956754,12.2055556 C15.3863722,11.301443 15.5817206,10.3359711 15.5817206,9.30913968 C15.5817206,8.28731721 15.3888767,7.32560194 15.0031888,6.42399388 C14.6175009,5.52238581 14.0840495,4.72846982 13.4028345,4.04224591 C12.7216195,3.356022 11.9327125,2.81630939 11.0361133,2.4231081 C10.6376248,2.24835197 10.2267686,2.11193582 9.80354461,2.01385966 L9.69111446,1.99149496 L9.69121463,0.894131091 C9.69121463,0.598604004 9.58853149,0.412021224 9.38316521,0.334382752 C9.17779893,0.25674428 8.94738798,0.310590317 8.69193236,0.495920863 L6.10732258,2.35924419 C5.90696524,2.5095122 5.80678656,2.68858158 5.80678656,2.89645233 C5.80678656,3.10432308 5.90696524,3.28339246 6.10732258,3.43366047 L8.69193236,5.2969838 C8.94738798,5.48732328 9.17779893,5.54492602 9.38316521,5.46979201 C9.58853149,5.394658 9.69121463,5.20431852 9.69121463,4.89877357 L9.69111446,3.86961802 L9.82786461,3.90958743 C10.0034903,3.96609447 10.175829,4.03160193 10.3448805,4.10610981 C11.0210865,4.40414137 11.6146452,4.81111723 12.1255564,5.3270374 C12.6364676,5.84295757 13.0346779,6.44152514 13.3201871,7.12274013 C13.6056963,7.80395511 13.7484509,8.53275496 13.7484509,9.30913968 C13.7484509,10.0955423 13.6019396,10.8306033 13.308917,11.5143227 C13.0158944,12.1980422 12.611423,12.7991142 12.0955028,13.3175389 C11.5795826,13.8359635 10.9797628,14.2416871 10.2960434,14.5347097 C9.61232393,14.8277324 8.87726291,14.9742437 8.09086032,14.9742437 C7.30946667,14.9742437 6.57565788,14.8277324 5.88943397,14.5347097 C5.20321005,14.2416871 4.60088578,13.8359635 4.08246114,13.3175389 C3.56403651,12.7991142 3.15831288,12.1980422 2.86529026,11.5143227 C2.57226764,10.8306033 2.42575633,10.0955423 2.42575633,9.30913968 C2.43076526,8.7331123 2.51341267,8.18713853 2.67369854,7.67121836 C2.83398442,7.15529819 3.06439537,6.67569279 3.36493139,6.23240216 C3.66546741,5.78911153 4.01859724,5.39215354 4.42432087,5.04152818 C4.62467821,4.84117083 4.74864932,4.61827328 4.79623419,4.37283553 C4.84381906,4.12739778 4.77745069,3.8994913 4.59712908,3.68911609 C4.4368432,3.49376767 4.22897245,3.39233677 3.97351684,3.38482336 C3.71806122,3.37730996 3.470119,3.4762364 3.22969018,3.68160269 C2.70375215,4.09734418 2.24418248,4.60575095 1.85098119,5.20682299 C1.45777989,5.80789503 1.15098271,6.46156088 0.930589623,7.16782053 C0.710196541,7.87408018 0.6,8.58785323 0.6,9.30913968 C0.6,10.3359711 0.795348414,11.301443 1.18604524,12.2055556 C1.57674207,13.1096681 2.11645467,13.9060886 2.80518305,14.5948169 C3.49391144,15.2835453 4.29033189,15.8232579 5.19444442,16.2139548 C6.09855695,16.6046516 7.06402892,16.8 8.09086032,16.8 Z" fill="#FFFFFF" fill-rule="nonzero"></path>
    </g>
</svg>