<?xml version="1.0" encoding="UTF-8"?>
<svg version="1.1" xmlns="http://www.w3.org/2000/svg" xmlns:xlink="http://www.w3.org/1999/xlink" viewBox="0 0 3.69336 2.7793">
 <g>
  <rect height="2.7793" opacity="0" width="3.69336" x="0" y="0"/>
  <path d="M3.20898 1.32812C3.12695 1.32812 3.06445 1.39062 3.06445 1.47266L3.06445 1.62109C3.06445 1.87109 2.88477 2.04102 2.62109 2.04102L1.39453 2.04102L1.39453 1.6875C1.39453 1.61914 1.35352 1.58203 1.28516 1.58203C1.25586 1.58203 1.22266 1.59375 1.19922 1.61328L0.615234 2.10352C0.564453 2.14844 0.5625 2.21094 0.615234 2.25586L1.19922 2.74805C1.22266 2.76758 1.25586 2.7793 1.28516 2.7793C1.35352 2.7793 1.39453 2.74219 1.39453 2.67383L1.39453 2.32422L2.5918 2.32422C3.05469 2.32422 3.35352 2.06055 3.35352 1.64258L3.35352 1.47266C3.35352 1.39062 3.29102 1.32812 3.20898 1.32812Z" fill="black" fill-opacity="1"/>
  <path d="M0.144531 1.45312C0.224609 1.45312 0.287109 1.39062 0.287109 1.30859L0.287109 1.16016C0.287109 0.910156 0.466797 0.740234 0.732422 0.740234L1.95898 0.740234L1.95898 1.09766C1.95898 1.16602 1.99805 1.20312 2.06641 1.20312C2.09766 1.20312 2.12891 1.19141 2.15234 1.17188L2.73633 0.681641C2.78711 0.638672 2.79102 0.574219 2.73633 0.529297L2.15234 0.0371094C2.12891 0.0175781 2.09766 0.00585938 2.06641 0.00585938C1.99805 0.00585938 1.95898 0.0429688 1.95898 0.111328L1.95898 0.457031L0.761719 0.457031C0.298828 0.457031 0 0.720703 0 1.13867L0 1.30859C0 1.39062 0.0625 1.45312 0.144531 1.45312Z" fill="black" fill-opacity="1"/>
 </g>
</svg>
