<?xml version="1.0" encoding="UTF-8"?>
<svg width="16px" height="17px" viewBox="0 0 16 17" version="1.1" xmlns="http://www.w3.org/2000/svg" xmlns:xlink="http://www.w3.org/1999/xlink">
    <title>play</title>
    <g id="play" stroke="none" stroke-width="1" fill="none" fill-rule="evenodd">
        <path d="M2.70128535,16.2 C2.89640103,16.2 3.08560411,16.1691887 3.2688946,16.1075662 C3.45218509,16.0459436 3.65912596,15.947641 3.88971722,15.8126582 L13.9559126,10.0201381 C14.3402314,9.80299194 14.6269923,9.58291139 14.8161954,9.35989643 C15.0053985,9.13688147 15.1,8.866916 15.1,8.55 C15.1,8.233084 15.0053985,7.96311853 14.8161954,7.74010357 C14.6269923,7.51708861 14.3402314,7.29700806 13.9559126,7.07986191 L3.88971722,1.28734177 C3.65912596,1.15235903 3.45218509,1.05405639 3.2688946,0.992433832 C3.08560411,0.930811277 2.89640103,0.9 2.70128535,0.9 C2.31696658,0.9 1.98733933,1.03791715 1.7124036,1.31375144 C1.43746787,1.58958573 1.3,1.9739931 1.3,2.46697353 L1.3,14.6330265 C1.3,15.1260069 1.43746787,15.5104143 1.7124036,15.7862486 C1.98733933,16.0620829 2.31696658,16.2 2.70128535,16.2 Z" fill="#FFFFFF" fill-rule="nonzero"></path>
    </g>
</svg>