<?xml version="1.0" encoding="UTF-8"?>
<svg width="17px" height="17px" viewBox="0 0 17 17" version="1.1" xmlns="http://www.w3.org/2000/svg" xmlns:xlink="http://www.w3.org/1999/xlink">
    <title>skip</title>
    <g id="skip" stroke="none" stroke-width="1" fill="none" fill-rule="evenodd">
        <path d="M15.7154297,15.525 C16.1548828,15.525 16.4844727,15.4136719 16.7041992,15.1910156 C16.9239258,14.9683594 17.0337891,14.6373047 17.0337891,14.1978516 L17.0337891,2.59628906 C17.0337891,2.16269531 16.9239258,1.83457031 16.7041992,1.61191406 C16.4844727,1.38925781 16.1548828,1.27792969 15.7154297,1.27792969 L13.6763672,1.27792969 C13.2427734,1.27792969 12.9146484,1.38925781 12.6919922,1.61191406 C12.4693359,1.83457031 12.3580078,2.16269531 12.3580078,2.59628906 L12.3576,8.0217 L12.3494878,7.98084542 C12.302852,7.80841239 12.2251256,7.65272042 12.1163086,7.51376953 C11.9258789,7.27060547 11.6578125,7.04941406 11.3121094,6.85019531 L2.72519531,1.8140625 C2.52597656,1.70273437 2.33261719,1.61923828 2.14511719,1.56357422 C1.95761719,1.50791016 1.76132812,1.48007812 1.55625,1.48007812 C1.14023438,1.48007812 0.779882813,1.63242187 0.475195313,1.93710937 C0.170507812,2.24179687 0.0181640625,2.67832031 0.0181640625,3.24667969 L0.0181640625,13.55625 C0.0181640625,14.11875 0.171972656,14.5523438 0.479589844,14.8570313 C0.787207031,15.1617188 1.14902344,15.3140625 1.56503906,15.3140625 C1.77011719,15.3140625 1.96640625,15.2876953 2.15390625,15.2349609 C2.34140625,15.1822266 2.53183594,15.0972656 2.72519531,14.9800781 L11.3121094,9.95273438 C11.6460938,9.75351563 11.9112305,9.52792969 12.1075195,9.27597656 C12.2196847,9.13200335 12.2998027,8.97463728 12.3478735,8.80387835 L12.3576,8.7606 L12.3580078,14.1978516 C12.3580078,14.6373047 12.4664062,14.9683594 12.6832031,15.1910156 C12.9,15.4136719 13.2310547,15.525 13.6763672,15.525 L15.7154297,15.525 Z" fill="#FFFFFF" fill-rule="nonzero"></path>
    </g>
</svg>