<?xml version="1.0" encoding="UTF-8"?>
<svg width="24px" height="17px" viewBox="0 0 24 17" version="1.1" xmlns="http://www.w3.org/2000/svg" xmlns:xlink="http://www.w3.org/1999/xlink">
    <title>unmute</title>
    <g id="unmute" stroke="none" stroke-width="1" fill="none" fill-rule="evenodd">
        <path d="M21.2290797,0.0012942202 L21.3506243,0.0181999716 C21.5558759,0.0626887911 21.7239442,0.179842683 21.8548292,0.369661646 C22.3545722,1.12300566 22.7888726,1.93418513 23.1577304,2.80320007 C23.5265883,3.67221501 23.8091811,4.5886847 24.0055086,5.55260912 C24.2018362,6.51653354 24.3,7.51456606 24.3,8.54670667 C24.3,9.57884728 24.2033235,10.5768798 24.0099706,11.5408042 C23.8166177,12.5047286 23.5369996,13.4211983 23.1711164,14.2902133 C22.8052332,15.1592282 22.3664708,15.9704077 21.8548292,16.7237517 C21.7239442,16.9135707 21.5558759,17.0322075 21.3506243,17.0796623 C21.1453728,17.127117 20.9535072,17.0915259 20.7750275,16.9728891 C20.5846493,16.8483204 20.4760742,16.6807458 20.4493022,16.4701654 C20.4225303,16.259585 20.4745869,16.0504876 20.6054719,15.8428731 C21.051671,15.1785067 21.4383768,14.4577878 21.7655894,13.6807164 C22.0928021,12.9036451 22.3441609,12.0850508 22.5196658,11.2249336 C22.6951708,10.3648164 22.7829232,9.47207412 22.7829232,8.54670667 C22.7829232,7.62727107 22.6951708,6.73601172 22.5196658,5.87292862 C22.3441609,5.00984552 22.0928021,4.19125124 21.7655894,3.41714578 C21.4383768,2.64304032 21.051671,1.92083849 20.6054719,1.25054027 C20.4745869,1.04885762 20.4225303,0.841243133 20.4493022,0.627696799 C20.4760742,0.414150465 20.5846493,0.248058872 20.7750275,0.12942202 C20.9535072,0.0107851684 21.1453728,-0.0262888479 21.3506243,0.0181999716 Z M9.5308116,0.770061021 C9.8461256,0.770061021 10.1064084,0.879800109 10.3116599,1.09927829 C10.5169115,1.31875646 10.6195373,1.57975754 10.6195373,1.88228151 L10.6195373,1.88228151 L10.6195373,15.2734162 C10.6195373,15.581872 10.5183988,15.8369412 10.3161219,16.0386239 C10.113845,16.2403065 9.85802424,16.3411479 9.54865957,16.3411479 C9.3285347,16.3411479 9.12328314,16.2951761 8.93290488,16.2032325 C8.74252663,16.1112889 8.54024972,15.9644758 8.32607418,15.7627932 L8.32607418,15.7627932 L4.60477415,12.2570742 C4.55123026,12.2036876 4.48281307,12.1769943 4.39952259,12.1769943 L4.39952259,12.1769943 L1.91865589,12.1769943 C1.29397723,12.1769943 0.818031583,12.0094198 0.49081895,11.6742707 C0.163606317,11.3391216 4.97379915e-14,10.8423298 4.97379915e-14,10.1838952 L4.97379915e-14,10.1838952 L4.97379915e-14,6.94510917 C4.97379915e-14,6.28667464 0.163606317,5.78839986 0.49081895,5.45028483 C0.818031583,5.11216981 1.29397723,4.94311229 1.91865589,4.94311229 L1.91865589,4.94311229 L4.39952259,4.94311229 C4.48281307,4.94311229 4.55123026,4.91938492 4.60477415,4.87193018 L4.60477415,4.87193018 L8.32607418,1.38400673 C8.56404701,1.1704604 8.76929857,1.01474953 8.94182887,0.916874126 C9.11435916,0.818998723 9.31068674,0.770061021 9.5308116,0.770061021 Z M17.6830466,2.32076331 L17.8033419,2.33606747 C18.0056188,2.37759037 18.1721998,2.49029538 18.3030848,2.6741825 C18.8742196,3.45718572 19.3144693,4.3588258 19.623834,5.37910272 C19.9331987,6.39937965 20.087881,7.45524763 20.087881,8.54670667 C20.087881,9.63816571 19.930224,10.6940337 19.61491,11.7143106 C19.299596,12.7345875 18.862321,13.6391935 18.3030848,14.4281286 C18.1781491,14.6120157 18.0130555,14.7247207 17.8078039,14.7662436 C17.6025523,14.8077665 17.4077121,14.7662436 17.2232831,14.6416749 C17.0388542,14.5230381 16.9347411,14.3569465 16.9109438,14.1434002 C16.8871465,13.9298538 16.9436651,13.7192734 17.0804994,13.5116589 C17.5445465,12.8413607 17.9059677,12.076153 18.1647631,11.2160358 C18.4235586,10.3559187 18.5529563,9.46614228 18.5529563,8.54670667 C18.5529563,7.62727107 18.4235586,6.73749468 18.1647631,5.8773775 C17.9059677,5.01726032 17.5445465,4.25501855 17.0804994,3.59065218 C16.9377158,3.37710584 16.8797099,3.16504247 16.9064818,2.95446206 C16.9332538,2.74388165 17.0388542,2.57630709 17.2232831,2.4517384 C17.4077121,2.33310155 17.601065,2.29454457 17.8033419,2.33606747 Z M14.1591451,4.62813145 L14.2783694,4.64058832 C14.4806463,4.67617937 14.6442527,4.78295254 14.7691884,4.96090782 C15.114249,5.42359154 15.3819684,5.9678381 15.5723467,6.5936475 C15.7627249,7.21945689 15.8579141,7.87047662 15.8579141,8.54670667 C15.8579141,9.22886857 15.7627249,9.88285422 15.5723467,10.5086636 C15.3819684,11.134473 15.114249,11.6757536 14.7691884,12.1325055 C14.6442527,12.3163926 14.4806463,12.4261317 14.2783694,12.4617228 C14.0760925,12.4973138 13.8916636,12.4587569 13.7250826,12.3460519 C13.5228057,12.2036876 13.406794,12.0257324 13.3770474,11.812186 C13.3473008,11.5986397 13.4097686,11.3821274 13.564451,11.1626493 C13.8083731,10.8126705 13.997264,10.4122712 14.1311238,9.96145113 C14.2649835,9.51063109 14.3319133,9.03904961 14.3319133,8.54670667 C14.3319133,8.05436374 14.2664708,7.58129929 14.1355858,7.12751333 C14.0047007,6.67372737 13.8143224,6.27777688 13.564451,5.93966185 C13.4097686,5.71425183 13.3473008,5.49329069 13.3770474,5.27677844 C13.406794,5.06026618 13.5228057,4.88675979 13.7250826,4.75625925 C13.8916636,4.64355424 14.0760925,4.60499726 14.2783694,4.64058832 Z" fill="#FFFFFF" fill-rule="nonzero"></path>
    </g>
</svg>