<?xml version="1.0" encoding="UTF-8"?>
<svg width="16px" height="17px" viewBox="0 0 16 17" version="1.1" xmlns="http://www.w3.org/2000/svg" xmlns:xlink="http://www.w3.org/1999/xlink">
    <title>forward</title>
    <g id="forward" stroke="none" stroke-width="1" fill="none" fill-rule="evenodd">
        <path d="M8.23681641,16.9184101 C9.26490066,16.9184101 10.2315506,16.722995 11.1367663,16.3321648 C12.0419819,15.9413346 12.8393741,15.4014378 13.5289428,14.7124744 C14.2185115,14.023511 14.7588826,13.2268187 15.1500561,12.3223976 C15.5412296,11.4179765 15.7368164,10.452175 15.7368164,9.42499312 C15.7368164,8.70346049 15.6277392,7.98944383 15.4095847,7.28294314 C15.1914302,6.57644244 14.8842587,5.9225535 14.4880702,5.32127631 C14.0918816,4.71999912 13.6304974,4.21141883 13.1039177,3.79553544 C12.8631955,3.59009907 12.6162046,3.49113887 12.3629448,3.49865483 C12.109685,3.5061708 11.9003069,3.60763632 11.7348104,3.80305141 C11.5542688,4.01349842 11.4878194,4.24148269 11.5354623,4.48700421 C11.5831053,4.73252573 11.7072276,4.95549935 11.9078294,5.15592508 C12.3190631,5.50667011 12.6738776,5.90376359 12.9722728,6.34720551 C13.270668,6.79064744 13.50136,7.27041653 13.664349,7.78651278 C13.827338,8.30260904 13.9088325,8.84876915 13.9088325,9.42499312 C13.9088325,10.2116641 13.7621424,10.946976 13.4687622,11.6309288 C13.1753821,12.3148816 12.7704172,12.9161588 12.2538676,13.4347604 C11.7373179,13.9533619 11.1355125,14.359224 10.4484513,14.6523467 C9.76139013,14.9454693 9.02417849,15.0920306 8.23681641,15.0920306 C7.45446937,15.0920306 6.71976525,14.9454693 6.03270407,14.6523467 C5.34564289,14.359224 4.74383747,13.9533619 4.22728782,13.4347604 C3.71073817,12.9161588 3.30577328,12.3148816 3.01239314,11.6309288 C2.719013,10.946976 2.57232293,10.2116641 2.57232293,9.42499312 C2.57232293,8.64834342 2.71650547,7.91929483 3.00487057,7.23784735 C3.29323566,6.55639987 3.69318551,5.957628 4.20472012,5.44153175 C4.71625472,4.92543549 5.31053757,4.51832073 5.98756866,4.22018746 C6.15682644,4.14565414 6.32921861,4.08012432 6.50474519,4.023598 L6.63367364,3.9861804 L6.63450949,5.02063772 C6.63450949,5.31626567 6.73731791,5.50416479 6.94293476,5.58433508 C7.14855161,5.66450537 7.38175121,5.6093883 7.64253356,5.41898385 L10.2227743,3.55502457 C10.4283911,3.40971591 10.5311996,3.23183808 10.5311996,3.02139106 C10.5311996,2.81094405 10.4283911,2.63306621 10.2227743,2.48775756 L7.64253356,0.61628231 C7.38676626,0.43088851 7.15482042,0.375771434 6.94669605,0.450931083 C6.73857167,0.526090731 6.63450949,0.716495174 6.63450949,1.02214441 L6.63367364,2.10570603 L6.52807908,2.12722322 C6.10532935,2.22533285 5.69446714,2.36179556 5.29549243,2.53661133 C4.39779936,2.92994682 3.60667598,3.46984363 2.92212232,4.15630176 C2.23756866,4.84275988 1.70221259,5.63694683 1.31605412,6.53886262 C0.929895644,7.4407784 0.736816406,8.4028219 0.736816406,9.42499312 C0.736816406,10.452175 0.932403167,11.4179765 1.32357669,12.3223976 C1.71475021,13.2268187 2.25512132,14.023511 2.94469003,14.7124744 C3.63425873,15.4014378 4.43165091,15.9413346 5.33686656,16.3321648 C6.2420822,16.722995 7.20873215,16.9184101 8.23681641,16.9184101 Z" fill="#FFFFFF" fill-rule="nonzero"></path>
    </g>
</svg>