<?xml version="1.0" encoding="UTF-8"?>
<svg version="1.1" xmlns="http://www.w3.org/2000/svg" xmlns:xlink="http://www.w3.org/1999/xlink" width="4.29297" height="2.87695">
    <title>loop</title>
    <g>
        <rect height="2.87695" opacity="0" width="4.29297" x="0" y="0"/>
        <path d="M3.95312 1.50977C3.95312 2.19336 3.50781 2.63477 2.82617 2.63477L1.12695 2.63477C0.441406 2.63477 0 2.19336 0 1.50977C0 0.826172 0.441406 0.373047 1.12695 0.378906L1.33008 0.380859C1.32227 0.423828 1.31836 0.466797 1.31836 0.509766C1.31836 0.5625 1.32422 0.613281 1.33398 0.662109L1.12695 0.662109C0.621094 0.662109 0.28125 1.00586 0.28125 1.50977C0.28125 2.01367 0.621094 2.35352 1.12695 2.35352L2.82617 2.35352C3.33008 2.35352 3.67188 2.01367 3.67188 1.50977C3.67188 1.00586 3.33008 0.662109 2.82617 0.662109L2.54065 0.662109C2.55617 0.613465 2.56445 0.561603 2.56445 0.507812C2.56445 0.463157 2.55874 0.419879 2.54742 0.378906L2.82617 0.378906C3.50781 0.378906 3.95312 0.826172 3.95312 1.50977Z" fill="black" fill-opacity="1.0"/>
        <path d="M2.05469 1.01758C2.33789 1.01758 2.56445 0.789062 2.56445 0.507812C2.56445 0.226562 2.33789 0 2.05469 0C1.77344 0 1.54688 0.226562 1.54688 0.507812C1.54688 0.789062 1.77344 1.01758 2.05469 1.01758ZM2.05469 0.744141C1.92383 0.744141 1.82031 0.638672 1.82031 0.507812C1.82031 0.375 1.92383 0.273438 2.05469 0.273438C2.18945 0.273438 2.29102 0.375 2.29102 0.507812C2.29102 0.638672 2.18945 0.744141 2.05469 0.744141Z" fill="black" fill-opacity="1.0"/>
    </g>
</svg>
