<?xml version="1.0" encoding="UTF-8"?>
<svg width="23px" height="17px" viewBox="0 0 23 17" version="1.1" xmlns="http://www.w3.org/2000/svg" xmlns:xlink="http://www.w3.org/1999/xlink">
    <title>mute</title>
    <g id="mute" stroke="none" stroke-width="1" fill="none" fill-rule="evenodd">
        <path d="M9.5654356,0 C9.88189508,0 10.1431234,0.109942857 10.3491206,0.329828571 C10.5551178,0.549714286 10.6581164,0.8112 10.6581164,1.11428571 L10.6581164,1.11428571 L10.6581164,14.5302857 C10.6581164,14.8393143 10.5566106,15.0948571 10.3535988,15.2969143 C10.1505871,15.4989714 9.89383695,15.6 9.5833484,15.6 C9.36242386,15.6 9.15642665,15.5539429 8.96535677,15.4618286 C8.7742869,15.3697143 8.57127516,15.2226286 8.35632155,15.0205714 L8.35632155,15.0205714 L4.62150259,11.5083429 C4.56776419,11.4548571 4.49909845,11.4281143 4.41550538,11.4281143 L4.41550538,11.4281143 L1.92562608,11.4281143 C1.29867805,11.4281143 0.821003368,11.2602286 0.492602021,10.9244571 C0.164200674,10.5886857 0,10.0909714 0,9.43131429 L0,9.43131429 L0,6.18651429 C0,5.52685714 0.164200674,5.02765714 0.492602021,4.68891429 C0.821003368,4.35017143 1.29867805,4.1808 1.92562608,4.1808 L1.92562608,4.1808 L4.41550538,4.1808 C4.49909845,4.1808 4.56776419,4.15702857 4.62150259,4.10948571 L4.62150259,4.10948571 L8.35632155,0.615085714 C8.59515889,0.401142857 8.8011561,0.245142857 8.97431317,0.147085714 C9.14747025,0.0490285714 9.34451106,0 9.5654356,0 Z M14.140346,3.76118978 C14.2798647,3.72875663 14.4174722,3.72875663 14.5531685,3.76118978 C14.6888647,3.79362294 14.8064044,3.85753534 14.9057876,3.95292699 L14.9057876,3.95292699 L18.0264216,7.06825722 L21.1382594,3.95865049 C21.2376426,3.85944318 21.3551823,3.79362294 21.4908785,3.76118978 C21.6265748,3.72875663 21.7641823,3.72971054 21.903701,3.76405153 C22.0432196,3.79839253 22.1645818,3.86516668 22.2677874,3.96437399 C22.370993,4.06739696 22.4397967,4.18759043 22.4741986,4.3249544 C22.5086005,4.46231836 22.5086005,4.59968233 22.4741986,4.7370463 C22.4397967,4.87441026 22.3748154,4.9926959 22.2792547,5.09190321 L22.2792547,5.09190321 L19.1627348,8.20346121 L22.2792547,11.3133462 C22.3748154,11.4125535 22.4397967,11.5298852 22.4741986,11.6653414 C22.5086005,11.8007975 22.5086005,11.9372075 22.4741986,12.0745715 C22.4397967,12.2119355 22.370993,12.3340368 22.2677874,12.4408754 C22.1645818,12.5400827 22.0441752,12.6068569 21.9065678,12.6411979 C21.7689603,12.6755389 21.6313528,12.6764928 21.4937454,12.6440596 C21.3561379,12.6116265 21.2376426,12.5458062 21.1382594,12.4465989 L21.1382594,12.4465989 L18.0246151,9.33956688 L14.9057876,12.4523224 C14.8064044,12.5477141 14.6888647,12.6116265 14.5531685,12.6440596 C14.4174722,12.6764928 14.2798647,12.6764928 14.140346,12.6440596 C14.0008274,12.6116265 13.8794652,12.5438984 13.7762596,12.4408754 C13.673054,12.3416681 13.6052059,12.2224286 13.5727152,12.0831568 C13.5402246,11.943885 13.5411802,11.8046132 13.575582,11.6653414 C13.6099839,11.5260696 13.6749652,11.4106457 13.770526,11.3190697 L13.770526,11.3190697 L16.888302,8.20526456 L13.770526,5.09190321 C13.6749652,4.99651157 13.6099839,4.88013376 13.575582,4.7427698 C13.5411802,4.60540583 13.5411802,4.46708795 13.575582,4.32781615 C13.6099839,4.18854435 13.6768764,4.06739696 13.7762596,3.96437399 C13.8794652,3.86135101 14.0008274,3.79362294 14.140346,3.76118978 Z" fill="#FFFFFF" fill-rule="nonzero"></path>
    </g>
</svg>