<?xml version="1.0" encoding="UTF-8"?>
<svg width="11px" height="17px" viewBox="0 0 11 17" version="1.1" xmlns="http://www.w3.org/2000/svg" xmlns:xlink="http://www.w3.org/1999/xlink">
    <title>pause</title>
    <g id="pause" stroke="none" stroke-width="1" fill="none" fill-rule="evenodd">
        <path d="M3.36553788,1.5 C3.80602374,1.51159778 4.13638813,1.62467613 4.35663107,1.83923504 C4.576874,2.05379395 4.68699546,2.37563233 4.68699546,2.80475015 L4.68699546,2.80475015 L4.68699546,14.2865515 C4.68699546,14.7214682 4.576874,15.0491055 4.35663107,15.2694633 C4.13638813,15.4898211 3.80602374,15.6 3.36553788,15.6 L3.36553788,15.6 L1.32168348,15.6 C0.881197614,15.6 0.549364932,15.4898211 0.326185428,15.2694633 C0.103005925,15.0491055 -0.00564725464,14.7214682 0.000225890186,14.2865515 L0.000225890186,14.2865515 L0.000225890186,2.80475015 C0.000225890186,2.37563233 0.111815642,2.05089451 0.334995145,1.83053671 C0.558174649,1.6101789 0.887070759,1.5 1.32168348,1.5 L1.32168348,1.5 Z M10.0785424,1.5 C10.5131551,1.5 10.8420512,1.6101789 11.0652307,1.83053671 C11.2884102,2.05089451 11.4,2.37563233 11.4,2.80475015 L11.4,2.80475015 L11.4,14.2865515 C11.4,14.7214682 11.2884102,15.0491055 11.0652307,15.2694633 C10.8420512,15.4898211 10.5131551,15.6 10.0785424,15.6 L10.0785424,15.6 L8.03468801,15.6 C7.58832901,15.6 7.25502804,15.4898211 7.03478511,15.2694633 C6.81454218,15.0491055 6.70442071,14.7214682 6.70442071,14.2865515 L6.70442071,14.2865515 L6.70442071,2.80475015 C6.70442071,2.37563233 6.81601046,2.05089451 7.03918997,1.83053671 C7.26236947,1.6101789 7.59420215,1.5 8.03468801,1.5 L8.03468801,1.5 Z" fill="#FFFFFF"></path>
    </g>
</svg>