<svg width="24" height="17" viewBox="0 0 24 17" fill="none" xmlns="http://www.w3.org/2000/svg">
<g id="pip">
<path id="pip_2" d="M4.44019 13.4019H10.0957V12.0239H4.45934C4.11483 12.0239 3.84848 11.9314 3.66029 11.7464C3.47209 11.5614 3.378 11.2871 3.378 10.9235V3.47847C3.378 3.11484 3.47209 2.84051 3.66029 2.65551C3.84848 2.4705 4.11483 2.378 4.45934 2.378H15.3493C15.6938 2.378 15.9601 2.4705 16.1483 2.65551C16.3365 2.84051 16.4306 3.11484 16.4306 3.47847V7.98564H17.8086V3.40192C17.8086 2.59809 17.6061 1.99681 17.201 1.59809C16.7959 1.19936 16.185 1 15.3684 1H4.44019C3.62361 1 3.01276 1.19936 2.60765 1.59809C2.20255 1.99681 2 2.59809 2 3.40192V11C2 11.8038 2.20255 12.4051 2.60765 12.8038C3.01276 13.2026 3.62361 13.4019 4.44019 13.4019ZM11.8947 17H19.1866C20.0032 17 20.6141 16.8006 21.0192 16.4019C21.4243 16.0032 21.6268 15.4019 21.6268 14.5981V9.77512C21.6268 8.9713 21.4243 8.37002 21.0192 7.97129C20.6141 7.57256 20.0032 7.3732 19.1866 7.3732H11.8947C11.0782 7.3732 10.4673 7.57256 10.0622 7.97129C9.65709 8.37002 9.45454 8.9713 9.45454 9.77512V14.5981C9.45454 15.4019 9.65709 16.0032 10.0622 16.4019C10.4673 16.8006 11.0782 17 11.8947 17ZM11.9139 15.622C11.5694 15.622 11.303 15.5295 11.1148 15.3445C10.9266 15.1595 10.8325 14.8852 10.8325 14.5215V9.85167C10.8325 9.48804 10.9266 9.21371 11.1148 9.02871C11.303 8.8437 11.5694 8.7512 11.9139 8.7512H19.1675C19.512 8.7512 19.7783 8.8437 19.9664 9.02871C20.1547 9.21371 20.2488 9.48804 20.2488 9.85167V14.5215C20.2488 14.8852 20.1547 15.1595 19.9664 15.3445C19.7783 15.5295 19.512 15.622 19.1675 15.622H11.9139Z" fill="white"/>
</g>
</svg>
