<?xml version="1.0" encoding="UTF-8"?>
<!--Generator: Apple Native CoreSVG 149-->
<!DOCTYPE svg
PUBLIC "-//W3C//DTD SVG 1.1//EN"
       "http://www.w3.org/Graphics/SVG/1.1/DTD/svg11.dtd">
<svg version="1.1" xmlns="http://www.w3.org/2000/svg" xmlns:xlink="http://www.w3.org/1999/xlink" width="3300" height="2200">
 <!--glyph: "uni100B48.medium", point size: 100.0, font version: "17.0d9e1", template writer version: "59"-->
 <g id="Notes">
  <rect height="2200" id="artboard" style="fill:white;opacity:1" width="3300" x="0" y="0"/>
  <line style="fill:none;stroke:black;opacity:1;stroke-width:0.5;" x1="263" x2="3036" y1="292" y2="292"/>
  <text style="stroke:none;fill:black;font-family:sans-serif;font-size:13;font-weight:bold;" transform="matrix(1 0 0 1 263 322)">Weight/Scale Variations</text>
  <text style="stroke:none;fill:black;font-family:sans-serif;font-size:13;text-anchor:middle;" transform="matrix(1 0 0 1 559.711 322)">Ultralight</text>
  <text style="stroke:none;fill:black;font-family:sans-serif;font-size:13;text-anchor:middle;" transform="matrix(1 0 0 1 856.422 322)">Thin</text>
  <text style="stroke:none;fill:black;font-family:sans-serif;font-size:13;text-anchor:middle;" transform="matrix(1 0 0 1 1153.13 322)">Light</text>
  <text style="stroke:none;fill:black;font-family:sans-serif;font-size:13;text-anchor:middle;" transform="matrix(1 0 0 1 1449.84 322)">Regular</text>
  <text style="stroke:none;fill:black;font-family:sans-serif;font-size:13;text-anchor:middle;" transform="matrix(1 0 0 1 1746.56 322)">Medium</text>
  <text style="stroke:none;fill:black;font-family:sans-serif;font-size:13;text-anchor:middle;" transform="matrix(1 0 0 1 2043.27 322)">Semibold</text>
  <text style="stroke:none;fill:black;font-family:sans-serif;font-size:13;text-anchor:middle;" transform="matrix(1 0 0 1 2339.98 322)">Bold</text>
  <text style="stroke:none;fill:black;font-family:sans-serif;font-size:13;text-anchor:middle;" transform="matrix(1 0 0 1 2636.69 322)">Heavy</text>
  <text style="stroke:none;fill:black;font-family:sans-serif;font-size:13;text-anchor:middle;" transform="matrix(1 0 0 1 2933.4 322)">Black</text>
  <line style="fill:none;stroke:black;opacity:1;stroke-width:0.5;" x1="263" x2="3036" y1="1903" y2="1903"/>
  <g transform="matrix(1 0 0 1 263 1933)">
   <path d="M9.24805 0.830078Q10.8691 0.830078 12.2949 0.214844Q13.7207-0.400391 14.8096-1.49414Q15.8984-2.58789 16.5186-4.01367Q17.1387-5.43945 17.1387-7.05078Q17.1387-8.66211 16.5186-10.0879Q15.8984-11.5137 14.8047-12.6074Q13.7109-13.7012 12.2852-14.3164Q10.8594-14.9316 9.23828-14.9316Q7.62695-14.9316 6.20117-14.3164Q4.77539-13.7012 3.69141-12.6074Q2.60742-11.5137 1.9873-10.0879Q1.36719-8.66211 1.36719-7.05078Q1.36719-5.43945 1.9873-4.01367Q2.60742-2.58789 3.69629-1.49414Q4.78516-0.400391 6.21094 0.214844Q7.63672 0.830078 9.24805 0.830078ZM9.24805-0.654297Q7.91992-0.654297 6.7627-1.14746Q5.60547-1.64062 4.73145-2.51953Q3.85742-3.39844 3.36426-4.56055Q2.87109-5.72266 2.87109-7.05078Q2.87109-8.37891 3.35938-9.54102Q3.84766-10.7031 4.72168-11.582Q5.5957-12.4609 6.75293-12.9541Q7.91016-13.4473 9.23828-13.4473Q10.5762-13.4473 11.7334-12.9541Q12.8906-12.4609 13.7695-11.582Q14.6484-10.7031 15.1465-9.54102Q15.6445-8.37891 15.6445-7.05078Q15.6445-5.72266 15.1514-4.56055Q14.6582-3.39844 13.7842-2.51953Q12.9102-1.64062 11.748-1.14746Q10.5859-0.654297 9.24805-0.654297ZM5.83984-7.04102Q5.83984-6.71875 6.04492-6.51855Q6.25-6.31836 6.5918-6.31836L8.50586-6.31836L8.50586-4.39453Q8.50586-4.0625 8.70605-3.85742Q8.90625-3.65234 9.22852-3.65234Q9.56055-3.65234 9.76562-3.85742Q9.9707-4.0625 9.9707-4.39453L9.9707-6.31836L11.8945-6.31836Q12.2266-6.31836 12.4316-6.51855Q12.6367-6.71875 12.6367-7.04102Q12.6367-7.37305 12.4316-7.57812Q12.2266-7.7832 11.8945-7.7832L9.9707-7.7832L9.9707-9.69727Q9.9707-10.0391 9.76562-10.2441Q9.56055-10.4492 9.22852-10.4492Q8.90625-10.4492 8.70605-10.2441Q8.50586-10.0391 8.50586-9.69727L8.50586-7.7832L6.5918-7.7832Q6.25-7.7832 6.04492-7.57812Q5.83984-7.37305 5.83984-7.04102Z"/>
  </g>
  <g transform="matrix(1 0 0 1 281.867 1933)">
   <path d="M11.709 2.91016Q13.75 2.91016 15.5518 2.12891Q17.3535 1.34766 18.7305-0.0292969Q20.1074-1.40625 20.8887-3.20801Q21.6699-5.00977 21.6699-7.05078Q21.6699-9.0918 20.8887-10.8936Q20.1074-12.6953 18.7305-14.0723Q17.3535-15.4492 15.5469-16.2305Q13.7402-17.0117 11.6992-17.0117Q9.6582-17.0117 7.85645-16.2305Q6.05469-15.4492 4.68262-14.0723Q3.31055-12.6953 2.5293-10.8936Q1.74805-9.0918 1.74805-7.05078Q1.74805-5.00977 2.5293-3.20801Q3.31055-1.40625 4.6875-0.0292969Q6.06445 1.34766 7.86621 2.12891Q9.66797 2.91016 11.709 2.91016ZM11.709 1.25Q9.98047 1.25 8.47656 0.605469Q6.97266-0.0390625 5.83496-1.17676Q4.69727-2.31445 4.05762-3.81836Q3.41797-5.32227 3.41797-7.05078Q3.41797-8.7793 4.05762-10.2832Q4.69727-11.7871 5.83008-12.9297Q6.96289-14.0723 8.4668-14.7119Q9.9707-15.3516 11.6992-15.3516Q13.4277-15.3516 14.9316-14.7119Q16.4355-14.0723 17.5781-12.9297Q18.7207-11.7871 19.3652-10.2832Q20.0098-8.7793 20.0098-7.05078Q20.0098-5.32227 19.3701-3.81836Q18.7305-2.31445 17.5928-1.17676Q16.4551-0.0390625 14.9463 0.605469Q13.4375 1.25 11.709 1.25ZM7.39258-7.04102Q7.39258-6.68945 7.62695-6.46484Q7.86133-6.24023 8.23242-6.24023L10.8789-6.24023L10.8789-3.57422Q10.8789-3.21289 11.1035-2.9834Q11.3281-2.75391 11.6797-2.75391Q12.0508-2.75391 12.2852-2.9834Q12.5195-3.21289 12.5195-3.57422L12.5195-6.24023L15.1758-6.24023Q15.5371-6.24023 15.7715-6.46484Q16.0059-6.68945 16.0059-7.04102Q16.0059-7.41211 15.7715-7.6416Q15.5371-7.87109 15.1758-7.87109L12.5195-7.87109L12.5195-10.5176Q12.5195-10.8984 12.2852-11.1279Q12.0508-11.3574 11.6797-11.3574Q11.3281-11.3574 11.1035-11.1279Q10.8789-10.8984 10.8789-10.5176L10.8789-7.87109L8.23242-7.87109Q7.85156-7.87109 7.62207-7.6416Q7.39258-7.41211 7.39258-7.04102Z"/>
  </g>
  <g transform="matrix(1 0 0 1 305.646 1933)">
   <path d="M14.9707 5.66406Q17.0605 5.66406 18.96 5.01465Q20.8594 4.36523 22.4512 3.19336Q24.043 2.02148 25.2197 0.429688Q26.3965-1.16211 27.0459-3.06641Q27.6953-4.9707 27.6953-7.05078Q27.6953-9.14062 27.0459-11.04Q26.3965-12.9395 25.2197-14.5312Q24.043-16.123 22.4512-17.2998Q20.8594-18.4766 18.9551-19.126Q17.0508-19.7754 14.9609-19.7754Q12.8711-19.7754 10.9717-19.126Q9.07227-18.4766 7.48535-17.2998Q5.89844-16.123 4.72168-14.5312Q3.54492-12.9395 2.90039-11.04Q2.25586-9.14062 2.25586-7.05078Q2.25586-4.9707 2.90527-3.06641Q3.55469-1.16211 4.72656 0.429688Q5.89844 2.02148 7.49023 3.19336Q9.08203 4.36523 10.9814 5.01465Q12.8809 5.66406 14.9707 5.66406ZM14.9707 3.84766Q13.1641 3.84766 11.5283 3.2959Q9.89258 2.74414 8.53516 1.74805Q7.17773 0.751953 6.17676-0.610352Q5.17578-1.97266 4.62891-3.6084Q4.08203-5.24414 4.08203-7.05078Q4.08203-8.86719 4.62891-10.5029Q5.17578-12.1387 6.17188-13.501Q7.16797-14.8633 8.52539-15.8594Q9.88281-16.8555 11.5186-17.4023Q13.1543-17.9492 14.9609-17.9492Q16.7773-17.9492 18.4131-17.4023Q20.0488-16.8555 21.4111-15.8594Q22.7734-14.8633 23.7695-13.501Q24.7656-12.1387 25.3174-10.5029Q25.8691-8.86719 25.8691-7.05078Q25.8789-5.24414 25.332-3.6084Q24.7852-1.97266 23.7842-0.610352Q22.7832 0.751953 21.4209 1.74805Q20.0586 2.74414 18.4229 3.2959Q16.7871 3.84766 14.9707 3.84766ZM9.45312-7.04102Q9.45312-6.66016 9.71191-6.41113Q9.9707-6.16211 10.3711-6.16211L14.0625-6.16211L14.0625-2.46094Q14.0625-2.06055 14.3115-1.80664Q14.5605-1.55273 14.9414-1.55273Q15.3516-1.55273 15.6055-1.80664Q15.8594-2.06055 15.8594-2.46094L15.8594-6.16211L19.5605-6.16211Q19.9609-6.16211 20.2148-6.41113Q20.4688-6.66016 20.4688-7.04102Q20.4688-7.45117 20.2148-7.70508Q19.9609-7.95898 19.5605-7.95898L15.8594-7.95898L15.8594-11.6504Q15.8594-12.0605 15.6055-12.3145Q15.3516-12.5684 14.9414-12.5684Q14.5605-12.5684 14.3115-12.3096Q14.0625-12.0508 14.0625-11.6504L14.0625-7.95898L10.3711-7.95898Q9.96094-7.95898 9.70703-7.70508Q9.45312-7.45117 9.45312-7.04102Z"/>
  </g>
  <text style="stroke:none;fill:black;font-family:sans-serif;font-size:13;font-weight:bold;" transform="matrix(1 0 0 1 263 1953)">Design Variations</text>
  <text style="stroke:none;fill:black;font-family:sans-serif;font-size:13;" transform="matrix(1 0 0 1 263 1971)">Symbols are supported in up to nine weights and three scales.</text>
  <text style="stroke:none;fill:black;font-family:sans-serif;font-size:13;" transform="matrix(1 0 0 1 263 1989)">For optimal layout with text and other symbols, vertically align</text>
  <text style="stroke:none;fill:black;font-family:sans-serif;font-size:13;" transform="matrix(1 0 0 1 263 2007)">symbols with the adjacent text.</text>
  <line style="fill:none;stroke:#00AEEF;stroke-width:0.5;opacity:1.0;" x1="776" x2="776" y1="1919" y2="1933"/>
  <g transform="matrix(1 0 0 1 776 1933)">
   <path d="M3.31055 0.15625Q3.70117 0.15625 3.91602-0.00976562Q4.13086-0.175781 4.26758-0.585938L5.52734-4.0332L11.2891-4.0332L12.5488-0.585938Q12.6855-0.175781 12.9004-0.00976562Q13.1152 0.15625 13.4961 0.15625Q13.8867 0.15625 14.1162-0.0585938Q14.3457-0.273438 14.3457-0.644531Q14.3457-0.869141 14.2383-1.17188L9.6582-13.3691Q9.48242-13.8184 9.17969-14.043Q8.87695-14.2676 8.4082-14.2676Q7.5-14.2676 7.17773-13.3789L2.59766-1.16211Q2.49023-0.859375 2.49023-0.634766Q2.49023-0.263672 2.70996-0.0537109Q2.92969 0.15625 3.31055 0.15625ZM6.00586-5.51758L8.37891-12.0898L8.42773-12.0898L10.8008-5.51758Z"/>
  </g>
  <line style="fill:none;stroke:#00AEEF;stroke-width:0.5;opacity:1.0;" x1="793.197" x2="793.197" y1="1919" y2="1933"/>
  <text style="stroke:none;fill:black;font-family:sans-serif;font-size:13;font-weight:bold;" transform="matrix(1 0 0 1 776 1953)">Margins</text>
  <text style="stroke:none;fill:black;font-family:sans-serif;font-size:13;" transform="matrix(1 0 0 1 776 1971)">Leading and trailing margins on the left and right side of each symbol</text>
  <text style="stroke:none;fill:black;font-family:sans-serif;font-size:13;" transform="matrix(1 0 0 1 776 1989)">can be adjusted by modifying the x-location of the margin guidelines.</text>
  <text style="stroke:none;fill:black;font-family:sans-serif;font-size:13;" transform="matrix(1 0 0 1 776 2007)">Modifications are automatically applied proportionally to all</text>
  <text style="stroke:none;fill:black;font-family:sans-serif;font-size:13;" transform="matrix(1 0 0 1 776 2025)">scales and weights.</text>
  <g transform="matrix(1 0 0 1 1289 1933)">
   <path d="M2.8418 1.86523L4.54102 3.57422Q5.18555 4.22852 5.90332 4.17969Q6.62109 4.13086 7.31445 3.35938L18.0078-8.42773L17.041-9.4043L6.42578 2.27539Q6.16211 2.57812 5.89355 2.61719Q5.625 2.65625 5.27344 2.30469L4.10156 1.14258Q3.75 0.791016 3.79395 0.522461Q3.83789 0.253906 4.14062-0.0195312L15.6152-10.8203L14.6387-11.7871L3.04688-0.898438Q2.30469-0.214844 2.25098 0.498047Q2.19727 1.21094 2.8418 1.86523ZM9.25781-16.3281Q8.94531-16.0254 8.90625-15.6348Q8.86719-15.2441 9.04297-14.9512Q9.21875-14.6777 9.55566-14.541Q9.89258-14.4043 10.3809-14.5215Q11.4746-14.7754 12.5977-14.7314Q13.7207-14.6875 14.7949-13.9844L14.209-12.5293Q13.9551-11.9043 14.0674-11.4404Q14.1797-10.9766 14.5801-10.5664L16.875-8.25195Q17.2363-7.88086 17.5781-7.82227Q17.9199-7.76367 18.3398-7.8418L19.4043-8.03711L20.0684-7.36328L20.0293-6.80664Q20-6.43555 20.1221-6.12305Q20.2441-5.81055 20.6055-5.44922L21.3672-4.70703Q21.7285-4.3457 22.1533-4.33105Q22.5781-4.31641 22.9297-4.66797L25.8398-7.58789Q26.1914-7.93945 26.1816-8.35449Q26.1719-8.76953 25.8105-9.13086L25.0391-9.89258Q24.6875-10.2539 24.3799-10.3857Q24.0723-10.5176 23.7109-10.4883L23.1348-10.4395L22.4902-11.0742L22.7344-12.1973Q22.832-12.6172 22.6953-12.9834Q22.5586-13.3496 22.1191-13.7891L19.9219-15.9766Q18.6719-17.2168 17.2607-17.8369Q15.8496-18.457 14.4189-18.4814Q12.9883-18.5059 11.665-17.959Q10.3418-17.4121 9.25781-16.3281ZM10.752-15.957Q11.6602-16.6211 12.7002-16.9043Q13.7402-17.1875 14.8047-17.085Q15.8691-16.9824 16.8701-16.5137Q17.8711-16.0449 18.7012-15.2051L21.1328-12.793Q21.3086-12.6172 21.3525-12.4512Q21.3965-12.2852 21.3379-12.0312L21.0156-10.5469L22.5195-9.0625L23.5059-9.12109Q23.6914-9.13086 23.7891-9.09668Q23.8867-9.0625 24.0332-8.91602L24.6094-8.33984L22.168-5.89844L21.5918-6.47461Q21.4453-6.62109 21.4062-6.71875Q21.3672-6.81641 21.377-7.01172L21.4453-7.98828L19.9512-9.47266L18.4277-9.21875Q18.1836-9.16992 18.042-9.2041Q17.9004-9.23828 17.7148-9.41406L15.7129-11.416Q15.5176-11.5918 15.4932-11.7529Q15.4688-11.9141 15.5859-12.1875L16.4648-14.2773Q15.293-15.3711 13.8281-15.791Q12.3633-16.2109 10.8398-15.7617Q10.7227-15.7324 10.6885-15.8057Q10.6543-15.8789 10.752-15.957Z"/>
  </g>
  <text style="stroke:none;fill:black;font-family:sans-serif;font-size:13;font-weight:bold;" transform="matrix(1 0 0 1 1289 1953)">Exporting</text>
  <text style="stroke:none;fill:black;font-family:sans-serif;font-size:13;" transform="matrix(1 0 0 1 1289 1971)">Symbols should be outlined when exporting to ensure the</text>
  <text style="stroke:none;fill:black;font-family:sans-serif;font-size:13;" transform="matrix(1 0 0 1 1289 1989)">design is preserved when submitting to Xcode.</text>
  <text id="template-version" style="stroke:none;fill:black;font-family:sans-serif;font-size:13;text-anchor:end;" transform="matrix(1 0 0 1 3036 1933)">Template v.2.0</text>
  <text style="stroke:none;fill:black;font-family:sans-serif;font-size:13;text-anchor:end;" transform="matrix(1 0 0 1 3036 1951)">Requires Xcode 13 or greater</text>
  <text id="descriptive-name" style="stroke:none;fill:black;font-family:sans-serif;font-size:13;text-anchor:end;" transform="matrix(1 0 0 1 3036 1969)">Generated from contextualmenu.and.cursorarrow</text>
  <text style="stroke:none;fill:black;font-family:sans-serif;font-size:13;text-anchor:end;" transform="matrix(1 0 0 1 3036 1987)">Typeset at 100 points</text>
  <text style="stroke:none;fill:black;font-family:sans-serif;font-size:13;" transform="matrix(1 0 0 1 263 726)">Small</text>
  <text style="stroke:none;fill:black;font-family:sans-serif;font-size:13;" transform="matrix(1 0 0 1 263 1156)">Medium</text>
  <text style="stroke:none;fill:black;font-family:sans-serif;font-size:13;" transform="matrix(1 0 0 1 263 1586)">Large</text>
 </g>
 <g id="Guides">
  <g id="H-reference" style="fill:#27AAE1;stroke:none;" transform="matrix(1 0 0 1 339 696)">
   <path d="M0.976562 0L3.66211 0L29.3457-67.1387L30.0293-67.1387L30.0293-70.459L28.125-70.459ZM11.6699-24.4629L46.9727-24.4629L46.2402-26.709L12.4512-26.709ZM55.127 0L57.7637 0L30.6152-70.459L29.4434-70.459L29.4434-67.1387Z"/>
  </g>
  <line id="Baseline-S" style="fill:none;stroke:#27AAE1;opacity:1;stroke-width:0.5;" x1="263" x2="3036" y1="696" y2="696"/>
  <line id="Capline-S" style="fill:none;stroke:#27AAE1;opacity:1;stroke-width:0.5;" x1="263" x2="3036" y1="625.541" y2="625.541"/>
  <g id="H-reference" style="fill:#27AAE1;stroke:none;" transform="matrix(1 0 0 1 339 1126)">
   <path d="M0.976562 0L3.66211 0L29.3457-67.1387L30.0293-67.1387L30.0293-70.459L28.125-70.459ZM11.6699-24.4629L46.9727-24.4629L46.2402-26.709L12.4512-26.709ZM55.127 0L57.7637 0L30.6152-70.459L29.4434-70.459L29.4434-67.1387Z"/>
  </g>
  <line id="Baseline-M" style="fill:none;stroke:#27AAE1;opacity:1;stroke-width:0.5;" x1="263" x2="3036" y1="1126" y2="1126"/>
  <line id="Capline-M" style="fill:none;stroke:#27AAE1;opacity:1;stroke-width:0.5;" x1="263" x2="3036" y1="1055.54" y2="1055.54"/>
  <g id="H-reference" style="fill:#27AAE1;stroke:none;" transform="matrix(1 0 0 1 339 1556)">
   <path d="M0.976562 0L3.66211 0L29.3457-67.1387L30.0293-67.1387L30.0293-70.459L28.125-70.459ZM11.6699-24.4629L46.9727-24.4629L46.2402-26.709L12.4512-26.709ZM55.127 0L57.7637 0L30.6152-70.459L29.4434-70.459L29.4434-67.1387Z"/>
  </g>
  <line id="Baseline-L" style="fill:none;stroke:#27AAE1;opacity:1;stroke-width:0.5;" x1="263" x2="3036" y1="1556" y2="1556"/>
  <line id="Capline-L" style="fill:none;stroke:#27AAE1;opacity:1;stroke-width:0.5;" x1="263" x2="3036" y1="1485.54" y2="1485.54"/>
  <line id="left-margin" style="fill:none;stroke:#00AEEF;stroke-width:0.5;opacity:1.0;" x1="1389.15" x2="1389.15" y1="1030.79" y2="1150.12"/>
  <line id="right-margin" style="fill:none;stroke:#00AEEF;stroke-width:0.5;opacity:1.0;" x1="1510.54" x2="1510.54" y1="1030.79" y2="1150.12"/>
 </g>
 <g id="Symbols">
  <g id="Black-L" transform="matrix(1 0 0 1 2852.54 1556)">
   <path d="M54.1016 26.5137L121.875 26.5137Q133.252 26.5137 139.453 20.2881Q145.654 14.0625 145.654 2.63672L145.654-72.998Q145.654-84.4238 139.453-90.6494Q133.252-96.875 121.875-96.875L64.4531-96.875L84.8145-76.6113L118.994-76.6602Q122.412-76.6602 123.926-75.0488Q125.439-73.4375 125.439-70.2637L125.439-0.0976562Q125.439 3.07617 123.926 4.6875Q122.412 6.29883 118.994 6.29883L56.9336 6.29883Q53.5645 6.29883 52.0508 4.6875Q50.5371 3.07617 50.5371-0.0976562L50.5371-37.7441L30.2734-37.7441L30.2734 2.63672Q30.2734 14.0625 36.499 20.2881Q42.7246 26.5137 54.1016 26.5137ZM69.0918-53.418L106.396-53.418Q108.301-53.418 109.595-54.7363Q110.889-56.0547 110.889-58.0078Q110.889-59.8633 109.595-61.1328Q108.301-62.4023 106.396-62.4023L69.0918-62.4023Q67.0898-62.4023 65.7959-61.1328Q64.502-59.8633 64.502-58.0078Q64.502-56.0547 65.7959-54.7363Q67.0898-53.418 69.0918-53.418ZM69.0918-30.6152L106.396-30.6152Q108.301-30.6152 109.595-31.958Q110.889-33.3008 110.889-35.2051Q110.889-37.0605 109.595-38.3545Q108.301-39.6484 106.396-39.6484L69.0918-39.6484Q67.0898-39.6484 65.7959-38.3545Q64.502-37.0605 64.502-35.2051Q64.502-33.3008 65.7959-31.958Q67.0898-30.6152 69.0918-30.6152ZM69.0918-7.95898L106.396-7.95898Q108.301-7.95898 109.595-9.22852Q110.889-10.498 110.889-12.3535Q110.889-14.3066 109.595-15.625Q108.301-16.9434 106.396-16.9434L69.0918-16.9434Q67.0898-16.9434 65.7959-15.625Q64.502-14.3066 64.502-12.3535Q64.502-10.498 65.7959-9.22852Q67.0898-7.95898 69.0918-7.95898ZM15.1367-65.7715Q15.0879-63.8672 16.2598-62.8174Q17.4316-61.7676 19.0186-61.8164Q20.6055-61.8652 21.875-63.2324L28.8086-70.752L37.2559-49.6094Q37.9395-47.9004 39.3555-46.9727Q40.7715-46.0449 42.9199-46.7773L49.3164-49.1211Q51.5137-49.9023 51.6602-51.709Q51.8066-53.5156 51.3184-54.7363L42.041-75.9766L52.6855-75.8301Q54.541-75.7324 55.6396-76.8066Q56.7383-77.8809 56.8115-79.3945Q56.8848-80.9082 55.5664-82.2266L22.2656-115.576Q20.4102-117.432 18.2617-116.577Q16.1133-115.723 16.0645-113.086Z"/>
  </g>
  <g id="Heavy-L" transform="matrix(1 0 0 1 2556.66 1556)">
   <path d="M53.7598 25.4883L121.387 25.4883Q132.275 25.4883 138.135 19.6045Q143.994 13.7207 143.994 2.7832L143.994-73.1445Q143.994-84.082 138.135-89.9658Q132.275-95.8496 121.387-95.8496L63.1836-95.8496L80.8105-78.3203L119.092-78.3691Q122.949-78.3691 124.731-76.4893Q126.514-74.6094 126.514-70.9961L126.514 0.634766Q126.514 4.29688 124.731 6.15234Q122.949 8.00781 119.092 8.00781L56.0059 8.00781Q52.1973 8.00781 50.415 6.15234Q48.6328 4.29688 48.6328 0.634766L48.6328-39.3555L31.1035-39.3555L31.1035 2.7832Q31.1035 13.7207 36.9629 19.6045Q42.8223 25.4883 53.7598 25.4883ZM67.5293-54.2969L106.982-54.2969Q108.789-54.2969 110.01-55.542Q111.23-56.7871 111.23-58.6426Q111.23-60.3516 110.01-61.5723Q108.789-62.793 106.982-62.793L67.5293-62.793Q65.625-62.793 64.4287-61.5723Q63.2324-60.3516 63.2324-58.6426Q63.2324-56.7871 64.4287-55.542Q65.625-54.2969 67.5293-54.2969ZM67.5293-30.9082L106.982-30.9082Q108.789-30.9082 110.01-32.1533Q111.23-33.3984 111.23-35.2051Q111.23-36.9629 110.01-38.1836Q108.789-39.4043 106.982-39.4043L67.5293-39.4043Q65.625-39.4043 64.4287-38.1836Q63.2324-36.9629 63.2324-35.2051Q63.2324-33.3984 64.4287-32.1533Q65.625-30.9082 67.5293-30.9082ZM67.5293-7.56836L106.982-7.56836Q108.789-7.56836 110.01-8.76465Q111.23-9.96094 111.23-11.7188Q111.23-13.5742 110.01-14.8193Q108.789-16.0645 106.982-16.0645L67.5293-16.0645Q65.625-16.0645 64.4287-14.8193Q63.2324-13.5742 63.2324-11.7188Q63.2324-9.96094 64.4287-8.76465Q65.625-7.56836 67.5293-7.56836ZM15.4785-66.1621Q15.4297-64.4531 16.5039-63.5254Q17.5781-62.5977 19.0186-62.6221Q20.459-62.6465 21.582-63.8672L29.1992-71.9727L38.2324-49.3652Q38.8672-47.8516 40.1367-47.0459Q41.4062-46.2402 43.2129-46.9238L49.4629-49.2188Q51.3184-49.9023 51.4893-51.4893Q51.6602-53.0762 51.2207-54.1992L41.4062-76.7578L52.832-76.709Q54.541-76.6113 55.5176-77.5879Q56.4941-78.5645 56.5674-79.9316Q56.6406-81.2988 55.4199-82.4707L21.875-116.504Q20.2148-118.164 18.2617-117.383Q16.3086-116.602 16.2598-114.209Z"/>
  </g>
  <g id="Bold-L" transform="matrix(1 0 0 1 2260.88 1556)">
   <path d="M53.3691 24.3652L120.85 24.3652Q131.201 24.3652 136.67 18.8721Q142.139 13.3789 142.139 2.92969L142.139-73.291Q142.139-83.6914 136.67-89.209Q131.201-94.7266 120.85-94.7266L61.7676-94.7266L76.3184-80.2734L119.189-80.2734Q123.535-80.2734 125.635-78.125Q127.734-75.9766 127.734-71.8262L127.734 1.51367Q127.734 5.61523 125.635 7.78809Q123.535 9.96094 119.189 9.96094L54.9805 9.96094Q50.6836 9.96094 48.584 7.78809Q46.4844 5.61523 46.4844 1.51367L46.4844-41.1621L32.0312-41.1621L32.0312 2.92969Q32.0312 13.3789 37.5 18.8721Q42.9688 24.3652 53.3691 24.3652ZM65.8203-55.3223L107.617-55.3223Q109.326-55.3223 110.449-56.4697Q111.572-57.6172 111.572-59.3262Q111.572-60.9375 110.449-62.0605Q109.326-63.1836 107.617-63.1836L65.8203-63.1836Q64.0625-63.1836 62.915-62.0605Q61.7676-60.9375 61.7676-59.3262Q61.7676-57.6172 62.915-56.4697Q64.0625-55.3223 65.8203-55.3223ZM65.8203-31.2012L107.617-31.2012Q109.326-31.2012 110.449-32.373Q111.572-33.5449 111.572-35.2051Q111.572-36.8652 110.449-37.9883Q109.326-39.1113 107.617-39.1113L65.8203-39.1113Q64.0625-39.1113 62.915-37.9883Q61.7676-36.8652 61.7676-35.2051Q61.7676-33.5449 62.915-32.373Q64.0625-31.2012 65.8203-31.2012ZM65.8203-7.17773L107.617-7.17773Q109.326-7.17773 110.449-8.30078Q111.572-9.42383 111.572-11.0352Q111.572-12.7441 110.449-13.8916Q109.326-15.0391 107.617-15.0391L65.8203-15.0391Q64.0625-15.0391 62.915-13.8916Q61.7676-12.7441 61.7676-11.0352Q61.7676-9.42383 62.915-8.30078Q64.0625-7.17773 65.8203-7.17773ZM15.8691-66.6504Q15.8203-65.1367 16.748-64.3066Q17.6758-63.4766 18.9453-63.5254Q20.2148-63.5742 21.2402-64.5996L29.5898-73.291L39.3555-49.0234Q39.8438-47.8027 40.9424-47.1436Q42.041-46.4844 43.5547-47.0215L49.6094-49.3652Q51.0742-49.9023 51.2939-51.2207Q51.5137-52.5391 51.0742-53.5645L40.6738-77.5879L52.9785-77.6367Q54.4922-77.6367 55.3467-78.4668Q56.2012-79.2969 56.2744-80.4932Q56.3477-81.6895 55.2734-82.7637L21.4355-117.48Q19.9219-118.994 18.1885-118.311Q16.4551-117.627 16.4062-115.479Z"/>
  </g>
  <g id="Semibold-L" transform="matrix(1 0 0 1 1964.8 1556)">
   <path d="M53.0762 23.584L120.459 23.584Q130.469 23.584 135.669 18.3594Q140.869 13.1348 140.869 3.02734L140.869-73.3887Q140.869-83.4473 135.669-88.6719Q130.469-93.8965 120.459-93.8965L60.791-93.8965L73.2422-81.5918L119.238-81.5918Q123.926-81.5918 126.221-79.2236Q128.516-76.8555 128.516-72.4121L128.516 2.05078Q128.516 6.54297 126.221 8.91113Q123.926 11.2793 119.238 11.2793L54.248 11.2793Q49.6582 11.2793 47.3389 8.91113Q45.0195 6.54297 45.0195 2.05078L45.0195-42.3828L32.666-42.3828L32.666 3.02734Q32.666 13.1348 37.8662 18.3594Q43.0664 23.584 53.0762 23.584ZM64.5996-56.0059L108.057-56.0059Q109.668-56.0059 110.742-57.1045Q111.816-58.2031 111.816-59.7656Q111.816-61.3281 110.742-62.4023Q109.668-63.4766 108.057-63.4766L64.5996-63.4766Q62.9395-63.4766 61.8652-62.4023Q60.791-61.3281 60.791-59.7656Q60.791-58.2031 61.8652-57.1045Q62.9395-56.0059 64.5996-56.0059ZM64.5996-31.3965L108.057-31.3965Q109.668-31.3965 110.742-32.5195Q111.816-33.6426 111.816-35.2051Q111.816-36.7676 110.742-37.8174Q109.668-38.8672 108.057-38.8672L64.5996-38.8672Q62.9395-38.8672 61.8652-37.8174Q60.791-36.7676 60.791-35.2051Q60.791-33.6426 61.8652-32.5195Q62.9395-31.3965 64.5996-31.3965ZM64.5996-6.88477L108.057-6.88477Q109.668-6.88477 110.742-7.93457Q111.816-8.98438 111.816-10.5469Q111.816-12.1582 110.742-13.2568Q109.668-14.3555 108.057-14.3555L64.5996-14.3555Q62.9395-14.3555 61.8652-13.2568Q60.791-12.1582 60.791-10.5469Q60.791-8.98438 61.8652-7.93457Q62.9395-6.88477 64.5996-6.88477ZM16.1133-66.9434Q16.0645-65.5762 16.9189-64.8438Q17.7734-64.1113 18.9209-64.1357Q20.0684-64.1602 20.9961-65.0391L29.8828-74.1699L40.0879-48.8281Q40.5762-47.7051 41.5527-47.168Q42.5293-46.6309 43.75-47.1191L49.707-49.4141Q50.9277-49.9023 51.1719-51.0254Q51.416-52.1484 51.0254-53.0762L40.1367-78.125L53.125-78.2715Q54.4434-78.2715 55.2246-79.0283Q56.0059-79.7852 56.0791-80.8838Q56.1523-81.9824 55.1758-82.959L21.0938-118.164Q19.7754-119.531 18.1885-118.896Q16.6016-118.262 16.5527-116.357Z"/>
  </g>
  <g id="Medium-L" transform="matrix(1 0 0 1 1668.58 1556)">
   <path d="M52.8809 22.998L120.166 22.998Q129.883 22.998 134.888 17.9688Q139.893 12.9395 139.893 3.125L139.893-73.4375Q139.893-83.2031 134.888-88.2568Q129.883-93.3105 120.166-93.3105L60.0586-93.3105L70.8984-82.5684L119.287-82.5684Q124.219-82.5684 126.685-80.0537Q129.15-77.5391 129.15-72.8027L129.15 2.49023Q129.15 7.22656 126.685 9.74121Q124.219 12.2559 119.336 12.2559L53.7109 12.2559Q48.8281 12.2559 46.3623 9.74121Q43.8965 7.22656 43.8965 2.49023L43.8965-43.3594L33.1543-43.3594L33.1543 3.125Q33.1543 12.9395 38.1348 17.9688Q43.1152 22.998 52.8809 22.998ZM63.6719-56.4941L108.398-56.4941Q109.961-56.4941 110.986-57.5439Q112.012-58.5938 112.012-60.1074Q112.012-61.6211 110.986-62.6465Q109.961-63.6719 108.398-63.6719L63.6719-63.6719Q62.0605-63.6719 61.0352-62.6465Q60.0098-61.6211 60.0098-60.1074Q60.0098-58.5938 61.0352-57.5439Q62.0605-56.4941 63.6719-56.4941ZM63.6719-31.5918L108.398-31.5918Q109.961-31.5918 110.986-32.6416Q112.012-33.6914 112.012-35.2051Q112.012-36.7188 110.986-37.7197Q109.961-38.7207 108.398-38.7207L63.6719-38.7207Q62.0605-38.7207 61.0352-37.7197Q60.0098-36.7188 60.0098-35.2051Q60.0098-33.6914 61.0352-32.6416Q62.0605-31.5918 63.6719-31.5918ZM63.6719-6.68945L108.398-6.68945Q109.961-6.68945 110.986-7.69043Q112.012-8.69141 112.012-10.2051Q112.012-11.7188 110.986-12.7686Q109.961-13.8184 108.398-13.8184L63.6719-13.8184Q62.0605-13.8184 61.0352-12.7686Q60.0098-11.7188 60.0098-10.2051Q60.0098-8.69141 61.0352-7.69043Q62.0605-6.68945 63.6719-6.68945ZM16.2598-67.1875Q16.2109-65.918 17.0166-65.2344Q17.8223-64.5508 18.8721-64.5996Q19.9219-64.6484 20.752-65.4297L30.0293-74.8535L40.625-48.6328Q41.0645-47.7051 41.9434-47.2412Q42.8223-46.7773 43.8965-47.168L49.7559-49.4629Q50.7812-49.9023 51.0498-50.8789Q51.3184-51.8555 50.8789-52.7832L39.7461-78.5645L53.125-78.8086Q54.3945-78.8086 55.127-79.5166Q55.8594-80.2246 55.9082-81.2012Q55.957-82.1777 55.0781-83.1055L20.8496-118.701Q19.5801-119.971 18.1152-119.385Q16.6504-118.799 16.6016-116.992Z"/>
  </g>
  <g id="Regular-L" transform="matrix(1 0 0 1 1372.5 1556)">
   <path d="M52.5879 22.2168L119.775 22.2168Q129.15 22.2168 133.887 17.4561Q138.623 12.6953 138.623 3.22266L138.623-73.5352Q138.623-82.959 133.887-87.7441Q129.15-92.5293 119.775-92.5293L59.082-92.5293L67.8223-83.8867L119.336-83.8867Q124.609-83.8867 127.295-81.1768Q129.98-78.4668 129.98-73.3887L129.98 3.07617Q129.98 8.1543 127.295 10.8643Q124.609 13.5742 119.385 13.5742L52.9785 13.5742Q47.8027 13.5742 45.1172 10.8643Q42.4316 8.1543 42.4316 3.07617L42.4316-44.5801L33.7891-44.5801L33.7891 3.22266Q33.7891 12.6953 38.501 17.4561Q43.2129 22.2168 52.5879 22.2168ZM62.5-57.1777L108.838-57.1777Q110.303-57.1777 111.279-58.1787Q112.256-59.1797 112.256-60.5957Q112.256-62.0117 111.279-62.9883Q110.303-63.9648 108.838-63.9648L62.5-63.9648Q60.9863-63.9648 60.0098-62.9883Q59.0332-62.0117 59.0332-60.5957Q59.0332-59.1797 60.0098-58.1787Q60.9863-57.1777 62.5-57.1777ZM62.5-31.7871L108.838-31.7871Q110.303-31.7871 111.279-32.7881Q112.256-33.7891 112.256-35.2051Q112.256-36.6211 111.279-37.5732Q110.303-38.5254 108.838-38.5254L62.5-38.5254Q60.9863-38.5254 60.0098-37.5732Q59.0332-36.6211 59.0332-35.2051Q59.0332-33.7891 60.0098-32.7881Q60.9863-31.7871 62.5-31.7871ZM62.5-6.39648L108.838-6.39648Q110.303-6.39648 111.279-7.34863Q112.256-8.30078 112.256-9.7168Q112.256-11.1328 111.279-12.1338Q110.303-13.1348 108.838-13.1348L62.5-13.1348Q60.9863-13.1348 60.0098-12.1338Q59.0332-11.1328 59.0332-9.7168Q59.0332-8.30078 60.0098-7.34863Q60.9863-6.39648 62.5-6.39648ZM16.5527-67.4805Q16.5039-66.3574 17.2119-65.7715Q17.9199-65.1855 18.8721-65.21Q19.8242-65.2344 20.5566-65.918L30.3223-75.7812L41.4062-48.4375Q41.748-47.6562 42.5293-47.29Q43.3105-46.9238 44.1406-47.2656L49.8535-49.5605Q50.6348-49.9023 50.9277-50.708Q51.2207-51.5137 50.8301-52.3438L39.2578-79.1504L53.2715-79.4434Q54.3945-79.4922 55.0293-80.1025Q55.6641-80.7129 55.7129-81.5918Q55.7617-82.4707 54.9805-83.3008L20.5566-119.385Q19.4336-120.508 18.1152-119.995Q16.7969-119.482 16.748-117.871Z"/>
  </g>
  <g id="Light-L" transform="matrix(1 0 0 1 1077.08 1556)">
   <path d="M50.5859 21.4355L118.164 21.4355Q127.002 21.4355 131.519 16.8945Q136.035 12.3535 136.035 3.4668L136.035-73.7305Q136.035-82.6172 131.519-87.1582Q127.002-91.6992 118.164-91.6992L56.8848-91.6992L63.4277-85.0586L117.822-85.0586Q123.535-85.0586 126.465-82.1289Q129.395-79.1992 129.395-73.584L129.395 3.27148Q129.395 8.88672 126.465 11.8408Q123.535 14.7949 117.822 14.7949L50.8789 14.7949Q45.2148 14.7949 42.2852 11.8408Q39.3555 8.88672 39.3555 3.27148L39.3555-47.9492L32.7148-47.9492L32.7148 3.4668Q32.7148 12.3535 37.2314 16.8945Q41.748 21.4355 50.5859 21.4355ZM60.9375-58.8379L107.275-58.8379Q108.447-58.8379 109.253-59.6191Q110.059-60.4004 110.059-61.5723Q110.059-62.6953 109.253-63.4766Q108.447-64.2578 107.275-64.2578L60.9375-64.2578Q59.7656-64.2578 58.96-63.4766Q58.1543-62.6953 58.1543-61.5723Q58.1543-60.4004 58.96-59.6191Q59.7656-58.8379 60.9375-58.8379ZM60.9375-32.4219L107.275-32.4219Q108.447-32.4219 109.253-33.2275Q110.059-34.0332 110.059-35.1562Q110.059-36.2793 109.253-37.0605Q108.447-37.8418 107.275-37.8418L60.9375-37.8418Q59.7656-37.8418 58.96-37.0605Q58.1543-36.2793 58.1543-35.1562Q58.1543-34.0332 58.96-33.2275Q59.7656-32.4219 60.9375-32.4219ZM60.9375-6.05469L107.275-6.05469Q108.447-6.05469 109.253-6.81152Q110.059-7.56836 110.059-8.74023Q110.059-9.86328 109.253-10.6689Q108.447-11.4746 107.275-11.4746L60.9375-11.4746Q59.7656-11.4746 58.96-10.6689Q58.1543-9.86328 58.1543-8.74023Q58.1543-7.56836 58.96-6.81152Q59.7656-6.05469 60.9375-6.05469ZM16.7969-67.2363Q16.7969-66.2598 17.4072-65.7471Q18.0176-65.2344 18.8477-65.2344Q19.6777-65.2344 20.3125-65.8691L30.2734-75.9766L41.748-47.7051Q42.0898-46.9727 42.7979-46.6797Q43.5059-46.3867 44.2871-46.6797L49.2188-48.6328Q49.9512-48.9746 50.2197-49.6826Q50.4883-50.3906 50.1465-51.123L38.2812-78.7598L52.8809-78.7109Q53.8574-78.7598 54.3945-79.2969Q54.9316-79.834 54.9805-80.6152Q55.0293-81.3965 54.3945-82.0801L19.9219-119.141Q18.9453-120.117 17.749-119.653Q16.5527-119.189 16.5039-117.773Z"/>
  </g>
  <g id="Thin-L" transform="matrix(1 0 0 1 782.106 1556)">
   <path d="M47.9004 20.3613L115.967 20.3613Q124.121 20.3613 128.345 16.1133Q132.568 11.8652 132.568 3.75977L132.568-73.9746Q132.568-82.1289 128.345-86.3525Q124.121-90.5762 115.967-90.5762L53.9551-90.5762L57.5684-86.6211L115.771-86.6211Q122.168-86.6211 125.415-83.374Q128.662-80.127 128.662-73.8281L128.662 3.56445Q128.662 9.91211 125.391 13.1592Q122.119 16.4062 115.82 16.4062L48.0957 16.4062Q41.748 16.4062 38.501 13.1592Q35.2539 9.91211 35.2539 3.56445L35.2539-52.4414L31.3477-52.4414L31.3477 3.75977Q31.3477 11.8652 35.5469 16.1133Q39.7461 20.3613 47.9004 20.3613ZM58.9355-60.9863L105.273-60.9863Q106.055-60.9863 106.616-61.5234Q107.178-62.0605 107.178-62.8418Q107.178-63.5742 106.616-64.1113Q106.055-64.6484 105.273-64.6484L58.9355-64.6484Q58.1055-64.6484 57.5439-64.1113Q56.9824-63.5742 56.9824-62.8418Q56.9824-62.0605 57.5439-61.5234Q58.1055-60.9863 58.9355-60.9863ZM58.9355-33.252L105.273-33.252Q106.055-33.252 106.616-33.8135Q107.178-34.375 107.178-35.1562Q107.178-35.8887 106.616-36.4258Q106.055-36.9629 105.273-36.9629L58.9355-36.9629Q58.1055-36.9629 57.5439-36.4258Q56.9824-35.8887 56.9824-35.1562Q56.9824-34.375 57.5439-33.8135Q58.1055-33.252 58.9355-33.252ZM58.9355-5.56641L105.273-5.56641Q106.055-5.56641 106.616-6.0791Q107.178-6.5918 107.178-7.37305Q107.178-8.1543 106.616-8.69141Q106.055-9.22852 105.273-9.22852L58.9355-9.22852Q58.1055-9.22852 57.5439-8.69141Q56.9824-8.1543 56.9824-7.37305Q56.9824-6.5918 57.5439-6.0791Q58.1055-5.56641 58.9355-5.56641ZM17.1387-66.8945Q17.1387-66.1133 17.627-65.6738Q18.1152-65.2344 18.7744-65.2344Q19.4336-65.2344 19.9707-65.7715L30.1758-76.2207L42.2363-46.6797Q42.5293-46.0938 43.1396-45.8496Q43.75-45.6055 44.4336-45.8496L48.3887-47.4609Q49.0234-47.6562 49.2676-48.2666Q49.5117-48.877 49.2676-49.5117L36.9141-78.2715L52.3438-77.7344Q53.0762-77.7344 53.54-78.1738Q54.0039-78.6133 54.0527-79.2725Q54.1016-79.9316 53.6133-80.4688L19.0918-118.75Q18.3594-119.58 17.2852-119.165Q16.2109-118.75 16.1621-117.578Z"/>
  </g>
  <g id="Ultralight-L" transform="matrix(1 0 0 1 486.274 1556)">
   <path d="M46.5332 19.8242L114.893 19.8242Q122.656 19.8242 126.733 15.7471Q130.811 11.6699 130.811 3.90625L130.811-74.0723Q130.811-81.8848 126.733-85.9375Q122.656-89.9902 114.893-89.9902L52.4414-89.9902L54.5898-87.4512L114.746-87.4512Q121.436-87.4512 124.854-84.0332Q128.271-80.6152 128.271-73.9258L128.271 3.71094Q128.271 10.4004 124.829 13.8184Q121.387 17.2363 114.746 17.2363L46.6797 17.2363Q39.9902 17.2363 36.5723 13.8184Q33.1543 10.4004 33.1543 3.71094L33.1543-54.6875L30.6152-54.6875L30.6152 3.90625Q30.6152 11.6699 34.6924 15.7471Q38.7695 19.8242 46.5332 19.8242ZM57.8613-62.1094L104.199-62.1094Q104.785-62.1094 105.225-62.5Q105.664-62.8906 105.664-63.5254Q105.664-64.0625 105.225-64.4775Q104.785-64.8926 104.199-64.8926L57.8613-64.8926Q57.2754-64.8926 56.8359-64.4775Q56.3965-64.0625 56.3965-63.5254Q56.3965-62.8906 56.8359-62.5Q57.2754-62.1094 57.8613-62.1094ZM57.8613-33.6914L104.199-33.6914Q104.785-33.6914 105.225-34.1064Q105.664-34.5215 105.664-35.1074Q105.664-35.6445 105.225-36.0596Q104.785-36.4746 104.199-36.4746L57.8613-36.4746Q57.2754-36.4746 56.8359-36.0596Q56.3965-35.6445 56.3965-35.1074Q56.3965-34.5215 56.8359-34.1064Q57.2754-33.6914 57.8613-33.6914ZM57.8613-5.32227L104.199-5.32227Q104.785-5.32227 105.225-5.71289Q105.664-6.10352 105.664-6.73828Q105.664-7.27539 105.225-7.69043Q104.785-8.10547 104.199-8.10547L57.8613-8.10547Q57.2754-8.10547 56.8359-7.69043Q56.3965-7.27539 56.3965-6.73828Q56.3965-6.10352 56.8359-5.71289Q57.2754-5.32227 57.8613-5.32227ZM17.334-66.6992Q17.334-66.0156 17.7734-65.625Q18.2129-65.2344 18.7744-65.21Q19.3359-65.1855 19.7754-65.6738L30.127-76.3184L42.4805-46.1914Q42.7246-45.6055 43.3105-45.4102Q43.8965-45.2148 44.5312-45.4102L47.998-46.7773Q48.5352-47.0215 48.7549-47.5586Q48.9746-48.0957 48.7793-48.6816L36.2793-77.9785L52.0996-77.2461Q52.7344-77.1973 53.125-77.5879Q53.5156-77.9785 53.5645-78.5645Q53.6133-79.1504 53.2227-79.6387L18.7012-118.555Q18.0176-119.287 17.0166-118.896Q16.0156-118.506 16.0156-117.48Z"/>
  </g>
  <g id="Black-M" transform="matrix(1 0 0 1 2870.46 1126)">
   <path d="M41.5527 13.2324L94.2871 13.2324Q103.369 13.2324 108.398 8.17871Q113.428 3.125 113.428-5.95703L113.428-64.4531Q113.428-73.5352 108.398-78.5645Q103.369-83.5938 94.2871-83.5938L50.293-83.5938L67.6758-66.2109L91.6504-66.2598Q94.043-66.2598 95.0684-65.1611Q96.0938-64.0625 96.0938-61.8164L96.0938-8.59375Q96.0938-6.34766 95.0684-5.22461Q94.043-4.10156 91.6504-4.10156L44.1895-4.10156Q41.7969-4.10156 40.7715-5.22461Q39.7461-6.34766 39.7461-8.59375L39.7461-36.9141L22.4121-36.9141L22.4121-5.95703Q22.4121 3.125 27.4414 8.17871Q32.4707 13.2324 41.5527 13.2324ZM54.3457-49.1211L81.3965-49.1211Q82.9102-49.1211 83.9111-50.1465Q84.9121-51.1719 84.9121-52.6855Q84.9121-54.1016 83.9111-55.1025Q82.9102-56.1035 81.3965-56.1035L54.3457-56.1035Q52.832-56.1035 51.8066-55.1025Q50.7812-54.1016 50.7812-52.6855Q50.7812-51.1719 51.8066-50.1465Q52.832-49.1211 54.3457-49.1211ZM54.3457-31.6406L81.3965-31.6406Q82.9102-31.6406 83.9111-32.666Q84.9121-33.6914 84.9121-35.2051Q84.9121-36.6699 83.9111-37.6465Q82.9102-38.623 81.3965-38.623L54.3457-38.623Q52.832-38.623 51.8066-37.6465Q50.7812-36.6699 50.7812-35.2051Q50.7812-33.6914 51.8066-32.666Q52.832-31.6406 54.3457-31.6406ZM54.3457-14.3066L81.3965-14.3066Q82.9102-14.3066 83.9111-15.2832Q84.9121-16.2598 84.9121-17.7246Q84.9121-19.2383 83.9111-20.2637Q82.9102-21.2891 81.3965-21.2891L54.3457-21.2891Q52.832-21.2891 51.8066-20.2637Q50.7812-19.2383 50.7812-17.7246Q50.7812-16.2598 51.8066-15.2832Q52.832-14.3066 54.3457-14.3066ZM11.5723-57.373Q11.5234-54.9316 13.5498-54.1992Q15.5762-53.4668 17.1387-55.2246L22.0215-60.6934L28.1738-45.2148Q28.7598-43.75 29.9805-42.9199Q31.2012-42.0898 33.0566-42.7734L37.9395-44.4824Q39.8926-45.166 39.9902-46.7285Q40.0879-48.291 39.6484-49.2676L32.8125-64.9414L40.5762-64.5996Q42.9199-64.4531 43.7744-66.3574Q44.6289-68.2617 43.0176-69.9219L17.4316-95.5078Q15.8691-97.0215 14.0869-96.3135Q12.3047-95.6055 12.2559-93.457Z"/>
  </g>
  <g id="Heavy-M" transform="matrix(1 0 0 1 2574.29 1126)">
   <path d="M41.6504 12.4023L94.1895 12.4023Q102.881 12.4023 107.617 7.6416Q112.354 2.88086 112.354-5.85938L112.354-64.5508Q112.354-73.291 107.617-78.0273Q102.881-82.7637 94.1895-82.7637L49.5117-82.7637L64.6973-67.627L92.041-67.6758Q94.7754-67.6758 96.0205-66.3818Q97.2656-65.0879 97.2656-62.5L97.2656-7.91016Q97.2656-5.32227 96.0205-4.00391Q94.7754-2.68555 92.041-2.68555L43.75-2.68555Q41.0156-2.68555 39.7705-4.00391Q38.5254-5.32227 38.5254-7.91016L38.5254-37.7441L23.4375-37.7441L23.4375-5.85938Q23.4375 2.88086 28.1738 7.6416Q32.9102 12.4023 41.6504 12.4023ZM53.1738-49.6582L82.3242-49.6582Q83.7402-49.6582 84.7168-50.6348Q85.6934-51.6113 85.6934-53.0762Q85.6934-54.4434 84.7168-55.4199Q83.7402-56.3965 82.3242-56.3965L53.1738-56.3965Q51.6602-56.3965 50.6836-55.4199Q49.707-54.4434 49.707-53.0762Q49.707-51.6113 50.6836-50.6348Q51.6602-49.6582 53.1738-49.6582ZM53.1738-31.7871L82.3242-31.7871Q83.7402-31.7871 84.7168-32.7637Q85.6934-33.7402 85.6934-35.2051Q85.6934-36.6211 84.7168-37.5732Q83.7402-38.5254 82.3242-38.5254L53.1738-38.5254Q51.6602-38.5254 50.6836-37.5732Q49.707-36.6211 49.707-35.2051Q49.707-33.7402 50.6836-32.7637Q51.6602-31.7871 53.1738-31.7871ZM53.1738-14.0137L82.3242-14.0137Q83.7402-14.0137 84.7168-14.9658Q85.6934-15.918 85.6934-17.334Q85.6934-18.7988 84.7168-19.7754Q83.7402-20.752 82.3242-20.752L53.1738-20.752Q51.6602-20.752 50.6836-19.7754Q49.707-18.7988 49.707-17.334Q49.707-15.918 50.6836-14.9658Q51.6602-14.0137 53.1738-14.0137ZM11.8164-58.1055Q11.7676-55.9082 13.623-55.249Q15.4785-54.5898 16.8945-56.1523L22.3633-62.0605L29.0039-45.4102Q29.541-44.0918 30.6396-43.4082Q31.7383-42.7246 33.3008-43.3105L38.1836-45.0684Q39.7949-45.6543 39.9414-46.9971Q40.0879-48.3398 39.6484-49.2676L32.373-66.0156L40.7715-65.8691Q42.9199-65.7715 43.6768-67.4805Q44.4336-69.1895 42.9688-70.7031L17.1387-96.7285Q15.7227-98.0957 14.1113-97.4609Q12.5-96.8262 12.4512-94.873Z"/>
  </g>
  <g id="Bold-M" transform="matrix(1 0 0 1 2278.16 1126)">
   <path d="M41.748 11.5234L94.043 11.5234Q102.344 11.5234 106.763 7.08008Q111.182 2.63672 111.182-5.76172L111.182-64.6484Q111.182-72.998 106.763-77.4414Q102.344-81.8848 94.043-81.8848L48.6816-81.8848L61.377-69.2383L92.5293-69.2871Q95.6055-69.2871 97.0947-67.749Q98.584-66.2109 98.584-63.2812L98.584-7.12891Q98.584-4.19922 97.0947-2.66113Q95.6055-1.12305 92.5293-1.12305L43.2617-1.12305Q40.1855-1.12305 38.6963-2.66113Q37.207-4.19922 37.207-7.12891L37.207-38.7207L24.6094-38.7207L24.6094-5.76172Q24.6094 2.63672 29.0039 7.08008Q33.3984 11.5234 41.748 11.5234ZM51.8555-50.2441L83.3496-50.2441Q84.7168-50.2441 85.6689-51.1963Q86.6211-52.1484 86.6211-53.5156Q86.6211-54.8828 85.6689-55.8105Q84.7168-56.7383 83.3496-56.7383L51.8555-56.7383Q50.3906-56.7383 49.4629-55.8105Q48.5352-54.8828 48.5352-53.5156Q48.5352-52.1484 49.4629-51.1963Q50.3906-50.2441 51.8555-50.2441ZM51.8555-31.9336L83.3496-31.9336Q84.7168-31.9336 85.6689-32.8857Q86.6211-33.8379 86.6211-35.2539Q86.6211-36.5723 85.6689-37.5Q84.7168-38.4277 83.3496-38.4277L51.8555-38.4277Q50.3906-38.4277 49.4629-37.5Q48.5352-36.5723 48.5352-35.2539Q48.5352-33.8379 49.4629-32.8857Q50.3906-31.9336 51.8555-31.9336ZM51.8555-13.7207L83.3496-13.7207Q84.7168-13.7207 85.6689-14.624Q86.6211-15.5273 86.6211-16.8945Q86.6211-18.2617 85.6689-19.2383Q84.7168-20.2148 83.3496-20.2148L51.8555-20.2148Q50.3906-20.2148 49.4629-19.2383Q48.5352-18.2617 48.5352-16.8945Q48.5352-15.5273 49.4629-14.624Q50.3906-13.7207 51.8555-13.7207ZM12.1094-58.8867Q12.0605-56.9824 13.7207-56.4209Q15.3809-55.8594 16.6016-57.1777L22.7539-63.623L30.0293-45.6055Q30.4688-44.5312 31.3965-43.9697Q32.3242-43.4082 33.5938-43.8477L38.4766-45.7031Q39.7461-46.1914 39.917-47.3145Q40.0879-48.4375 39.6973-49.2676L31.8848-67.2363L41.0645-67.2852Q42.9199-67.2363 43.6035-68.7256Q44.2871-70.2148 42.9688-71.582L16.8457-98.0957Q15.5762-99.3164 14.1357-98.7549Q12.6953-98.1934 12.6953-96.4355Z"/>
  </g>
  <g id="Semibold-M" transform="matrix(1 0 0 1 1981.87 1126)">
   <path d="M41.7969 10.8887L93.9453 10.8887Q101.953 10.8887 106.152 6.66504Q110.352 2.44141 110.352-5.71289L110.352-64.6973Q110.352-72.8027 106.152-77.0264Q101.953-81.25 93.9453-81.25L48.0957-81.25L59.082-70.3613L92.8223-70.3613Q96.1914-70.3613 97.8271-68.6768Q99.4629-66.9922 99.4629-63.7695L99.4629-6.5918Q99.4629-3.36914 97.8271-1.68457Q96.1914 0 92.8711 0L42.8711 0Q39.5508 0 37.8906-1.68457Q36.2305-3.36914 36.2305-6.5918L36.2305-39.3555L25.3906-39.3555L25.3906-5.71289Q25.3906 2.44141 29.5654 6.66504Q33.7402 10.8887 41.7969 10.8887ZM50.9277-50.6348L84.0332-50.6348Q85.3516-50.6348 86.2793-51.5625Q87.207-52.4902 87.207-53.8086Q87.207-55.127 86.2793-56.0303Q85.3516-56.9336 84.0332-56.9336L50.9277-56.9336Q49.5117-56.9336 48.6084-56.0303Q47.7051-55.127 47.7051-53.8086Q47.7051-52.4902 48.6084-51.5625Q49.5117-50.6348 50.9277-50.6348ZM50.9277-32.0312L84.0332-32.0312Q85.3516-32.0312 86.2793-32.9346Q87.207-33.8379 87.207-35.2539Q87.207-36.5234 86.2793-37.4268Q85.3516-38.3301 84.0332-38.3301L50.9277-38.3301Q49.5117-38.3301 48.6084-37.4268Q47.7051-36.5234 47.7051-35.2539Q47.7051-33.8379 48.6084-32.9346Q49.5117-32.0312 50.9277-32.0312ZM50.9277-13.4766L84.0332-13.4766Q85.3516-13.4766 86.2793-14.3799Q87.207-15.2832 87.207-16.5527Q87.207-17.9199 86.2793-18.8477Q85.3516-19.7754 84.0332-19.7754L50.9277-19.7754Q49.5117-19.7754 48.6084-18.8477Q47.7051-17.9199 47.7051-16.5527Q47.7051-15.2832 48.6084-14.3799Q49.5117-13.4766 50.9277-13.4766ZM12.3535-59.4727Q12.3047-57.7148 13.8184-57.2266Q15.332-56.7383 16.4551-57.8613L23.0469-64.6973L30.7129-45.752Q31.1035-44.8242 31.9336-44.3604Q32.7637-43.8965 33.7891-44.2383L38.6719-46.1426Q39.7461-46.5332 39.917-47.5098Q40.0879-48.4863 39.7461-49.2676L31.5918-68.1152L41.2598-68.2617Q42.9199-68.2617 43.5303-69.6045Q44.1406-70.9473 42.9688-72.168L16.6504-99.0234Q15.5273-100.146 14.209-99.6338Q12.8906-99.1211 12.8418-97.5098Z"/>
  </g>
  <g id="Medium-M" transform="matrix(1 0 0 1 1685.45 1126)">
   <path d="M41.8457 10.4004L93.8965 10.4004Q101.709 10.4004 105.713 6.34766Q109.717 2.29492 109.717-5.61523L109.717-64.7461Q109.717-72.6562 105.713-76.709Q101.709-80.7617 93.8965-80.7617L47.6562-80.7617L57.3242-71.1914L93.0664-71.1914Q96.582-71.1914 98.3643-69.3848Q100.146-67.5781 100.146-64.1602L100.146-6.20117Q100.146-2.7832 98.3643-0.976562Q96.582 0.830078 93.1152 0.830078L42.627 0.830078Q39.1113 0.830078 37.3291-0.976562Q35.5469-2.7832 35.5469-6.20117L35.5469-39.8926L25.9766-39.8926L25.9766-5.61523Q25.9766 2.29492 29.9805 6.34766Q33.9844 10.4004 41.8457 10.4004ZM50.2441-50.9277L84.5703-50.9277Q85.8887-50.9277 86.792-51.8311Q87.6953-52.7344 87.6953-54.0527Q87.6953-55.3223 86.792-56.2256Q85.8887-57.1289 84.5703-57.1289L50.2441-57.1289Q48.8281-57.1289 47.9492-56.2256Q47.0703-55.3223 47.0703-54.0527Q47.0703-52.7344 47.9492-51.8311Q48.8281-50.9277 50.2441-50.9277ZM50.2441-32.0801L84.5703-32.0801Q85.8887-32.0801 86.792-32.9834Q87.6953-33.8867 87.6953-35.2539Q87.6953-36.5234 86.792-37.4023Q85.8887-38.2812 84.5703-38.2812L50.2441-38.2812Q48.8281-38.2812 47.9492-37.4023Q47.0703-36.5234 47.0703-35.2539Q47.0703-33.8867 47.9492-32.9834Q48.8281-32.0801 50.2441-32.0801ZM50.2441-13.2812L84.5703-13.2812Q85.8887-13.2812 86.792-14.1602Q87.6953-15.0391 87.6953-16.3086Q87.6953-17.627 86.792-18.5547Q85.8887-19.4824 84.5703-19.4824L50.2441-19.4824Q48.8281-19.4824 47.9492-18.5547Q47.0703-17.627 47.0703-16.3086Q47.0703-15.0391 47.9492-14.1602Q48.8281-13.2812 50.2441-13.2812ZM12.5-59.8633Q12.4512-58.252 13.8672-57.8125Q15.2832-57.373 16.3086-58.3984L23.291-65.5273L31.25-45.8496Q31.5918-45.0195 32.3486-44.6289Q33.1055-44.2383 33.9355-44.5312L38.8184-46.4844Q39.6973-46.8262 39.8926-47.6562Q40.0879-48.4863 39.7949-49.2676L31.3477-68.7012L41.4062-69.043Q42.9199-69.043 43.5059-70.2637Q44.0918-71.4844 43.0176-72.6074L16.5039-99.7559Q15.4297-100.781 14.209-100.317Q12.9883-99.8535 12.9883-98.3398Z"/>
  </g>
  <g id="Regular-M" transform="matrix(1 0 0 1 1389.15 1126)">
   <path d="M41.8945 9.76562L93.7988 9.76562Q101.318 9.76562 105.103 5.93262Q108.887 2.09961 108.887-5.56641L108.887-64.7949Q108.887-72.4609 105.103-76.2939Q101.318-80.127 93.7988-80.127L47.0703-80.127L55.0781-72.2656L93.3594-72.2656Q97.168-72.2656 99.0967-70.3125Q101.025-68.3594 101.025-64.6973L101.025-5.66406Q101.025-2.00195 99.0967-0.0488281Q97.168 1.9043 93.4082 1.9043L42.2852 1.9043Q38.5254 1.9043 36.5723-0.0488281Q34.6191-2.00195 34.6191-5.66406L34.6191-40.5273L26.7578-40.5273L26.7578-5.56641Q26.7578 2.09961 30.542 5.93262Q34.3262 9.76562 41.8945 9.76562ZM49.3164-51.3184L85.2539-51.3184Q86.5234-51.3184 87.4023-52.1973Q88.2812-53.0762 88.2812-54.3457Q88.2812-55.6152 87.4023-56.4697Q86.5234-57.3242 85.2539-57.3242L49.3164-57.3242Q47.9492-57.3242 47.0947-56.4697Q46.2402-55.6152 46.2402-54.3457Q46.2402-53.0762 47.0947-52.1973Q47.9492-51.3184 49.3164-51.3184ZM49.3164-32.1777L85.2539-32.1777Q86.5234-32.1777 87.4023-33.0566Q88.2812-33.9355 88.2812-35.2539Q88.2812-36.4746 87.4023-37.3291Q86.5234-38.1836 85.2539-38.1836L49.3164-38.1836Q47.9492-38.1836 47.0947-37.3291Q46.2402-36.4746 46.2402-35.2539Q46.2402-33.9355 47.0947-33.0566Q47.9492-32.1777 49.3164-32.1777ZM49.3164-13.0859L85.2539-13.0859Q86.5234-13.0859 87.4023-13.9404Q88.2812-14.7949 88.2812-16.0156Q88.2812-17.2852 87.4023-18.1885Q86.5234-19.0918 85.2539-19.0918L49.3164-19.0918Q47.9492-19.0918 47.0947-18.1885Q46.2402-17.2852 46.2402-16.0156Q46.2402-14.7949 47.0947-13.9404Q47.9492-13.0859 49.3164-13.0859ZM12.6953-60.4004Q12.6465-58.9844 13.916-58.5938Q15.1855-58.2031 16.1133-59.082L23.5352-66.5527L31.8848-45.9473Q32.1777-45.2637 32.8369-44.9707Q33.4961-44.6777 34.1309-44.9219L39.0137-46.875Q39.6484-47.168 39.8682-47.8516Q40.0879-48.5352 39.7949-49.2188L31.0059-69.5312L41.5527-69.9707Q42.9199-70.0195 43.4326-71.0938Q43.9453-72.168 42.9688-73.1934L16.2598-100.635Q15.332-101.562 14.2334-101.147Q13.1348-100.732 13.1348-99.3652Z"/>
  </g>
  <g id="Light-M" transform="matrix(1 0 0 1 1093.61 1126)">
   <path d="M40.0879 9.0332L92.334 9.0332Q99.3652 9.0332 102.954 5.41992Q106.543 1.80664 106.543-5.37109L106.543-64.9414Q106.543-72.1191 102.954-75.7568Q99.3652-79.3945 92.334-79.3945L45.0684-79.3945L51.123-73.3398L91.9922-73.3398Q96.1914-73.3398 98.3398-71.167Q100.488-68.9941 100.488-64.8438L100.488-5.46875Q100.488-1.31836 98.3398 0.830078Q96.1914 2.97852 91.9922 2.97852L40.3809 2.97852Q36.1816 2.97852 34.0332 0.830078Q31.8848-1.31836 31.8848-5.46875L31.8848-43.5547L25.8301-43.5547L25.8301-5.37109Q25.8301 1.80664 29.4189 5.41992Q33.0078 9.0332 40.0879 9.0332ZM47.9492-52.7832L83.8379-52.7832Q84.9121-52.7832 85.5957-53.4912Q86.2793-54.1992 86.2793-55.2246Q86.2793-56.2012 85.5957-56.9092Q84.9121-57.6172 83.8379-57.6172L47.9492-57.6172Q46.8262-57.6172 46.1426-56.9092Q45.459-56.2012 45.459-55.2246Q45.459-54.1992 46.1426-53.4912Q46.8262-52.7832 47.9492-52.7832ZM47.9492-32.7637L83.8379-32.7637Q84.9121-32.7637 85.5957-33.4717Q86.2793-34.1797 86.2793-35.2051Q86.2793-36.1816 85.5957-36.8896Q84.9121-37.5977 83.8379-37.5977L47.9492-37.5977Q46.8262-37.5977 46.1426-36.8896Q45.459-36.1816 45.459-35.2051Q45.459-34.1797 46.1426-33.4717Q46.8262-32.7637 47.9492-32.7637ZM47.9492-12.7441L83.8379-12.7441Q84.9121-12.7441 85.5957-13.4521Q86.2793-14.1602 86.2793-15.1367Q86.2793-16.1133 85.5957-16.8457Q84.9121-17.5781 83.8379-17.5781L47.9492-17.5781Q46.8262-17.5781 46.1426-16.8457Q45.459-16.1133 45.459-15.1367Q45.459-14.1602 46.1426-13.4521Q46.8262-12.7441 47.9492-12.7441ZM12.9395-60.2051Q12.8906-58.9844 13.9893-58.6182Q15.0879-58.252 15.8691-59.0332L23.4863-66.748L32.2266-45.2637Q32.4707-44.6777 33.0566-44.4336Q33.6426-44.1895 34.2285-44.3848L38.4766-46.0449Q39.0137-46.3379 39.2334-46.9482Q39.4531-47.5586 39.209-48.1445L30.127-69.1895L41.2109-69.3359Q42.3828-69.3359 42.8223-70.2881Q43.2617-71.2402 42.4316-72.1191L15.7227-100.391Q14.9414-101.221 13.9404-100.854Q12.9395-100.488 12.9395-99.2676Z"/>
  </g>
  <g id="Thin-M" transform="matrix(1 0 0 1 798.463 1126)">
   <path d="M37.6953 8.05664L90.332 8.05664Q96.8262 8.05664 100.146 4.73633Q103.467 1.41602 103.467-5.12695L103.467-65.1855Q103.467-71.6797 100.146-75.0244Q96.8262-78.3691 90.332-78.3691L42.4316-78.3691L45.8984-74.707L90.1367-74.707Q94.9707-74.707 97.4121-72.2656Q99.8535-69.8242 99.8535-65.0879L99.8535-5.22461Q99.8535-0.439453 97.4121 2.00195Q94.9707 4.44336 90.1855 4.44336L37.8906 4.44336Q33.1055 4.44336 30.6641 2.00195Q28.2227-0.439453 28.2227-5.22461L28.2227-47.6074L24.5605-47.6074L24.5605-5.12695Q24.5605 1.41602 27.9053 4.73633Q31.25 8.05664 37.6953 8.05664ZM46.0938-54.7363L82.0312-54.7363Q82.7148-54.7363 83.2031-55.2002Q83.6914-55.6641 83.6914-56.3477Q83.6914-57.0312 83.2031-57.4951Q82.7148-57.959 82.0312-57.959L46.0938-57.959Q45.3613-57.959 44.8975-57.4951Q44.4336-57.0312 44.4336-56.3477Q44.4336-55.6641 44.8975-55.2002Q45.3613-54.7363 46.0938-54.7363ZM46.0938-33.4961L82.0312-33.4961Q82.7148-33.4961 83.2031-33.9844Q83.6914-34.4727 83.6914-35.1562Q83.6914-35.791 83.2031-36.2793Q82.7148-36.7676 82.0312-36.7676L46.0938-36.7676Q45.3613-36.7676 44.8975-36.2793Q44.4336-35.791 44.4336-35.1562Q44.4336-34.4727 44.8975-33.9844Q45.3613-33.4961 46.0938-33.4961ZM46.0938-12.3535L82.0312-12.3535Q82.7148-12.3535 83.2031-12.8174Q83.6914-13.2812 83.6914-13.9648Q83.6914-14.5996 83.2031-15.0879Q82.7148-15.5762 82.0312-15.5762L46.0938-15.5762Q45.3613-15.5762 44.8975-15.0879Q44.4336-14.5996 44.4336-13.9648Q44.4336-13.2812 44.8975-12.8174Q45.3613-12.3535 46.0938-12.3535ZM13.2324-59.8633Q13.2324-58.9355 14.0869-58.6182Q14.9414-58.3008 15.5762-58.9355L23.4375-66.9922L32.7148-44.3848Q32.8613-43.8477 33.374-43.6523Q33.8867-43.457 34.4238-43.6523L37.6953-44.9707Q38.1836-45.166 38.3789-45.6787Q38.5742-46.1914 38.3789-46.6797L28.9551-68.75L40.7227-68.457Q41.6016-68.4082 41.9922-69.2139Q42.3828-70.0195 41.748-70.6543L15.0391-100.098Q14.4043-100.781 13.5254-100.439Q12.6465-100.098 12.6465-99.1211Z"/>
  </g>
  <g id="Ultralight-M" transform="matrix(1 0 0 1 502.533 1126)">
   <path d="M36.4746 7.56836L89.3555 7.56836Q95.5078 7.56836 98.7061 4.37012Q101.904 1.17188 101.904-4.98047L101.904-65.2832Q101.904-71.4844 98.7061-74.6826Q95.5078-77.8809 89.3555-77.8809L41.0645-77.8809L43.2129-75.4395L89.209-75.4395Q94.2871-75.4395 96.875-72.8516Q99.4629-70.2637 99.4629-65.1855L99.4629-5.07812Q99.4629 0 96.875 2.58789Q94.2871 5.17578 89.209 5.17578L36.6211 5.17578Q31.543 5.17578 28.9551 2.58789Q26.3672 0 26.3672-5.07812L26.3672-49.6582L23.9258-49.6582L23.9258-4.98047Q23.9258 1.17188 27.124 4.37012Q30.3223 7.56836 36.4746 7.56836ZM45.166-55.7129L81.0547-55.7129Q81.6406-55.7129 81.9824-56.0791Q82.3242-56.4453 82.3242-56.9336Q82.3242-57.4219 81.9824-57.7881Q81.6406-58.1543 81.0547-58.1543L45.166-58.1543Q44.6289-58.1543 44.2627-57.7881Q43.8965-57.4219 43.8965-56.9336Q43.8965-56.4453 44.2627-56.0791Q44.6289-55.7129 45.166-55.7129ZM45.166-33.8867L81.0547-33.8867Q81.6406-33.8867 81.9824-34.2529Q82.3242-34.6191 82.3242-35.1074Q82.3242-35.5957 81.9824-35.9863Q81.6406-36.377 81.0547-36.377L45.166-36.377Q44.6289-36.377 44.2627-35.9863Q43.8965-35.5957 43.8965-35.1074Q43.8965-34.6191 44.2627-34.2529Q44.6289-33.8867 45.166-33.8867ZM45.166-12.1094L81.0547-12.1094Q81.6406-12.1094 81.9824-12.4756Q82.3242-12.8418 82.3242-13.3301Q82.3242-13.8184 81.9824-14.1846Q81.6406-14.5508 81.0547-14.5508L45.166-14.5508Q44.6289-14.5508 44.2627-14.1846Q43.8965-13.8184 43.8965-13.3301Q43.8965-12.8418 44.2627-12.4756Q44.6289-12.1094 45.166-12.1094ZM13.3789-59.7168Q13.4277-58.8867 14.1357-58.5938Q14.8438-58.3008 15.4297-58.9355L23.3887-67.0898L32.9102-43.8965Q33.1055-43.457 33.5449-43.2861Q33.9844-43.1152 34.4727-43.3105L37.3535-44.3848Q37.793-44.5801 37.9639-45.0439Q38.1348-45.5078 37.9883-45.9473L28.3691-68.5059L40.4785-67.9688Q41.2598-67.9688 41.5771-68.6768Q41.8945-69.3848 41.3574-69.9219L14.6484-99.9023Q14.1113-100.537 13.3057-100.22Q12.5-99.9023 12.5-99.0723Z"/>
  </g>
  <g id="Black-S" transform="matrix(1 0 0 1 2883.99 696)">
   <path d="M32.4219 2.92969L73.8281 2.92969Q81.0059 2.92969 85.0342-1.09863Q89.0625-5.12695 89.0625-12.3047L89.0625-58.1055Q89.0625-65.2832 85.0342-69.3115Q81.0059-73.3398 73.8281-73.3398L39.502-73.3398L53.7109-59.1309L71.582-59.1797Q73.4375-59.1797 74.1699-58.374Q74.9023-57.5684 74.9023-55.8594L74.9023-14.5508Q74.9023-12.8906 74.1699-12.0605Q73.4375-11.2305 71.582-11.2305L34.668-11.2305Q32.8613-11.2305 32.1045-12.0605Q31.3477-12.8906 31.3477-14.5508L31.3477-36.4746L17.1875-36.4746L17.1875-12.3047Q17.1875-5.12695 21.2158-1.09863Q25.2441 2.92969 32.4219 2.92969ZM42.8711-46.0449L63.4277-46.0449Q64.5996-46.0449 65.3809-46.8506Q66.1621-47.6562 66.1621-48.8281Q66.1621-49.9512 65.3809-50.7324Q64.5996-51.5137 63.4277-51.5137L42.8711-51.5137Q41.6504-51.5137 40.8691-50.7324Q40.0879-49.9512 40.0879-48.8281Q40.0879-47.6562 40.8691-46.8506Q41.6504-46.0449 42.8711-46.0449ZM42.8711-32.4219L63.4277-32.4219Q64.5996-32.4219 65.3809-33.2275Q66.1621-34.0332 66.1621-35.2051Q66.1621-36.3281 65.3809-37.1094Q64.5996-37.8906 63.4277-37.8906L42.8711-37.8906Q41.6504-37.8906 40.8691-37.1094Q40.0879-36.3281 40.0879-35.2051Q40.0879-34.0332 40.8691-33.2275Q41.6504-32.4219 42.8711-32.4219ZM42.8711-18.8965L63.4277-18.8965Q64.5996-18.8965 65.3809-19.6777Q66.1621-20.459 66.1621-21.582Q66.1621-22.7539 65.3809-23.5596Q64.5996-24.3652 63.4277-24.3652L42.8711-24.3652Q41.6504-24.3652 40.8691-23.5596Q40.0879-22.7539 40.0879-21.582Q40.0879-20.459 40.8691-19.6777Q41.6504-18.8965 42.8711-18.8965ZM8.98438-51.123Q8.93555-49.1699 10.5713-48.584Q12.207-47.998 13.4766-49.4141L17.1387-53.5645L21.8262-41.748Q22.3145-40.5762 23.291-39.8926Q24.2676-39.209 25.8301-39.7461L29.5898-41.0645Q31.2012-41.6016 31.2744-42.8955Q31.3477-44.1895 31.0059-44.9707L25.7812-56.9336L31.6895-56.5918Q33.5449-56.4941 34.2529-58.0322Q34.9609-59.5703 33.6426-60.8887L13.6719-80.8594Q12.4512-82.1289 11.0107-81.543Q9.57031-80.957 9.52148-79.1992Z"/>
  </g>
  <g id="Heavy-S" transform="matrix(1 0 0 1 2587.57 696)">
   <path d="M32.7148 2.34375L73.9258 2.34375Q80.8594 2.34375 84.6436-1.46484Q88.4277-5.27344 88.4277-12.2559L88.4277-58.1543Q88.4277-65.0879 84.6436-68.9209Q80.8594-72.7539 73.9258-72.7539L39.1113-72.7539L51.6602-60.2051L72.1191-60.2539Q74.1699-60.2539 75.0732-59.3018Q75.9766-58.3496 75.9766-56.4453L75.9766-13.9648Q75.9766-12.1094 75.0732-11.1328Q74.1699-10.1562 72.1191-10.1562L34.5215-10.1562Q32.4707-10.1562 31.5674-11.1328Q30.6641-12.1094 30.6641-13.9648L30.6641-36.8164L18.2129-36.8164L18.2129-12.2559Q18.2129-5.27344 21.9971-1.46484Q25.7812 2.34375 32.7148 2.34375ZM42.041-46.2891L64.4043-46.2891Q65.5273-46.2891 66.3086-47.0947Q67.0898-47.9004 67.0898-49.0723Q67.0898-50.1465 66.3086-50.9277Q65.5273-51.709 64.4043-51.709L42.041-51.709Q40.8203-51.709 40.0391-50.9277Q39.2578-50.1465 39.2578-49.0723Q39.2578-47.9004 40.0391-47.0947Q40.8203-46.2891 42.041-46.2891ZM42.041-32.4707L64.4043-32.4707Q65.5273-32.4707 66.3086-33.252Q67.0898-34.0332 67.0898-35.2051Q67.0898-36.3281 66.3086-37.1094Q65.5273-37.8906 64.4043-37.8906L42.041-37.8906Q40.8203-37.8906 40.0391-37.1094Q39.2578-36.3281 39.2578-35.2051Q39.2578-34.0332 40.0391-33.252Q40.8203-32.4707 42.041-32.4707ZM42.041-18.7012L64.4043-18.7012Q65.5273-18.7012 66.3086-19.4824Q67.0898-20.2637 67.0898-21.3379Q67.0898-22.5098 66.3086-23.3154Q65.5273-24.1211 64.4043-24.1211L42.041-24.1211Q40.8203-24.1211 40.0391-23.3154Q39.2578-22.5098 39.2578-21.3379Q39.2578-20.2637 40.0391-19.4824Q40.8203-18.7012 42.041-18.7012ZM9.17969-52.0508Q9.13086-50.293 10.6445-49.7559Q12.1582-49.2188 13.3301-50.4883L17.4805-55.0293L22.5586-42.2852Q22.9492-41.2598 23.8281-40.6738Q24.707-40.0879 26.0254-40.5273L29.8828-41.9434Q31.25-42.4316 31.3477-43.5547Q31.4453-44.6777 31.1035-45.4102L25.5371-58.2031L31.9336-58.0566Q33.6426-58.0078 34.2773-59.375Q34.9121-60.7422 33.7402-62.0117L13.5254-82.2266Q12.4023-83.3984 11.084-82.8613Q9.76562-82.3242 9.7168-80.7129Z"/>
  </g>
  <g id="Bold-S" transform="matrix(1 0 0 1 2291.2 696)">
   <path d="M33.0566 1.66016L74.0234 1.66016Q80.6641 1.66016 84.2285-1.9043Q87.793-5.46875 87.793-12.207L87.793-58.252Q87.793-64.9414 84.2285-68.5059Q80.6641-72.0703 74.0234-72.0703L38.6719-72.0703L49.3652-61.4258L72.7051-61.4746Q75-61.4746 76.0742-60.3516Q77.1484-59.2285 77.1484-57.0801L77.1484-13.3789Q77.1484-11.2305 76.0986-10.1074Q75.0488-8.98438 72.7539-8.98438L34.375-8.98438Q32.0801-8.98438 31.0059-10.1074Q29.9316-11.2305 29.9316-13.3789L29.9316-37.207L19.3359-37.207L19.3359-12.207Q19.3359-5.46875 22.876-1.9043Q26.416 1.66016 33.0566 1.66016ZM41.1133-46.582L65.4785-46.582Q66.6016-46.582 67.3828-47.3877Q68.1641-48.1934 68.1641-49.3164Q68.1641-50.4395 67.3828-51.1963Q66.6016-51.9531 65.4785-51.9531L41.1133-51.9531Q39.8926-51.9531 39.1357-51.1963Q38.3789-50.4395 38.3789-49.3164Q38.3789-48.1934 39.1357-47.3877Q39.8926-46.582 41.1133-46.582ZM41.1133-32.5195L65.4785-32.5195Q66.6016-32.5195 67.3828-33.3008Q68.1641-34.082 68.1641-35.2539Q68.1641-36.3281 67.3828-37.1094Q66.6016-37.8906 65.4785-37.8906L41.1133-37.8906Q39.8926-37.8906 39.1357-37.1094Q38.3789-36.3281 38.3789-35.2539Q38.3789-34.082 39.1357-33.3008Q39.8926-32.5195 41.1133-32.5195ZM41.1133-18.457L65.4785-18.457Q66.6016-18.457 67.3828-19.2383Q68.1641-20.0195 68.1641-21.0938Q68.1641-22.2656 67.3828-23.0469Q66.6016-23.8281 65.4785-23.8281L41.1133-23.8281Q39.8926-23.8281 39.1357-23.0469Q38.3789-22.2656 38.3789-21.0938Q38.3789-20.0195 39.1357-19.2383Q39.8926-18.457 41.1133-18.457ZM9.42383-53.0762Q9.375-51.5137 10.7178-51.0498Q12.0605-50.5859 13.1348-51.6602L17.8223-56.6406L23.3398-42.8223Q23.6816-41.9434 24.4629-41.4795Q25.2441-41.0156 26.2695-41.4062L30.2246-42.9199Q31.2988-43.3105 31.4209-44.2383Q31.543-45.166 31.25-45.8496L25.2441-59.5703L32.2266-59.668Q33.7402-59.6191 34.3018-60.8398Q34.8633-62.0605 33.7891-63.1836L13.3789-83.6914Q12.3535-84.7656 11.1816-84.2773Q10.0098-83.7891 9.96094-82.373Z"/>
  </g>
  <g id="Semibold-S" transform="matrix(1 0 0 1 1994.71 696)">
   <path d="M33.3008 1.2207L74.0723 1.2207Q80.5176 1.2207 83.9111-2.19727Q87.3047-5.61523 87.3047-12.1582L87.3047-58.252Q87.3047-64.7949 83.9111-68.2129Q80.5176-71.6309 74.0723-71.6309L38.3789-71.6309L47.8027-62.2559L73.0957-62.2559Q75.5859-62.2559 76.7822-61.0352Q77.9785-59.8145 77.9785-57.4707L77.9785-12.9395Q77.9785-10.5957 76.7822-9.375Q75.5859-8.1543 73.1445-8.1543L34.2285-8.1543Q31.7871-8.1543 30.5908-9.375Q29.3945-10.5957 29.3945-12.9395L29.3945-37.4512L20.0684-37.4512L20.0684-12.1582Q20.0684-5.61523 23.4375-2.19727Q26.8066 1.2207 33.3008 1.2207ZM40.4297-46.7773L66.2109-46.7773Q67.334-46.7773 68.0908-47.5586Q68.8477-48.3398 68.8477-49.5117Q68.8477-50.5859 68.0908-51.3428Q67.334-52.0996 66.2109-52.0996L40.4297-52.0996Q39.2578-52.0996 38.501-51.3428Q37.7441-50.5859 37.7441-49.5117Q37.7441-48.3398 38.501-47.5586Q39.2578-46.7773 40.4297-46.7773ZM40.4297-32.5195L66.2109-32.5195Q67.334-32.5195 68.0908-33.3008Q68.8477-34.082 68.8477-35.2539Q68.8477-36.3281 68.0908-37.085Q67.334-37.8418 66.2109-37.8418L40.4297-37.8418Q39.2578-37.8418 38.501-37.085Q37.7441-36.3281 37.7441-35.2539Q37.7441-34.082 38.501-33.3008Q39.2578-32.5195 40.4297-32.5195ZM40.4297-18.3105L66.2109-18.3105Q67.334-18.3105 68.0908-19.0674Q68.8477-19.8242 68.8477-20.8984Q68.8477-22.0703 68.0908-22.8516Q67.334-23.6328 66.2109-23.6328L40.4297-23.6328Q39.2578-23.6328 38.501-22.8516Q37.7441-22.0703 37.7441-20.8984Q37.7441-19.8242 38.501-19.0674Q39.2578-18.3105 40.4297-18.3105ZM9.57031-53.7598Q9.52148-52.3438 10.7666-51.9531Q12.0117-51.5625 12.9883-52.4902L18.0664-57.7637L23.877-43.2617Q24.1699-42.4805 24.8779-42.0898Q25.5859-41.6992 26.416-41.9922L30.4199-43.6035Q31.3477-43.9453 31.4941-44.7266Q31.6406-45.5078 31.2988-46.1426L25.0488-60.5469L32.373-60.791Q33.7891-60.791 34.3018-61.8896Q34.8145-62.9883 33.8379-64.0625L13.2324-84.7656Q12.3047-85.7422 11.2305-85.3027Q10.1562-84.8633 10.1074-83.5449Z"/>
  </g>
  <g id="Medium-S" transform="matrix(1 0 0 1 1698.19 696)">
   <path d="M33.4473 0.830078L74.1211 0.830078Q80.4688 0.830078 83.7158-2.41699Q86.9629-5.66406 86.9629-12.1094L86.9629-58.3008Q86.9629-64.6973 83.7158-67.9688Q80.4688-71.2402 74.1211-71.2402L38.1348-71.2402L46.582-62.8906L73.4375-62.8906Q75.9766-62.8906 77.2705-61.5967Q78.5645-60.3027 78.5645-57.8125L78.5645-12.5977Q78.5645-10.1074 77.2949-8.81348Q76.0254-7.51953 73.4863-7.51953L34.1309-7.51953Q31.5918-7.51953 30.2979-8.81348Q29.0039-10.1074 29.0039-12.5977L29.0039-37.6953L20.6543-37.6953L20.6543-12.1094Q20.6543-5.66406 23.9014-2.41699Q27.1484 0.830078 33.4473 0.830078ZM39.9414-46.9238L66.748-46.9238Q67.8711-46.9238 68.6279-47.7051Q69.3848-48.4863 69.3848-49.6094Q69.3848-50.7324 68.6279-51.4893Q67.8711-52.2461 66.748-52.2461L39.9414-52.2461Q38.7695-52.2461 38.0127-51.4893Q37.2559-50.7324 37.2559-49.6094Q37.2559-48.4863 38.0127-47.7051Q38.7695-46.9238 39.9414-46.9238ZM39.9414-32.5195L66.748-32.5195Q67.8711-32.5195 68.6279-33.3252Q69.3848-34.1309 69.3848-35.2539Q69.3848-36.3281 68.6279-37.085Q67.8711-37.8418 66.748-37.8418L39.9414-37.8418Q38.7695-37.8418 38.0127-37.085Q37.2559-36.3281 37.2559-35.2539Q37.2559-34.1309 38.0127-33.3252Q38.7695-32.5195 39.9414-32.5195ZM39.9414-18.1641L66.748-18.1641Q67.8711-18.1641 68.6279-18.9209Q69.3848-19.6777 69.3848-20.8008Q69.3848-21.9238 68.6279-22.7051Q67.8711-23.4863 66.748-23.4863L39.9414-23.4863Q38.7695-23.4863 38.0127-22.7051Q37.2559-21.9238 37.2559-20.8008Q37.2559-19.6777 38.0127-18.9209Q38.7695-18.1641 39.9414-18.1641ZM9.66797-54.3457Q9.61914-53.0273 10.791-52.6611Q11.9629-52.2949 12.8906-53.1738L18.2129-58.6426L24.2676-43.5547Q24.5605-42.8711 25.1953-42.5537Q25.8301-42.2363 26.5625-42.4805L30.5664-44.1406Q31.3477-44.4336 31.4941-45.1172Q31.6406-45.8008 31.3477-46.4355L24.9023-61.3281L32.5195-61.6699Q33.8379-61.6699 34.3262-62.6953Q34.8145-63.7207 33.8867-64.6973L13.1348-85.5469Q12.2559-86.4746 11.2549-86.0596Q10.2539-85.6445 10.2539-84.4238Z"/>
  </g>
  <g id="Regular-S" transform="matrix(1 0 0 1 1401.7 696)">
   <path d="M33.6914 0.390625L74.1699 0.390625Q80.3223 0.390625 83.3984-2.70996Q86.4746-5.81055 86.4746-12.0605L86.4746-58.3496Q86.4746-64.5508 83.3984-67.6758Q80.3223-70.8008 74.1699-70.8008L37.8418-70.8008L45.0195-63.7207L73.8281-63.7207Q76.5625-63.7207 77.9785-62.3047Q79.3945-60.8887 79.3945-58.252L79.3945-12.1582Q79.3945-9.52148 78.0029-8.10547Q76.6113-6.68945 73.877-6.68945L34.0332-6.68945Q31.2988-6.68945 29.8828-8.10547Q28.4668-9.52148 28.4668-12.1582L28.4668-37.9395L21.4355-37.9395L21.4355-12.0605Q21.4355-5.81055 24.4873-2.70996Q27.5391 0.390625 33.6914 0.390625ZM39.3066-47.1191L67.4805-47.1191Q68.6035-47.1191 69.3604-47.9004Q70.1172-48.6816 70.1172-49.8047Q70.1172-50.8789 69.3604-51.6357Q68.6035-52.3926 67.4805-52.3926L39.3066-52.3926Q38.1348-52.3926 37.3779-51.6357Q36.6211-50.8789 36.6211-49.8047Q36.6211-48.6816 37.3779-47.9004Q38.1348-47.1191 39.3066-47.1191ZM39.3066-32.5684L67.4805-32.5684Q68.6035-32.5684 69.3604-33.3496Q70.1172-34.1309 70.1172-35.2539Q70.1172-36.3281 69.3604-37.085Q68.6035-37.8418 67.4805-37.8418L39.3066-37.8418Q38.1348-37.8418 37.3779-37.085Q36.6211-36.3281 36.6211-35.2539Q36.6211-34.1309 37.3779-33.3496Q38.1348-32.5684 39.3066-32.5684ZM39.3066-18.0176L67.4805-18.0176Q68.6035-18.0176 69.3604-18.7744Q70.1172-19.5312 70.1172-20.6055Q70.1172-21.7285 69.3604-22.5098Q68.6035-23.291 67.4805-23.291L39.3066-23.291Q38.1348-23.291 37.3779-22.5098Q36.6211-21.7285 36.6211-20.6055Q36.6211-19.5312 37.3779-18.7744Q38.1348-18.0176 39.3066-18.0176ZM9.81445-55.0293Q9.76562-53.8574 10.8398-53.54Q11.9141-53.2227 12.7441-53.9551L18.457-59.7168L24.8047-43.9453Q25.0488-43.3594 25.6104-43.1152Q26.1719-42.8711 26.709-43.0664L30.8105-44.7754Q31.3965-45.0195 31.5674-45.5811Q31.7383-46.1426 31.4453-46.7285L24.707-62.2559L32.7148-62.7441Q33.8867-62.793 34.3262-63.6963Q34.7656-64.5996 33.9355-65.5273L13.0371-86.5723Q12.207-87.4023 11.3037-87.0361Q10.4004-86.6699 10.4004-85.5469Z"/>
  </g>
  <g id="Light-S" transform="matrix(1 0 0 1 1106.04 696)">
   <path d="M32.0801-0.244141L72.8516-0.244141Q78.6133-0.244141 81.5186-3.17383Q84.4238-6.10352 84.4238-11.9141L84.4238-58.4961Q84.4238-64.2578 81.5186-67.1875Q78.6133-70.1172 72.8516-70.1172L36.084-70.1172L41.5527-64.6484L72.6074-64.6484Q75.7324-64.6484 77.3438-63.0371Q78.9551-61.4258 78.9551-58.3984L78.9551-12.0117Q78.9551-8.93555 77.3682-7.32422Q75.7812-5.71289 72.6562-5.71289L32.373-5.71289Q29.248-5.71289 27.6367-7.32422Q26.0254-8.93555 26.0254-12.0117L26.0254-40.625L20.6055-40.625L20.6055-11.9141Q20.6055-6.10352 23.4863-3.17383Q26.3672-0.244141 32.0801-0.244141ZM38.0859-48.4375L66.2598-48.4375Q67.1387-48.4375 67.749-49.0479Q68.3594-49.6582 68.3594-50.5371Q68.3594-51.416 67.749-52.0264Q67.1387-52.6367 66.2598-52.6367L38.0859-52.6367Q37.1582-52.6367 36.5479-52.0264Q35.9375-51.416 35.9375-50.5371Q35.9375-49.6582 36.5479-49.0479Q37.1582-48.4375 38.0859-48.4375ZM38.0859-33.1055L66.2598-33.1055Q67.1387-33.1055 67.749-33.7158Q68.3594-34.3262 68.3594-35.2051Q68.3594-36.084 67.749-36.6943Q67.1387-37.3047 66.2598-37.3047L38.0859-37.3047Q37.1582-37.3047 36.5479-36.6943Q35.9375-36.084 35.9375-35.2051Q35.9375-34.3262 36.5479-33.7158Q37.1582-33.1055 38.0859-33.1055ZM38.0859-17.7246L66.2598-17.7246Q67.1387-17.7246 67.749-18.335Q68.3594-18.9453 68.3594-19.8242Q68.3594-20.7031 67.749-21.3379Q67.1387-21.9727 66.2598-21.9727L38.0859-21.9727Q37.1582-21.9727 36.5479-21.3379Q35.9375-20.7031 35.9375-19.8242Q35.9375-18.9453 36.5479-18.335Q37.1582-17.7246 38.0859-17.7246ZM10.0098-54.7852Q10.0098-53.8086 10.9131-53.5156Q11.8164-53.2227 12.5488-53.8574L18.4082-59.8633L25.0977-43.3105Q25.3418-42.8223 25.8301-42.6025Q26.3184-42.3828 26.8066-42.5781L30.3223-43.9941Q30.8594-44.2383 31.0059-44.7266Q31.1523-45.2148 30.9082-45.752L23.9258-61.9141L32.373-62.1582Q33.3984-62.1582 33.7891-62.9639Q34.1797-63.7695 33.4473-64.5508L12.5488-86.3281Q11.8652-87.0605 11.0352-86.7432Q10.2051-86.4258 10.2051-85.4004Z"/>
  </g>
  <g id="Thin-S" transform="matrix(1 0 0 1 810.695 696)">
   <path d="M29.9805-1.12305L71.1426-1.12305Q76.3672-1.12305 79.0039-3.78418Q81.6406-6.44531 81.6406-11.6699L81.6406-58.6426Q81.6406-63.8672 79.0039-66.5527Q76.3672-69.2383 71.1426-69.2383L33.7402-69.2383L36.9141-65.918L70.9961-65.918Q74.6094-65.918 76.4648-64.0625Q78.3203-62.207 78.3203-58.5449L78.3203-11.7676Q78.3203-8.1543 76.4893-6.29883Q74.6582-4.44336 70.9961-4.44336L30.1758-4.44336Q26.5137-4.44336 24.6338-6.29883Q22.7539-8.1543 22.7539-11.7676L22.7539-44.1406L19.4824-44.1406L19.4824-11.6699Q19.4824-6.44531 22.1436-3.78418Q24.8047-1.12305 29.9805-1.12305ZM36.4746-50.1465L64.5996-50.1465Q65.2344-50.1465 65.625-50.5615Q66.0156-50.9766 66.0156-51.5625Q66.0156-52.1484 65.625-52.5635Q65.2344-52.9785 64.5996-52.9785L36.4746-52.9785Q35.8398-52.9785 35.4248-52.5635Q35.0098-52.1484 35.0098-51.5625Q35.0098-50.9766 35.4248-50.5615Q35.8398-50.1465 36.4746-50.1465ZM36.4746-33.7402L64.5996-33.7402Q65.2344-33.7402 65.625-34.1553Q66.0156-34.5703 66.0156-35.2051Q66.0156-35.7422 65.625-36.1572Q65.2344-36.5723 64.5996-36.5723L36.4746-36.5723Q35.8398-36.5723 35.4248-36.1572Q35.0098-35.7422 35.0098-35.2051Q35.0098-34.5703 35.4248-34.1553Q35.8398-33.7402 36.4746-33.7402ZM36.4746-17.3828L64.5996-17.3828Q65.2344-17.3828 65.625-17.7979Q66.0156-18.2129 66.0156-18.7988Q66.0156-19.3848 65.625-19.7998Q65.2344-20.2148 64.5996-20.2148L36.4746-20.2148Q35.8398-20.2148 35.4248-19.7998Q35.0098-19.3848 35.0098-18.7988Q35.0098-18.2129 35.4248-17.7979Q35.8398-17.3828 36.4746-17.3828ZM10.3027-54.5898Q10.3027-53.8086 11.0107-53.5645Q11.7188-53.3203 12.2559-53.8086L18.3594-60.0586L25.4883-42.5781Q25.6836-42.1387 26.0742-41.9922Q26.4648-41.8457 26.9043-41.9922L29.6875-43.0664Q30.0781-43.2129 30.2246-43.6523Q30.3711-44.0918 30.1758-44.4824L22.9004-61.5723L31.9824-61.4258Q32.7148-61.377 33.0322-62.0361Q33.3496-62.6953 32.8613-63.2812L11.9141-86.084Q11.377-86.6699 10.6689-86.4014Q9.96094-86.1328 9.96094-85.3027Z"/>
  </g>
  <g id="Ultralight-S" transform="matrix(1 0 0 1 514.692 696)">
   <path d="M28.9062-1.5625L70.2637-1.5625Q75.1953-1.5625 77.7344-4.10156Q80.2734-6.64062 80.2734-11.5723L80.2734-58.7402Q80.2734-63.6719 77.7344-66.2109Q75.1953-68.75 70.2637-68.75L32.5195-68.75L34.5703-66.5527L70.166-66.5527Q74.0723-66.5527 76.0498-64.5508Q78.0273-62.5488 78.0273-58.6426L78.0273-11.6699Q78.0273-7.76367 76.0498-5.76172Q74.0723-3.75977 70.166-3.75977L29.0527-3.75977Q25.1465-3.75977 23.1201-5.76172Q21.0938-7.76367 21.0938-11.6699L21.0938-45.9961L18.9453-45.9961L18.9453-11.5723Q18.9453-6.64062 21.46-4.10156Q23.9746-1.5625 28.9062-1.5625ZM35.6445-51.0254L63.7695-51.0254Q64.2578-51.0254 64.5508-51.3184Q64.8438-51.6113 64.8438-52.0508Q64.8438-52.4902 64.5508-52.8076Q64.2578-53.125 63.7695-53.125L35.6445-53.125Q35.2051-53.125 34.8633-52.8076Q34.5215-52.4902 34.5215-52.0508Q34.5215-51.6113 34.8633-51.3184Q35.2051-51.0254 35.6445-51.0254ZM35.6445-34.1309L63.7695-34.1309Q64.2578-34.1309 64.5508-34.4238Q64.8438-34.7168 64.8438-35.1562Q64.8438-35.5957 64.5508-35.9131Q64.2578-36.2305 63.7695-36.2305L35.6445-36.2305Q35.2051-36.2305 34.8633-35.9131Q34.5215-35.5957 34.5215-35.1562Q34.5215-34.7168 34.8633-34.4238Q35.2051-34.1309 35.6445-34.1309ZM35.6445-17.1875L63.7695-17.1875Q64.2578-17.1875 64.5508-17.5049Q64.8438-17.8223 64.8438-18.2617Q64.8438-18.7012 64.5508-18.9941Q64.2578-19.2871 63.7695-19.2871L35.6445-19.2871Q35.2051-19.2871 34.8633-18.9941Q34.5215-18.7012 34.5215-18.2617Q34.5215-17.8223 34.8633-17.5049Q35.2051-17.1875 35.6445-17.1875ZM10.4492-54.3945Q10.4492-53.7598 11.0352-53.5156Q11.6211-53.2715 12.1094-53.7598L18.3105-60.1562L25.7324-42.1387Q25.8789-41.748 26.2207-41.626Q26.5625-41.5039 27.002-41.6504L29.3457-42.5293Q29.7363-42.6758 29.8584-43.0664Q29.9805-43.457 29.834-43.7988L22.3633-61.3281L31.7383-60.9863Q32.373-60.9375 32.666-61.5234Q32.959-62.1094 32.5195-62.5977L11.5723-85.9375Q11.1328-86.4258 10.4736-86.1816Q9.81445-85.9375 9.81445-85.2051Z"/>
  </g>
 </g>
</svg>
