<?xml version="1.0" encoding="UTF-8"?>
<!--Generator: Apple Native CoreSVG 232.5-->
<!DOCTYPE svg
PUBLIC "-//W3C//DTD SVG 1.1//EN"
       "http://www.w3.org/Graphics/SVG/1.1/DTD/svg11.dtd">
<svg version="1.1" xmlns="http://www.w3.org/2000/svg" xmlns:xlink="http://www.w3.org/1999/xlink" width="4.3457" height="3.26758">
 <g>
  <rect height="3.26758" opacity="0" width="4.3457" x="0" y="0"/>
  <path d="M3.22656 0.492188L3.22656 1.30273L2.94531 1.30273L2.94531 0.507812C2.94531 0.359375 2.86523 0.283203 2.72461 0.283203L0.501953 0.283203C0.361328 0.283203 0.28125 0.359375 0.28125 0.507812L0.28125 2.02734C0.28125 2.17578 0.361328 2.25195 0.501953 2.25195L1.52148 2.25195L1.52148 2.5332L0.498047 2.5332C0.164062 2.5332 0 2.37109 0 2.04297L0 0.492188C0 0.164062 0.164062 0.00195312 0.498047 0.00195312L2.72852 0.00195312C3.0625 0.00195312 3.22656 0.164062 3.22656 0.492188Z" fill="black" fill-opacity="1.0"/>
  <path d="M2.01953 3.26758L3.50781 3.26758C3.83984 3.26758 4.00586 3.10547 4.00586 2.77734L4.00586 1.79297C4.00586 1.4668 3.83984 1.30273 3.50781 1.30273L2.01953 1.30273C1.6875 1.30273 1.52148 1.46484 1.52148 1.79297L1.52148 2.77734C1.52148 3.10547 1.6875 3.26758 2.01953 3.26758ZM2.02344 2.98633C1.88281 2.98633 1.80273 2.91016 1.80273 2.76172L1.80273 1.80859C1.80273 1.66016 1.88281 1.58398 2.02344 1.58398L3.50391 1.58398C3.64453 1.58398 3.72461 1.66016 3.72461 1.80859L3.72461 2.76172C3.72461 2.91016 3.64453 2.98633 3.50391 2.98633Z" fill="black" fill-opacity="1.0"/>
 </g>
</svg>
