<?xml version="1.0" encoding="UTF-8"?>
<!--Generator: Apple Native CoreSVG 232.5-->
<!DOCTYPE svg
PUBLIC "-//W3C//DTD SVG 1.1//EN"
       "http://www.w3.org/Graphics/SVG/1.1/DTD/svg11.dtd">
<svg version="1.1" xmlns="http://www.w3.org/2000/svg" xmlns:xlink="http://www.w3.org/1999/xlink" width="3.49414" height="3.1543">
 <g>
  <rect height="3.1543" opacity="0" width="3.49414" x="0" y="0"/>
  <path d="M1.57617 3.15234C2.4375 3.15234 3.1543 2.4375 3.1543 1.57617C3.1543 0.714844 2.43555 0 1.57422 0C0.714844 0 0 0.714844 0 1.57617C0 2.4375 0.716797 3.15234 1.57617 3.15234ZM1.57617 2.85547C0.867188 2.85547 0.300781 2.28711 0.300781 1.57617C0.300781 0.865234 0.865234 0.296875 1.57422 0.296875C2.28516 0.296875 2.85547 0.865234 2.85547 1.57617C2.85547 2.28711 2.28711 2.85547 1.57617 2.85547Z" fill="black" fill-opacity="1.0"/>
  <path d="M1.31445 1.83203C1.42188 1.93945 1.57227 1.93945 1.67969 1.83203C1.70117 1.81055 1.73242 1.76562 1.75195 1.73828L2.25391 1.00195C2.2832 0.958984 2.27344 0.919922 2.25 0.894531C2.22656 0.871094 2.18555 0.863281 2.14453 0.890625L1.40625 1.39258C1.38086 1.41211 1.33398 1.44531 1.31445 1.46484C1.20703 1.57227 1.20703 1.72461 1.31445 1.83203ZM0.974609 2.3125C1.05273 2.3125 1.11719 2.24805 1.11719 2.16992C1.11719 2.0918 1.05273 2.02734 0.974609 2.02734C0.896484 2.02734 0.832031 2.0918 0.832031 2.16992C0.832031 2.24805 0.896484 2.3125 0.974609 2.3125ZM0.726562 1.71875C0.804688 1.71875 0.869141 1.6543 0.869141 1.57617C0.869141 1.49805 0.804688 1.43359 0.726562 1.43359C0.648438 1.43359 0.582031 1.49805 0.582031 1.57617C0.582031 1.6543 0.648438 1.71875 0.726562 1.71875ZM0.974609 1.125C1.05273 1.125 1.11719 1.06055 1.11719 0.982422C1.11719 0.904297 1.05273 0.839844 0.974609 0.839844C0.896484 0.839844 0.832031 0.904297 0.832031 0.982422C0.832031 1.06055 0.896484 1.125 0.974609 1.125ZM1.57422 0.871094C1.65234 0.871094 1.71875 0.806641 1.71875 0.728516C1.71875 0.650391 1.65234 0.585938 1.57422 0.585938C1.49609 0.585938 1.43164 0.650391 1.43164 0.728516C1.43164 0.806641 1.49609 0.871094 1.57422 0.871094ZM2.41992 1.71875C2.49805 1.71875 2.56445 1.6543 2.56445 1.57617C2.56445 1.49805 2.49805 1.43359 2.41992 1.43359C2.3418 1.43359 2.27734 1.49805 2.27734 1.57617C2.27734 1.6543 2.3418 1.71875 2.41992 1.71875ZM2.17188 2.3125C2.25 2.3125 2.31445 2.24805 2.31445 2.16992C2.31445 2.0918 2.25 2.02734 2.17188 2.02734C2.09375 2.02734 2.0293 2.0918 2.0293 2.16992C2.0293 2.24805 2.09375 2.3125 2.17188 2.3125Z" fill="black" fill-opacity="1.0"/>
 </g>
</svg>
