<?xml version="1.0" encoding="UTF-8"?>
<!--Generator: Apple Native CoreSVG 232.5-->
<!DOCTYPE svg
PUBLIC "-//W3C//DTD SVG 1.1//EN"
       "http://www.w3.org/Graphics/SVG/1.1/DTD/svg11.dtd">
<svg version="1.1" xmlns="http://www.w3.org/2000/svg" xmlns:xlink="http://www.w3.org/1999/xlink" width="4.56641" height="2.64258">
 <g>
  <rect height="2.64258" opacity="0" width="4.56641" x="0" y="0"/>
  <path d="M2.11328 2.64258C3.36914 2.64258 4.22656 1.63672 4.22656 1.32227C4.22656 1.00586 3.36914 0.00195312 2.11328 0.00195312C0.876953 0.00195312 0 1.00586 0 1.32227C0 1.63672 0.876953 2.64258 2.11328 2.64258ZM2.11328 2.36914C1.12695 2.36914 0.302734 1.5332 0.302734 1.32227C0.302734 1.15234 1.12695 0.275391 2.11328 0.275391C3.09766 0.275391 3.92188 1.15234 3.92188 1.32227C3.92188 1.5332 3.09766 2.36914 2.11328 2.36914ZM2.11328 2.17969C2.5918 2.17969 2.97266 1.78906 2.97266 1.32227C2.97266 0.841797 2.5918 0.464844 2.11328 0.464844C1.63281 0.464844 1.25195 0.841797 1.25195 1.32227C1.25195 1.78906 1.63281 2.17969 2.11328 2.17969ZM2.11328 1.61328C1.95117 1.61328 1.81836 1.48047 1.81836 1.32227C1.81836 1.16211 1.95117 1.0293 2.11328 1.0293C2.27539 1.0293 2.40625 1.16211 2.40625 1.32227C2.40625 1.48047 2.27539 1.61328 2.11328 1.61328Z" fill="black" fill-opacity="1.0"/>
 </g>
</svg>
