<?xml version="1.0" encoding="UTF-8"?>
<!--Generator: Apple Native CoreSVG 232.5-->
<!DOCTYPE svg
PUBLIC "-//W3C//DTD SVG 1.1//EN"
       "http://www.w3.org/Graphics/SVG/1.1/DTD/svg11.dtd">
<svg version="1.1" xmlns="http://www.w3.org/2000/svg" xmlns:xlink="http://www.w3.org/1999/xlink" width="3.49414" height="3.75391">
 <g>
  <rect height="3.75391" opacity="0" width="3.49414" x="0" y="0"/>
  <path d="M0 1.87598C0 2.73731 0.716797 3.45215 1.57617 3.45215C2.4375 3.45215 3.1543 2.73731 3.1543 1.87598C3.1543 1.11817 2.59961 0.473634 1.88086 0.329103L1.88086 0.120118C1.88086-0.00097556 1.79688-0.0322256 1.70703 0.0341807L1.21094 0.381837C1.13477 0.434571 1.13281 0.516603 1.21094 0.57129L1.70508 0.918946C1.79688 0.985353 1.88086 0.954103 1.88086 0.831056L1.88086 0.63379C2.44336 0.768556 2.85352 1.27051 2.85352 1.87598C2.85352 2.58692 2.28711 3.15527 1.57617 3.15527C0.867188 3.15527 0.296875 2.58692 0.298828 1.87598C0.300781 1.45801 0.496094 1.09082 0.802734 0.858399C0.873047 0.805665 0.896484 0.721681 0.851562 0.649415C0.808594 0.577149 0.710938 0.559571 0.632812 0.618165C0.25 0.909181 0 1.36817 0 1.87598Z" fill="black" fill-opacity="1.0"/>
 </g>
</svg>
