<?xml version="1.0" encoding="UTF-8"?>
<!--Generator: Apple Native CoreSVG 232.5-->
<!DOCTYPE svg
PUBLIC "-//W3C//DTD SVG 1.1//EN"
       "http://www.w3.org/Graphics/SVG/1.1/DTD/svg11.dtd">
<svg version="1.1" xmlns="http://www.w3.org/2000/svg" xmlns:xlink="http://www.w3.org/1999/xlink" width="3.49414" height="3.75265">
 <g>
  <rect height="3.75265" opacity="0" width="3.49414" x="0" y="0"/>
  <path d="M0 1.87535C0 2.73668 0.716797 3.45152 1.57617 3.45152C2.4375 3.45152 3.1543 2.73668 3.1543 1.87535C3.1543 1.36754 2.90234 0.908554 2.51953 0.617538C2.44336 0.558945 2.3457 0.576523 2.30273 0.648788C2.25781 0.721054 2.28125 0.805038 2.35156 0.857773C2.6582 1.09019 2.85352 1.45738 2.85547 1.87535C2.85742 2.58629 2.28711 3.15465 1.57617 3.15465C0.867188 3.15465 0.300781 2.58629 0.300781 1.87535C0.300781 1.26988 0.710938 0.767929 1.27344 0.633163L1.27344 0.832382C1.27344 0.953476 1.35547 0.984726 1.44727 0.920273L1.94336 0.572617C2.01953 0.519882 2.02148 0.437851 1.94336 0.383163L1.44922 0.0355072C1.35547-0.0328522 1.27344-0.00160221 1.27344 0.121445L1.27344 0.328476C0.552734 0.473007 0 1.11754 0 1.87535Z" fill="black" fill-opacity="1.0"/>
 </g>
</svg>
