<?xml version="1.0" encoding="UTF-8"?>
<!--Generator: Apple Native CoreSVG 232.5-->
<!DOCTYPE svg
PUBLIC "-//W3C//DTD SVG 1.1//EN"
       "http://www.w3.org/Graphics/SVG/1.1/DTD/svg11.dtd">
<svg version="1.1" xmlns="http://www.w3.org/2000/svg" xmlns:xlink="http://www.w3.org/1999/xlink" width="2.77734" height="2.57227">
 <g>
  <rect height="2.57227" opacity="0" width="2.77734" x="0" y="0"/>
  <path d="M2.28711 2.57227C2.36914 2.57227 2.4375 2.50781 2.4375 2.42578L2.4375 0.148438C2.4375 0.0664062 2.36914 0.00195312 2.28711 0.00195312C2.20508 0.00195312 2.13672 0.0664062 2.13672 0.148438L2.13672 2.42578C2.13672 2.50781 2.20508 2.57227 2.28711 2.57227ZM0.236328 2.50977C0.302734 2.50977 0.355469 2.49023 0.423828 2.44922L1.97461 1.53516C2.0957 1.46484 2.14453 1.38086 2.14453 1.28711C2.14453 1.19336 2.0957 1.10938 1.97461 1.03711L0.423828 0.125C0.355469 0.0839844 0.302734 0.0644531 0.236328 0.0644531C0.105469 0.0644531 0 0.164062 0 0.34375L0 2.23047C0 2.41016 0.105469 2.50977 0.236328 2.50977ZM0.314453 2.18359C0.294922 2.18359 0.28125 2.16992 0.28125 2.14844L0.28125 0.425781C0.28125 0.404297 0.294922 0.390625 0.314453 0.390625C0.324219 0.390625 0.333984 0.394531 0.345703 0.402344L1.77148 1.25C1.79102 1.25977 1.80078 1.26953 1.80078 1.28711C1.80078 1.30469 1.79102 1.31445 1.77148 1.32422L0.345703 2.17188C0.333984 2.17969 0.324219 2.18359 0.314453 2.18359Z" fill="black" fill-opacity="1.0"/>
 </g>
</svg>
