<?xml version="1.0" encoding="UTF-8"?>
<!--Generator: Apple Native CoreSVG 232.5-->
<!DOCTYPE svg
PUBLIC "-//W3C//DTD SVG 1.1//EN"
       "http://www.w3.org/Graphics/SVG/1.1/DTD/svg11.dtd">
<svg version="1.1" xmlns="http://www.w3.org/2000/svg" xmlns:xlink="http://www.w3.org/1999/xlink" width="3.49414" height="3.1543">
 <g>
  <rect height="3.1543" opacity="0" width="3.49414" x="0" y="0"/>
  <path d="M1.57617 3.15234C2.4375 3.15234 3.1543 2.4375 3.1543 1.57617C3.1543 0.714844 2.43555 0 1.57422 0C0.714844 0 0 0.714844 0 1.57617C0 2.4375 0.716797 3.15234 1.57617 3.15234ZM1.57617 2.85547C0.867188 2.85547 0.300781 2.28711 0.300781 1.57617C0.300781 0.865234 0.865234 0.296875 1.57422 0.296875C2.28516 0.296875 2.85547 0.865234 2.85547 1.57617C2.85547 2.28711 2.28711 2.85547 1.57617 2.85547Z" fill="black" fill-opacity="1.0"/>
  <path d="M1.31445 1.44531C1.49609 1.44336 1.65234 1.38086 1.77148 1.24023C1.64453 1.08203 1.51562 1.01758 1.31836 1.01562C1.12109 1.01562 0.990234 1.08008 0.861328 1.24219C0.986328 1.38281 1.14844 1.44727 1.31445 1.44531ZM0.876953 1.86328C0.976562 1.77148 1.0625 1.60938 1.07422 1.49609C0.986328 1.46289 0.869141 1.39453 0.806641 1.32227C0.775391 1.36719 0.742188 1.41602 0.714844 1.47461C0.648438 1.60547 0.583984 1.66016 0.535156 1.70312C0.517578 1.72266 0.505859 1.74609 0.505859 1.77344C0.505859 1.81836 0.550781 1.8418 0.632812 1.8418C0.658203 1.8418 0.683594 1.8418 0.708984 1.8418C0.78125 1.8418 0.828125 1.84961 0.876953 1.86328ZM1.32031 2.02734C1.46484 2.02734 1.56836 1.9375 1.65625 1.89453C1.55469 1.80273 1.48438 1.65039 1.47656 1.52344C1.42383 1.53711 1.36914 1.54492 1.31836 1.54492C1.26367 1.54492 1.21289 1.53711 1.1582 1.52344C1.15039 1.64648 1.07617 1.80469 0.976562 1.89844C1.06055 1.93164 1.16797 2.02734 1.32031 2.02734ZM1.74414 1.85742C1.80078 1.84766 1.85156 1.8418 1.92773 1.8418C1.99805 1.8418 2.06836 1.83008 2.10156 1.80859C2.0293 1.71289 1.89453 1.42188 1.82422 1.31641C1.75391 1.38867 1.63477 1.4668 1.55859 1.49609C1.56836 1.60742 1.64258 1.75977 1.74414 1.85742ZM2.42969 1.68164C2.61523 1.68164 2.73047 1.61914 2.73047 1.51953C2.73047 1.28125 2.60742 1.125 2.41992 1.125C2.25977 1.125 2.1543 1.21484 2.11914 1.37695C2.0957 1.4707 2.05469 1.51172 2.02734 1.53906C2.06055 1.58789 2.12109 1.69141 2.17773 1.77539C2.25977 1.74219 2.29883 1.68164 2.42969 1.68164ZM2.43164 1.45117C2.39844 1.45117 2.37305 1.42188 2.37305 1.38867C2.37305 1.35742 2.39844 1.32812 2.43164 1.32812C2.46289 1.32812 2.49219 1.35742 2.49219 1.38867C2.49219 1.42188 2.46289 1.45117 2.43164 1.45117ZM0.691406 2.14453C0.814453 2.14453 0.935547 2.09375 0.994141 2.01758C0.919922 1.9707 0.832031 1.92383 0.744141 1.92383C0.707031 1.93359 0.666016 1.93555 0.628906 1.94141C0.578125 1.95117 0.521484 1.97266 0.521484 2.0293C0.521484 2.10352 0.599609 2.14453 0.691406 2.14453ZM1.9082 2.14453C2.00195 2.14453 2.07617 2.10352 2.07617 2.03125C2.07617 1.97461 2.02148 1.92578 1.9707 1.92578C1.92969 1.92383 1.89648 1.92383 1.85156 1.92383C1.76758 1.92578 1.67578 1.97266 1.60547 2.01758C1.66211 2.09375 1.78711 2.14453 1.9082 2.14453Z" fill="black" fill-opacity="1.0"/>
 </g>
</svg>
