<?xml version="1.0" encoding="UTF-8"?>
<!--Generator: Apple Native CoreSVG 232.5-->
<!DOCTYPE svg
PUBLIC "-//W3C//DTD SVG 1.1//EN"
       "http://www.w3.org/Graphics/SVG/1.1/DTD/svg11.dtd">
<svg version="1.1" xmlns="http://www.w3.org/2000/svg" xmlns:xlink="http://www.w3.org/1999/xlink" width="3.49414" height="3.1543">
 <g>
  <rect height="3.1543" opacity="0" width="3.49414" x="0" y="0"/>
  <path d="M1.57617 3.15234C2.4375 3.15234 3.1543 2.4375 3.1543 1.57617C3.1543 0.714844 2.43555 0 1.57422 0C0.714844 0 0 0.714844 0 1.57617C0 2.4375 0.716797 3.15234 1.57617 3.15234ZM1.57617 2.85547C0.867188 2.85547 0.300781 2.28711 0.300781 1.57617C0.300781 0.865234 0.865234 0.296875 1.57422 0.296875C2.28516 0.296875 2.85547 0.865234 2.85547 1.57617C2.85547 2.28711 2.28711 2.85547 1.57617 2.85547Z" fill="black" fill-opacity="1.0"/>
  <path d="M1.62695 2.23242C1.67773 2.23242 1.71875 2.20898 1.81445 2.20898C1.9082 2.20898 1.93359 2.23242 2.00195 2.23242C2.10547 2.23242 2.16016 2.19141 2.16016 2.11133C2.16016 1.98633 2.03125 1.90234 1.8125 1.90234C1.70703 1.90234 1.66016 1.91211 1.59961 1.92773L1.52344 1.75C1.45117 1.58594 1.33008 1.47461 1.15625 1.47461L1.07031 1.47461C1.04297 1.47461 1.02344 1.46289 1.02344 1.43359C1.02344 1.38867 1.08203 1.37695 1.14844 1.37695C1.35547 1.37695 1.50977 1.49219 1.60547 1.72266L1.6543 1.83984C1.70117 1.83203 1.75586 1.82617 1.80664 1.82617C1.84766 1.82617 1.88867 1.83008 1.92773 1.83398C1.97266 1.80273 2.02148 1.77148 2.09375 1.74609C2.17383 1.79492 2.25977 1.83008 2.35156 1.83008C2.54883 1.83008 2.63867 1.78711 2.63867 1.5957C2.63867 1.37695 2.48242 1.21094 2.26367 1.20898L2.06836 0.957031C1.96289 0.818359 1.83594 0.75 1.71094 0.75C1.60742 0.75 1.45117 0.810547 1.45117 0.896484C1.45117 0.953125 1.56836 1.03711 1.65625 1.0918L2.06055 1.34375C2.03711 1.36523 2.00977 1.37891 1.97461 1.37891C1.91602 1.37891 1.85547 1.34375 1.77148 1.29492C1.55273 1.16797 1.38281 1.04883 1.1582 1.04883C0.921875 1.04883 0.740234 1.18555 0.644531 1.45312C0.570312 1.45312 0.511719 1.50391 0.511719 1.57617C0.511719 1.6582 0.578125 1.70898 0.666016 1.71094C0.769531 1.85742 0.943359 1.91211 1.14062 1.91211C1.15234 1.91211 1.16211 1.91016 1.17188 1.91016L1.46094 2.15625C1.53906 2.22266 1.57227 2.23242 1.62695 2.23242ZM1.12109 2.29688C1.25977 2.29688 1.3418 2.26758 1.40625 2.2207L1.19141 2.03516C1.17969 2.03516 1.16797 2.03711 1.1543 2.03711C1.11523 2.03711 1.06836 2.02734 1.00195 2.02734C0.921875 2.02734 0.871094 2.07031 0.871094 2.13672C0.871094 2.23242 0.96875 2.29688 1.12109 2.29688ZM2.33789 1.56641C2.30469 1.56641 2.2793 1.53711 2.2793 1.50586C2.2793 1.47266 2.30664 1.44336 2.33984 1.44336C2.37305 1.44336 2.39648 1.4707 2.39648 1.50195C2.39648 1.53516 2.36914 1.56641 2.33789 1.56641Z" fill="black" fill-opacity="1.0"/>
 </g>
</svg>
