<?xml version="1.0" encoding="UTF-8"?>
<!--Generator: Apple Native CoreSVG 232.5-->
<!DOCTYPE svg
PUBLIC "-//W3C//DTD SVG 1.1//EN"
       "http://www.w3.org/Graphics/SVG/1.1/DTD/svg11.dtd">
<svg version="1.1" xmlns="http://www.w3.org/2000/svg" xmlns:xlink="http://www.w3.org/1999/xlink" width="3.56836" height="3.51954">
 <g>
  <rect height="3.51954" opacity="0" width="3.56836" x="0" y="0"/>
  <path d="M0.774168 1.43871C0.773655 1.44294 0.773438 1.44745 0.773438 1.45215L0.773438 2.06934C0.773438 2.12208 0.798828 2.14747 0.851562 2.14747L1.3418 2.14747C1.38086 2.14747 1.41016 2.15528 1.44531 2.18653L2.07812 2.75879C2.08398 2.76661 2.0918 2.77051 2.10156 2.77051C2.1032 2.77051 2.10478 2.77029 2.10627 2.76984L2.36854 3.03192C2.33719 3.09082 2.27521 3.12794 2.20117 3.12794C2.12109 3.12794 2.06055 3.09473 1.97656 3.02247L1.29883 2.41309C1.28906 2.40528 1.27734 2.40137 1.26758 2.40137L0.837891 2.40137C0.613281 2.40137 0.5 2.28614 0.5 2.0459L0.5 1.47754C0.5 1.37089 0.52197 1.28885 0.565802 1.2305ZM2.39062 0.590826L2.39062 2.1305L2.11914 1.85921L2.11914 0.770513C2.11914 0.758795 2.11133 0.750982 2.09961 0.750982C2.0918 0.750982 2.08398 0.754888 2.07812 0.760748L1.52351 1.26401L1.33546 1.0761L1.97656 0.510748C2.06836 0.428716 2.11719 0.39356 2.19727 0.39356C2.30859 0.39356 2.39062 0.483404 2.39062 0.590826Z" fill="black" fill-opacity="1.0"/>
  <path d="M2.89844 3.28809C2.95117 3.34083 3.03711 3.34083 3.08789 3.28809C3.13867 3.23536 3.14062 3.15137 3.08789 3.09864L0.419922 0.432623C0.367188 0.381841 0.28125 0.379888 0.228516 0.432623C0.177734 0.483404 0.177734 0.573248 0.228516 0.624029Z" fill="black" fill-opacity="1.0"/>
 </g>
</svg>
