<?xml version="1.0" encoding="UTF-8"?>
<!--Generator: Apple Native CoreSVG 232.5-->
<!DOCTYPE svg
PUBLIC "-//W3C//DTD SVG 1.1//EN"
       "http://www.w3.org/Graphics/SVG/1.1/DTD/svg11.dtd">
<svg version="1.1" xmlns="http://www.w3.org/2000/svg" xmlns:xlink="http://www.w3.org/1999/xlink" width="3.27148" height="2.93945">
 <g>
  <rect height="2.93945" opacity="0" width="3.27148" x="0" y="0"/>
  <path d="M0.162109 1.25586C0.255859 1.25586 0.322266 1.1875 0.322266 1.09375L0.322266 1.04297L0.287109 0.5L0.654297 0.890625L1.10742 1.34961C1.13867 1.38086 1.17773 1.39648 1.2207 1.39648C1.32031 1.39648 1.39453 1.33008 1.39453 1.23047C1.39453 1.18359 1.37891 1.14062 1.3457 1.10938L0.890625 0.654297L0.498047 0.287109L1.04492 0.322266L1.09375 0.322266C1.1875 0.322266 1.25977 0.255859 1.25977 0.162109C1.25977 0.0683594 1.1875 0 1.09375 0L0.283203 0C0.103516 0 0 0.103516 0 0.283203L0 1.09375C0 1.18555 0.0683594 1.25586 0.162109 1.25586ZM1.83789 2.9375L2.64844 2.9375C2.82812 2.9375 2.93164 2.83398 2.93164 2.6543L2.93164 1.84375C2.93164 1.75195 2.86328 1.68164 2.76953 1.68164C2.67773 1.68164 2.60938 1.75 2.60938 1.84375L2.60938 1.89453L2.64648 2.4375L2.2793 2.04688L1.82422 1.58789C1.79492 1.55664 1.75391 1.54102 1.71094 1.54102C1.61133 1.54102 1.53711 1.60742 1.53711 1.70703C1.53711 1.75391 1.55469 1.79688 1.58594 1.82812L2.04102 2.2832L2.43359 2.65039L1.88867 2.61523L1.83789 2.61523C1.74414 2.61523 1.67383 2.68164 1.67188 2.77539C1.67188 2.86914 1.74414 2.9375 1.83789 2.9375Z" fill="black" fill-opacity="1.0"/>
 </g>
</svg>
